G04 #@! TF.GenerationSoftware,KiCad,Pcbnew,9.0.3*
G04 #@! TF.CreationDate,2025-11-14T23:27:14+05:00*
G04 #@! TF.ProjectId,Weather Station,57656174-6865-4722-9053-746174696f6e,rev?*
G04 #@! TF.SameCoordinates,Original*
G04 #@! TF.FileFunction,Paste,Top*
G04 #@! TF.FilePolarity,Positive*
%FSLAX46Y46*%
G04 Gerber Fmt 4.6, Leading zero omitted, Abs format (unit mm)*
G04 Created by KiCad (PCBNEW 9.0.3) date 2025-11-14 23:27:14*
%MOMM*%
%LPD*%
G01*
G04 APERTURE LIST*
G04 Aperture macros list*
%AMRoundRect*
0 Rectangle with rounded corners*
0 $1 Rounding radius*
0 $2 $3 $4 $5 $6 $7 $8 $9 X,Y pos of 4 corners*
0 Add a 4 corners polygon primitive as box body*
4,1,4,$2,$3,$4,$5,$6,$7,$8,$9,$2,$3,0*
0 Add four circle primitives for the rounded corners*
1,1,$1+$1,$2,$3*
1,1,$1+$1,$4,$5*
1,1,$1+$1,$6,$7*
1,1,$1+$1,$8,$9*
0 Add four rect primitives between the rounded corners*
20,1,$1+$1,$2,$3,$4,$5,0*
20,1,$1+$1,$4,$5,$6,$7,0*
20,1,$1+$1,$6,$7,$8,$9,0*
20,1,$1+$1,$8,$9,$2,$3,0*%
G04 Aperture macros list end*
%ADD10RoundRect,0.250001X-0.462499X-0.624999X0.462499X-0.624999X0.462499X0.624999X-0.462499X0.624999X0*%
%ADD11RoundRect,0.250000X0.350000X0.450000X-0.350000X0.450000X-0.350000X-0.450000X0.350000X-0.450000X0*%
%ADD12RoundRect,0.250000X-0.337500X-0.475000X0.337500X-0.475000X0.337500X0.475000X-0.337500X0.475000X0*%
%ADD13RoundRect,0.250000X0.337500X0.475000X-0.337500X0.475000X-0.337500X-0.475000X0.337500X-0.475000X0*%
%ADD14RoundRect,0.250000X0.475000X-0.337500X0.475000X0.337500X-0.475000X0.337500X-0.475000X-0.337500X0*%
%ADD15R,3.180000X2.250000*%
%ADD16RoundRect,0.250000X-0.350000X-0.450000X0.350000X-0.450000X0.350000X0.450000X-0.350000X0.450000X0*%
%ADD17RoundRect,0.250001X-0.944999X0.872499X-0.944999X-0.872499X0.944999X-0.872499X0.944999X0.872499X0*%
%ADD18RoundRect,0.375000X0.625000X0.375000X-0.625000X0.375000X-0.625000X-0.375000X0.625000X-0.375000X0*%
%ADD19RoundRect,0.500000X0.500000X1.400000X-0.500000X1.400000X-0.500000X-1.400000X0.500000X-1.400000X0*%
G04 APERTURE END LIST*
D10*
X66187500Y-112350000D03*
X69162500Y-112350000D03*
X66325000Y-107585000D03*
X69300000Y-107585000D03*
X66387500Y-102650000D03*
X69362500Y-102650000D03*
D11*
X72125000Y-126800000D03*
X70125000Y-126800000D03*
X76925000Y-126800000D03*
X74925000Y-126800000D03*
X81500000Y-126725000D03*
X79500000Y-126725000D03*
D12*
X70462500Y-55500000D03*
X72537500Y-55500000D03*
X98562500Y-35000000D03*
X100637500Y-35000000D03*
D13*
X77037500Y-55500000D03*
X74962500Y-55500000D03*
D14*
X115500000Y-83837500D03*
X115500000Y-81762500D03*
D12*
X138712500Y-106500000D03*
X140787500Y-106500000D03*
D15*
X121900000Y-117797500D03*
X121900000Y-124707500D03*
D16*
X79500000Y-106500000D03*
X81500000Y-106500000D03*
D12*
X134175000Y-106500000D03*
X136250000Y-106500000D03*
X122925000Y-95000000D03*
X125000000Y-95000000D03*
D16*
X79500000Y-116500000D03*
X81500000Y-116500000D03*
X79500000Y-111500000D03*
X81500000Y-111500000D03*
D17*
X107100000Y-71785000D03*
X107100000Y-76900000D03*
D12*
X143250000Y-106500000D03*
X145325000Y-106500000D03*
X86062500Y-73700000D03*
X88137500Y-73700000D03*
D18*
X102550000Y-76400000D03*
X102550000Y-74100000D03*
D19*
X96250000Y-74100000D03*
D18*
X102550000Y-71800000D03*
D13*
X104875000Y-35000000D03*
X102800000Y-35000000D03*
D17*
X91800000Y-71685000D03*
X91800000Y-76800000D03*
D12*
X86062500Y-78400000D03*
X88137500Y-78400000D03*
X122925000Y-91600000D03*
X125000000Y-91600000D03*
M02*
