G04 #@! TF.GenerationSoftware,KiCad,Pcbnew,9.0.3*
G04 #@! TF.CreationDate,2025-11-14T23:27:14+05:00*
G04 #@! TF.ProjectId,Weather Station,57656174-6865-4722-9053-746174696f6e,rev?*
G04 #@! TF.SameCoordinates,Original*
G04 #@! TF.FileFunction,Copper,L2,Inr*
G04 #@! TF.FilePolarity,Positive*
%FSLAX46Y46*%
G04 Gerber Fmt 4.6, Leading zero omitted, Abs format (unit mm)*
G04 Created by KiCad (PCBNEW 9.0.3) date 2025-11-14 23:27:14*
%MOMM*%
%LPD*%
G01*
G04 APERTURE LIST*
G04 Aperture macros list*
%AMRoundRect*
0 Rectangle with rounded corners*
0 $1 Rounding radius*
0 $2 $3 $4 $5 $6 $7 $8 $9 X,Y pos of 4 corners*
0 Add a 4 corners polygon primitive as box body*
4,1,4,$2,$3,$4,$5,$6,$7,$8,$9,$2,$3,0*
0 Add four circle primitives for the rounded corners*
1,1,$1+$1,$2,$3*
1,1,$1+$1,$4,$5*
1,1,$1+$1,$6,$7*
1,1,$1+$1,$8,$9*
0 Add four rect primitives between the rounded corners*
20,1,$1+$1,$2,$3,$4,$5,0*
20,1,$1+$1,$4,$5,$6,$7,0*
20,1,$1+$1,$6,$7,$8,$9,0*
20,1,$1+$1,$8,$9,$2,$3,0*%
G04 Aperture macros list end*
G04 #@! TA.AperFunction,ComponentPad*
%ADD10R,1.700000X1.700000*%
G04 #@! TD*
G04 #@! TA.AperFunction,ComponentPad*
%ADD11C,1.700000*%
G04 #@! TD*
G04 #@! TA.AperFunction,ComponentPad*
%ADD12R,1.508000X1.508000*%
G04 #@! TD*
G04 #@! TA.AperFunction,ComponentPad*
%ADD13C,1.508000*%
G04 #@! TD*
G04 #@! TA.AperFunction,ComponentPad*
%ADD14C,1.220000*%
G04 #@! TD*
G04 #@! TA.AperFunction,ComponentPad*
%ADD15C,1.560000*%
G04 #@! TD*
G04 #@! TA.AperFunction,ComponentPad*
%ADD16R,1.560000X1.560000*%
G04 #@! TD*
G04 #@! TA.AperFunction,ComponentPad*
%ADD17C,1.600000*%
G04 #@! TD*
G04 #@! TA.AperFunction,ComponentPad*
%ADD18RoundRect,0.250000X-0.550000X-0.550000X0.550000X-0.550000X0.550000X0.550000X-0.550000X0.550000X0*%
G04 #@! TD*
G04 #@! TA.AperFunction,ComponentPad*
%ADD19R,4.400000X1.800000*%
G04 #@! TD*
G04 #@! TA.AperFunction,ComponentPad*
%ADD20O,4.000000X1.800000*%
G04 #@! TD*
G04 #@! TA.AperFunction,ComponentPad*
%ADD21O,1.800000X4.000000*%
G04 #@! TD*
G04 #@! TA.AperFunction,ViaPad*
%ADD22C,0.600000*%
G04 #@! TD*
G04 APERTURE END LIST*
D10*
X123270000Y-84200000D03*
D11*
X123270000Y-86740000D03*
X125810000Y-84200000D03*
X125810000Y-86740000D03*
X128350000Y-84200000D03*
X128350000Y-86740000D03*
X130890000Y-84200000D03*
X130890000Y-86740000D03*
X133430000Y-84200000D03*
X133430000Y-86740000D03*
X135970000Y-84200000D03*
X135970000Y-86740000D03*
X138510000Y-84200000D03*
X138510000Y-86740000D03*
X141050000Y-84200000D03*
X141050000Y-86740000D03*
D12*
X96690000Y-40000000D03*
D13*
X99230000Y-40000000D03*
X101770000Y-40000000D03*
X104310000Y-40000000D03*
D14*
X71654550Y-50710000D03*
X74194550Y-50710000D03*
X76734550Y-50710000D03*
X79274550Y-50710000D03*
D10*
X80680000Y-78570000D03*
D11*
X80680000Y-76030000D03*
X80680000Y-73490000D03*
X80680000Y-70950000D03*
X80680000Y-68410000D03*
X80680000Y-65870000D03*
D15*
X87000000Y-82440000D03*
X87000000Y-84980000D03*
X87000000Y-87520000D03*
X87000000Y-90060000D03*
X87000000Y-92600000D03*
X87000000Y-95140000D03*
X87000000Y-97680000D03*
X87000000Y-100220000D03*
X87000000Y-102760000D03*
X87000000Y-105300000D03*
X87000000Y-107840000D03*
X87000000Y-110380000D03*
X87000000Y-112920000D03*
X87000000Y-115460000D03*
X87000000Y-118000000D03*
X87000000Y-120540000D03*
X87000000Y-123080000D03*
X87000000Y-125620000D03*
X87000000Y-128160000D03*
X112400000Y-82440000D03*
X112400000Y-84980000D03*
X112400000Y-87520000D03*
X112400000Y-90060000D03*
X112400000Y-92600000D03*
X112400000Y-95140000D03*
X112400000Y-97680000D03*
X112400000Y-100220000D03*
X112400000Y-102760000D03*
X112400000Y-105300000D03*
X112400000Y-107840000D03*
X112400000Y-110380000D03*
X112400000Y-112920000D03*
X112400000Y-115460000D03*
X112400000Y-118000000D03*
X112400000Y-120540000D03*
X112400000Y-123080000D03*
X112400000Y-125620000D03*
D16*
X112400000Y-128160000D03*
D17*
X114500000Y-76200000D03*
D18*
X112500000Y-76200000D03*
X121000000Y-106500000D03*
D17*
X123000000Y-106500000D03*
D19*
X134125000Y-127500000D03*
D20*
X134125000Y-121700000D03*
D21*
X129325000Y-124500000D03*
D18*
X128500000Y-93500000D03*
D17*
X130500000Y-93500000D03*
D18*
X128000000Y-106500000D03*
D17*
X130000000Y-106500000D03*
D22*
X67450000Y-37775000D03*
X67450000Y-42275000D03*
X67450000Y-44925000D03*
X67450000Y-49425000D03*
X67425000Y-53150000D03*
X67425000Y-57650000D03*
X64325000Y-86025000D03*
X64325000Y-90525000D03*
X67200000Y-115575000D03*
X67200000Y-120075000D03*
X61625000Y-112350000D03*
X61625000Y-116850000D03*
X61550000Y-102650000D03*
X61550000Y-107150000D03*
X64375000Y-93675000D03*
X64375000Y-98175000D03*
X85350000Y-111675000D03*
X80450000Y-125125000D03*
X88525000Y-103850000D03*
X83275000Y-125950000D03*
X64475000Y-112450000D03*
X64500000Y-107575000D03*
X64350000Y-102625000D03*
X104175000Y-77850000D03*
X89650000Y-76075000D03*
X89925000Y-78475000D03*
X90700000Y-75050000D03*
X109975000Y-77850000D03*
X100175000Y-76800000D03*
X102475000Y-78625000D03*
X84550000Y-128150000D03*
X130325000Y-121875000D03*
X136925000Y-123550000D03*
X134075000Y-123825000D03*
X138125000Y-122275000D03*
X134125000Y-118825000D03*
X139975000Y-81550000D03*
X137250000Y-81650000D03*
X134725000Y-81650000D03*
X132225000Y-81650000D03*
X129675000Y-81625000D03*
X125175000Y-81575000D03*
X120500000Y-92500000D03*
X122950000Y-97625000D03*
X121000000Y-97100000D03*
X115500000Y-89800000D03*
X115500000Y-87200000D03*
X138100000Y-120000000D03*
X135700000Y-120000000D03*
X133100000Y-120000000D03*
X130300000Y-120000000D03*
X110925000Y-128075000D03*
X108125000Y-128075000D03*
X97325000Y-128075000D03*
X101325000Y-128075000D03*
X92825000Y-128075000D03*
X88825000Y-128075000D03*
X104825000Y-128075000D03*
X100700000Y-42900000D03*
X105950000Y-42075000D03*
X95450000Y-41950000D03*
X92200000Y-42900000D03*
X108200000Y-42900000D03*
X110500000Y-116400000D03*
X110500000Y-102400000D03*
X110500000Y-112400000D03*
X110500000Y-97400000D03*
X110375000Y-106825000D03*
X89100000Y-123000000D03*
X89400000Y-117300000D03*
X92900000Y-122100000D03*
X93100000Y-125000000D03*
X94100000Y-120100000D03*
X106200000Y-120200000D03*
X102700000Y-120200000D03*
X97700000Y-120200000D03*
X90000000Y-98500000D03*
X90000000Y-89500000D03*
X90000000Y-103000000D03*
X115000000Y-92500000D03*
X90000000Y-94000000D03*
X121000000Y-95000000D03*
X120500000Y-91500000D03*
X83000000Y-67500000D03*
X83000000Y-69500000D03*
X83000000Y-79500000D03*
X83000000Y-82000000D03*
X83000000Y-104000000D03*
X85000000Y-100500000D03*
X106000000Y-39000000D03*
X104000000Y-37500000D03*
X88500000Y-36000000D03*
X93500000Y-39500000D03*
X93500000Y-36000000D03*
X96500000Y-36000000D03*
X100500000Y-39000000D03*
X103000000Y-39000000D03*
X104000000Y-32000000D03*
X100500000Y-32000000D03*
X96500000Y-34000000D03*
X96500000Y-32000000D03*
X92000000Y-34000000D03*
X92000000Y-32000000D03*
X88000000Y-32000000D03*
X85500000Y-32500000D03*
X88000000Y-34000000D03*
X86000000Y-39000000D03*
X85000000Y-45000000D03*
X86000000Y-47500000D03*
X91000000Y-36000000D03*
X84500000Y-36500000D03*
X82000000Y-39000000D03*
X82000000Y-45000000D03*
X82000000Y-47500000D03*
X82000000Y-58000000D03*
X81500000Y-52000000D03*
X79500000Y-54000000D03*
X79000000Y-57000000D03*
X75500000Y-59500000D03*
X80000000Y-61000000D03*
X78000000Y-63500000D03*
X75500000Y-63500000D03*
X75500000Y-69000000D03*
X85000000Y-72000000D03*
X85000000Y-62000000D03*
X85000000Y-57000000D03*
X85000000Y-52000000D03*
X85000000Y-67000000D03*
X79500000Y-103500000D03*
X79500000Y-93500000D03*
X79500000Y-88500000D03*
X79500000Y-83500000D03*
X79500000Y-98500000D03*
X72000000Y-94000000D03*
X72000000Y-84000000D03*
X72000000Y-79000000D03*
X72000000Y-74000000D03*
X72000000Y-89000000D03*
X72000000Y-118500000D03*
X72125000Y-107250000D03*
X72000000Y-103500000D03*
X72000000Y-98500000D03*
X72100000Y-112850000D03*
X131000000Y-74000000D03*
X127000000Y-74000000D03*
X123000000Y-74000000D03*
X118800000Y-74000000D03*
X110000000Y-76000000D03*
X110000000Y-74000000D03*
X107000000Y-74000000D03*
X104500000Y-74000000D03*
X104500000Y-75900000D03*
X97500000Y-79000000D03*
X99500000Y-76000000D03*
X99500000Y-70000000D03*
X94500000Y-73000000D03*
X95500000Y-77000000D03*
X92000000Y-78500000D03*
X97500000Y-70000000D03*
X102500000Y-70000000D03*
X107500000Y-70000000D03*
X112500000Y-70000000D03*
X117500000Y-70000000D03*
X122500000Y-70000000D03*
X127500000Y-70000000D03*
X132500000Y-70000000D03*
X137500000Y-70000000D03*
X127500000Y-77500000D03*
X125000000Y-77500000D03*
X120000000Y-77500000D03*
X119999999Y-82061971D03*
X120000000Y-85000000D03*
X120000000Y-87500000D03*
X106000000Y-95000000D03*
X106000000Y-100000000D03*
X106000000Y-105000000D03*
X106000000Y-110000000D03*
X106000000Y-114000000D03*
X102500000Y-114000000D03*
X97500000Y-114000000D03*
X91500000Y-114500000D03*
X99500000Y-111000000D03*
X95500000Y-112500000D03*
X93750000Y-112500000D03*
X99500000Y-106250000D03*
X95500000Y-106250000D03*
X93000000Y-105500000D03*
X93750000Y-103000000D03*
X99500000Y-89500000D03*
X97500000Y-80500000D03*
X99500000Y-85000000D03*
X99500000Y-98500000D03*
X99500000Y-103000000D03*
X99500000Y-94000000D03*
X95500000Y-89500000D03*
X95500000Y-80500000D03*
X95500000Y-85000000D03*
X95500000Y-98500000D03*
X95500000Y-103000000D03*
X95500000Y-94000000D03*
X93750000Y-98500000D03*
X93750000Y-94000000D03*
X93750000Y-80500000D03*
X93750000Y-89500000D03*
X93750000Y-85000000D03*
X92000000Y-80500000D03*
X90000000Y-85000000D03*
X130890000Y-77930000D03*
X78300000Y-72425000D03*
X106600000Y-35000000D03*
X96700000Y-35000000D03*
X121875000Y-81650000D03*
X69000000Y-55500000D03*
X78600000Y-55500000D03*
X86000000Y-76400000D03*
X75325000Y-48225000D03*
X86000000Y-75400000D03*
X94800000Y-35100000D03*
X115500000Y-85400000D03*
X91800000Y-68700000D03*
X77700000Y-116500000D03*
X77700000Y-106500000D03*
X102800000Y-36800000D03*
X74900000Y-57300000D03*
X93000000Y-68700000D03*
X90600000Y-68700000D03*
X77700000Y-111500000D03*
X101500000Y-37500000D03*
X81000000Y-59500000D03*
X84000000Y-82000000D03*
X105000000Y-37500000D03*
X84000000Y-77000000D03*
X86000000Y-35000000D03*
X92000000Y-110000000D03*
X133000000Y-76000000D03*
X90500000Y-125000000D03*
X138500000Y-72500000D03*
X91000000Y-104500000D03*
X135500000Y-74000000D03*
X91000000Y-107500000D03*
X115000000Y-95000000D03*
G04 #@! TA.AperFunction,Conductor*
G36*
X140584075Y-84392993D02*
G01*
X140649901Y-84507007D01*
X140742993Y-84600099D01*
X140857007Y-84665925D01*
X140920590Y-84682962D01*
X140288282Y-85315269D01*
X140288282Y-85315270D01*
X140342452Y-85354626D01*
X140342451Y-85354626D01*
X140351495Y-85359234D01*
X140402292Y-85407208D01*
X140419087Y-85475029D01*
X140396550Y-85541164D01*
X140351499Y-85580202D01*
X140342182Y-85584949D01*
X140170213Y-85709890D01*
X140019890Y-85860213D01*
X139894949Y-86032182D01*
X139890484Y-86040946D01*
X139842509Y-86091742D01*
X139774688Y-86108536D01*
X139708553Y-86085998D01*
X139669516Y-86040946D01*
X139665050Y-86032182D01*
X139540109Y-85860213D01*
X139389786Y-85709890D01*
X139217820Y-85584951D01*
X139217115Y-85584591D01*
X139209054Y-85580485D01*
X139158259Y-85532512D01*
X139141463Y-85464692D01*
X139163999Y-85398556D01*
X139209054Y-85359515D01*
X139217816Y-85355051D01*
X139304471Y-85292093D01*
X139389786Y-85230109D01*
X139389788Y-85230106D01*
X139389792Y-85230104D01*
X139540104Y-85079792D01*
X139540106Y-85079788D01*
X139540109Y-85079786D01*
X139625890Y-84961717D01*
X139665051Y-84907816D01*
X139669793Y-84898508D01*
X139717763Y-84847711D01*
X139785583Y-84830911D01*
X139851719Y-84853445D01*
X139890763Y-84898500D01*
X139895373Y-84907547D01*
X139934728Y-84961716D01*
X140567037Y-84329408D01*
X140584075Y-84392993D01*
G37*
G04 #@! TD.AperFunction*
G04 #@! TA.AperFunction,Conductor*
G36*
X149442539Y-30520185D02*
G01*
X149488294Y-30572989D01*
X149499500Y-30624500D01*
X149499500Y-129375500D01*
X149479815Y-129442539D01*
X149427011Y-129488294D01*
X149375500Y-129499500D01*
X114513170Y-129499500D01*
X114446131Y-129479815D01*
X114400376Y-129427011D01*
X114393395Y-129407593D01*
X114366391Y-129306812D01*
X114357563Y-129291521D01*
X114300500Y-129192686D01*
X114207314Y-129099500D01*
X114150250Y-129066554D01*
X114093187Y-129033608D01*
X114029539Y-129016554D01*
X113965892Y-128999500D01*
X113965891Y-128999500D01*
X113804500Y-128999500D01*
X113737461Y-128979815D01*
X113691706Y-128927011D01*
X113680500Y-128875500D01*
X113680499Y-127332129D01*
X113680498Y-127332123D01*
X113680497Y-127332116D01*
X113674091Y-127272517D01*
X113623796Y-127137669D01*
X113623795Y-127137668D01*
X113623793Y-127137664D01*
X113537547Y-127022455D01*
X113537544Y-127022452D01*
X113422335Y-126936206D01*
X113422328Y-126936202D01*
X113287482Y-126885908D01*
X113287483Y-126885908D01*
X113227883Y-126879501D01*
X113227881Y-126879500D01*
X113227873Y-126879500D01*
X113227865Y-126879500D01*
X113226597Y-126879500D01*
X113226313Y-126879416D01*
X113224548Y-126879322D01*
X113224570Y-126878904D01*
X113159558Y-126859815D01*
X113113803Y-126807011D01*
X113103859Y-126737853D01*
X113132884Y-126674297D01*
X113153708Y-126655184D01*
X113234190Y-126596711D01*
X113376711Y-126454190D01*
X113495182Y-126291129D01*
X113586686Y-126111542D01*
X113648970Y-125919851D01*
X113667873Y-125800500D01*
X113680500Y-125720783D01*
X113680500Y-125519216D01*
X113655044Y-125358501D01*
X113648970Y-125320149D01*
X113603519Y-125180264D01*
X113586687Y-125128460D01*
X113544752Y-125046158D01*
X113495182Y-124948871D01*
X113376711Y-124785810D01*
X113234190Y-124643289D01*
X113071129Y-124524818D01*
X112944867Y-124460484D01*
X112894072Y-124412510D01*
X112877277Y-124344690D01*
X112899814Y-124278555D01*
X112944868Y-124239515D01*
X112963030Y-124230261D01*
X113071129Y-124175182D01*
X113234190Y-124056711D01*
X113376711Y-123914190D01*
X113495182Y-123751129D01*
X113586686Y-123571542D01*
X113648970Y-123379851D01*
X113658684Y-123318513D01*
X113663236Y-123289778D01*
X127924500Y-123289778D01*
X127924500Y-125710222D01*
X127938799Y-125800499D01*
X127958985Y-125927952D01*
X128027103Y-126137603D01*
X128027104Y-126137606D01*
X128070481Y-126222736D01*
X128124720Y-126329185D01*
X128127187Y-126334025D01*
X128256752Y-126512358D01*
X128256756Y-126512363D01*
X128412636Y-126668243D01*
X128412641Y-126668247D01*
X128566175Y-126779795D01*
X128590978Y-126797815D01*
X128694377Y-126850500D01*
X128787393Y-126897895D01*
X128787396Y-126897896D01*
X128892221Y-126931955D01*
X128997049Y-126966015D01*
X129214778Y-127000500D01*
X129214779Y-127000500D01*
X129435221Y-127000500D01*
X129435222Y-127000500D01*
X129652951Y-126966015D01*
X129862606Y-126897895D01*
X130059022Y-126797815D01*
X130237365Y-126668242D01*
X130353472Y-126552135D01*
X131424500Y-126552135D01*
X131424500Y-128447870D01*
X131424501Y-128447876D01*
X131430908Y-128507483D01*
X131481202Y-128642328D01*
X131481206Y-128642335D01*
X131567452Y-128757544D01*
X131567455Y-128757547D01*
X131682664Y-128843793D01*
X131682671Y-128843797D01*
X131817517Y-128894091D01*
X131817516Y-128894091D01*
X131824444Y-128894835D01*
X131877127Y-128900500D01*
X136372872Y-128900499D01*
X136432483Y-128894091D01*
X136567331Y-128843796D01*
X136682546Y-128757546D01*
X136768796Y-128642331D01*
X136819091Y-128507483D01*
X136825500Y-128447873D01*
X136825499Y-126552128D01*
X136819091Y-126492517D01*
X136807070Y-126460288D01*
X136768797Y-126357671D01*
X136768793Y-126357664D01*
X136682547Y-126242455D01*
X136682544Y-126242452D01*
X136567335Y-126156206D01*
X136567328Y-126156202D01*
X136432482Y-126105908D01*
X136432483Y-126105908D01*
X136372883Y-126099501D01*
X136372881Y-126099500D01*
X136372873Y-126099500D01*
X136372864Y-126099500D01*
X131877129Y-126099500D01*
X131877123Y-126099501D01*
X131817516Y-126105908D01*
X131682671Y-126156202D01*
X131682664Y-126156206D01*
X131567455Y-126242452D01*
X131567452Y-126242455D01*
X131481206Y-126357664D01*
X131481202Y-126357671D01*
X131430908Y-126492517D01*
X131424501Y-126552116D01*
X131424501Y-126552123D01*
X131424500Y-126552135D01*
X130353472Y-126552135D01*
X130393242Y-126512365D01*
X130395259Y-126509587D01*
X130419721Y-126475921D01*
X130505633Y-126357671D01*
X130522815Y-126334022D01*
X130622895Y-126137606D01*
X130691015Y-125927951D01*
X130725500Y-125710222D01*
X130725500Y-124878711D01*
X142649500Y-124878711D01*
X142649500Y-125121288D01*
X142681161Y-125361785D01*
X142743947Y-125596104D01*
X142828611Y-125800500D01*
X142836776Y-125820212D01*
X142958064Y-126030289D01*
X142958066Y-126030292D01*
X142958067Y-126030293D01*
X143105733Y-126222736D01*
X143105739Y-126222743D01*
X143277256Y-126394260D01*
X143277263Y-126394266D01*
X143363305Y-126460288D01*
X143469711Y-126541936D01*
X143679788Y-126663224D01*
X143903900Y-126756054D01*
X144138211Y-126818838D01*
X144313539Y-126841920D01*
X144378711Y-126850500D01*
X144378712Y-126850500D01*
X144621289Y-126850500D01*
X144669388Y-126844167D01*
X144861789Y-126818838D01*
X145096100Y-126756054D01*
X145320212Y-126663224D01*
X145530289Y-126541936D01*
X145722738Y-126394265D01*
X145894265Y-126222738D01*
X146041936Y-126030289D01*
X146163224Y-125820212D01*
X146256054Y-125596100D01*
X146318838Y-125361789D01*
X146350500Y-125121288D01*
X146350500Y-124878712D01*
X146318838Y-124638211D01*
X146256054Y-124403900D01*
X146163224Y-124179788D01*
X146041936Y-123969711D01*
X145894265Y-123777262D01*
X145894260Y-123777256D01*
X145722743Y-123605739D01*
X145722736Y-123605733D01*
X145530293Y-123458067D01*
X145530292Y-123458066D01*
X145530289Y-123458064D01*
X145320212Y-123336776D01*
X145206749Y-123289778D01*
X145096104Y-123243947D01*
X144861785Y-123181161D01*
X144621289Y-123149500D01*
X144621288Y-123149500D01*
X144378712Y-123149500D01*
X144378711Y-123149500D01*
X144138214Y-123181161D01*
X143903895Y-123243947D01*
X143679794Y-123336773D01*
X143679785Y-123336777D01*
X143469706Y-123458067D01*
X143277263Y-123605733D01*
X143277256Y-123605739D01*
X143105739Y-123777256D01*
X143105733Y-123777263D01*
X142958067Y-123969706D01*
X142836777Y-124179785D01*
X142836773Y-124179794D01*
X142743947Y-124403895D01*
X142681161Y-124638214D01*
X142649500Y-124878711D01*
X130725500Y-124878711D01*
X130725500Y-123289778D01*
X130691015Y-123072049D01*
X130656955Y-122967221D01*
X130622896Y-122862396D01*
X130622895Y-122862393D01*
X130574725Y-122767857D01*
X130522815Y-122665978D01*
X130466494Y-122588458D01*
X130393247Y-122487641D01*
X130393243Y-122487636D01*
X130237363Y-122331756D01*
X130237358Y-122331752D01*
X130059025Y-122202187D01*
X130059024Y-122202186D01*
X130059022Y-122202185D01*
X129996096Y-122170122D01*
X129862606Y-122102104D01*
X129862603Y-122102103D01*
X129652959Y-122033987D01*
X129652944Y-122033983D01*
X129468072Y-122004703D01*
X129435222Y-121999500D01*
X129214778Y-121999500D01*
X129142201Y-122010995D01*
X128997047Y-122033985D01*
X128787396Y-122102103D01*
X128787393Y-122102104D01*
X128590974Y-122202187D01*
X128412641Y-122331752D01*
X128412636Y-122331756D01*
X128256756Y-122487636D01*
X128256752Y-122487641D01*
X128127187Y-122665974D01*
X128027104Y-122862393D01*
X128027103Y-122862396D01*
X127958985Y-123072047D01*
X127958985Y-123072049D01*
X127924500Y-123289778D01*
X113663236Y-123289778D01*
X113667081Y-123265507D01*
X113667081Y-123265506D01*
X113680500Y-123180783D01*
X113680500Y-122979216D01*
X113661996Y-122862393D01*
X113648970Y-122780149D01*
X113586686Y-122588458D01*
X113495182Y-122408871D01*
X113376711Y-122245810D01*
X113234190Y-122103289D01*
X113071129Y-121984818D01*
X112944867Y-121920484D01*
X112894072Y-121872510D01*
X112877277Y-121804690D01*
X112899814Y-121738555D01*
X112944868Y-121699515D01*
X113071129Y-121635182D01*
X113234190Y-121516711D01*
X113300901Y-121450000D01*
X131647145Y-121450000D01*
X132709314Y-121450000D01*
X132704920Y-121454394D01*
X132652259Y-121545606D01*
X132625000Y-121647339D01*
X132625000Y-121752661D01*
X132652259Y-121854394D01*
X132704920Y-121945606D01*
X132709314Y-121950000D01*
X131647145Y-121950000D01*
X131659473Y-122027835D01*
X131659473Y-122027838D01*
X131727567Y-122237410D01*
X131827613Y-122433760D01*
X131957142Y-122612041D01*
X132112958Y-122767857D01*
X132291239Y-122897386D01*
X132487589Y-122997432D01*
X132697164Y-123065526D01*
X132914819Y-123100000D01*
X133875000Y-123100000D01*
X133875000Y-122100000D01*
X134375000Y-122100000D01*
X134375000Y-123100000D01*
X135335181Y-123100000D01*
X135552835Y-123065526D01*
X135762410Y-122997432D01*
X135958760Y-122897386D01*
X136137041Y-122767857D01*
X136292857Y-122612041D01*
X136422386Y-122433760D01*
X136522432Y-122237410D01*
X136590526Y-122027838D01*
X136590526Y-122027835D01*
X136602855Y-121950000D01*
X135540686Y-121950000D01*
X135545080Y-121945606D01*
X135597741Y-121854394D01*
X135625000Y-121752661D01*
X135625000Y-121647339D01*
X135597741Y-121545606D01*
X135545080Y-121454394D01*
X135540686Y-121450000D01*
X136602855Y-121450000D01*
X136590526Y-121372164D01*
X136590526Y-121372161D01*
X136522432Y-121162589D01*
X136422386Y-120966239D01*
X136292857Y-120787958D01*
X136137041Y-120632142D01*
X135958760Y-120502613D01*
X135762410Y-120402567D01*
X135552835Y-120334473D01*
X135335181Y-120300000D01*
X134375000Y-120300000D01*
X134375000Y-121300000D01*
X133875000Y-121300000D01*
X133875000Y-120300000D01*
X132914819Y-120300000D01*
X132697164Y-120334473D01*
X132487589Y-120402567D01*
X132291239Y-120502613D01*
X132112958Y-120632142D01*
X131957142Y-120787958D01*
X131827613Y-120966239D01*
X131727567Y-121162589D01*
X131659473Y-121372161D01*
X131659473Y-121372164D01*
X131647145Y-121450000D01*
X113300901Y-121450000D01*
X113376711Y-121374190D01*
X113495182Y-121211129D01*
X113586686Y-121031542D01*
X113648970Y-120839851D01*
X113665214Y-120737289D01*
X113680500Y-120640783D01*
X113680500Y-120439216D01*
X113658449Y-120300000D01*
X113648970Y-120240149D01*
X113586686Y-120048458D01*
X113495182Y-119868871D01*
X113376711Y-119705810D01*
X113234190Y-119563289D01*
X113071129Y-119444818D01*
X112944867Y-119380484D01*
X112894072Y-119332510D01*
X112877277Y-119264690D01*
X112899814Y-119198555D01*
X112944868Y-119159515D01*
X113071129Y-119095182D01*
X113234190Y-118976711D01*
X113376711Y-118834190D01*
X113495182Y-118671129D01*
X113586686Y-118491542D01*
X113648970Y-118299851D01*
X113665214Y-118197289D01*
X113680500Y-118100783D01*
X113680500Y-117899216D01*
X113662156Y-117783408D01*
X113648970Y-117700149D01*
X113586686Y-117508458D01*
X113495182Y-117328871D01*
X113376711Y-117165810D01*
X113234190Y-117023289D01*
X113071129Y-116904818D01*
X112944867Y-116840484D01*
X112894072Y-116792510D01*
X112877277Y-116724690D01*
X112899814Y-116658555D01*
X112944868Y-116619515D01*
X113071129Y-116555182D01*
X113234190Y-116436711D01*
X113376711Y-116294190D01*
X113495182Y-116131129D01*
X113586686Y-115951542D01*
X113648970Y-115759851D01*
X113665214Y-115657289D01*
X113680500Y-115560783D01*
X113680500Y-115359216D01*
X113662156Y-115243408D01*
X113648970Y-115160149D01*
X113586686Y-114968458D01*
X113495182Y-114788871D01*
X113376711Y-114625810D01*
X113234190Y-114483289D01*
X113071129Y-114364818D01*
X112944867Y-114300484D01*
X112894072Y-114252510D01*
X112877277Y-114184690D01*
X112899814Y-114118555D01*
X112944868Y-114079515D01*
X113071129Y-114015182D01*
X113234190Y-113896711D01*
X113376711Y-113754190D01*
X113495182Y-113591129D01*
X113586686Y-113411542D01*
X113648970Y-113219851D01*
X113665214Y-113117289D01*
X113680500Y-113020783D01*
X113680500Y-112819216D01*
X113662156Y-112703408D01*
X113648970Y-112620149D01*
X113591976Y-112444738D01*
X113586687Y-112428460D01*
X113521488Y-112300500D01*
X113495182Y-112248871D01*
X113376711Y-112085810D01*
X113234190Y-111943289D01*
X113071129Y-111824818D01*
X112944867Y-111760484D01*
X112894072Y-111712510D01*
X112877277Y-111644690D01*
X112899814Y-111578555D01*
X112944868Y-111539515D01*
X113071129Y-111475182D01*
X113234190Y-111356711D01*
X113376711Y-111214190D01*
X113495182Y-111051129D01*
X113586686Y-110871542D01*
X113648970Y-110679851D01*
X113665214Y-110577289D01*
X113680500Y-110480783D01*
X113680500Y-110279216D01*
X113662156Y-110163408D01*
X113648970Y-110080149D01*
X113597309Y-109921153D01*
X113586687Y-109888460D01*
X113495181Y-109708870D01*
X113376711Y-109545810D01*
X113234190Y-109403289D01*
X113071129Y-109284818D01*
X112944867Y-109220484D01*
X112894072Y-109172510D01*
X112877277Y-109104690D01*
X112899814Y-109038555D01*
X112944868Y-108999515D01*
X113071129Y-108935182D01*
X113234190Y-108816711D01*
X113376711Y-108674190D01*
X113495182Y-108511129D01*
X113586686Y-108331542D01*
X113648970Y-108139851D01*
X113669491Y-108010288D01*
X113680500Y-107940783D01*
X113680500Y-107739216D01*
X113662156Y-107623408D01*
X113648970Y-107540149D01*
X113586686Y-107348458D01*
X113495182Y-107168871D01*
X113376711Y-107005810D01*
X113234190Y-106863289D01*
X113071129Y-106744818D01*
X112944867Y-106680484D01*
X112894072Y-106632510D01*
X112877277Y-106564690D01*
X112899814Y-106498555D01*
X112944868Y-106459515D01*
X113071129Y-106395182D01*
X113234190Y-106276711D01*
X113376711Y-106134190D01*
X113495182Y-105971129D01*
X113531433Y-105899983D01*
X119699500Y-105899983D01*
X119699500Y-107100001D01*
X119699501Y-107100018D01*
X119710000Y-107202796D01*
X119710001Y-107202799D01*
X119757856Y-107347213D01*
X119765186Y-107369334D01*
X119857288Y-107518656D01*
X119981344Y-107642712D01*
X120130666Y-107734814D01*
X120297203Y-107789999D01*
X120399991Y-107800500D01*
X121600008Y-107800499D01*
X121702797Y-107789999D01*
X121869334Y-107734814D01*
X122018656Y-107642712D01*
X122087524Y-107573843D01*
X122148843Y-107540361D01*
X122218535Y-107545345D01*
X122248082Y-107561206D01*
X122318390Y-107612287D01*
X122404561Y-107656193D01*
X122500776Y-107705218D01*
X122500778Y-107705218D01*
X122500781Y-107705220D01*
X122587784Y-107733489D01*
X122695465Y-107768477D01*
X122796557Y-107784488D01*
X122897648Y-107800500D01*
X122897649Y-107800500D01*
X123102351Y-107800500D01*
X123102352Y-107800500D01*
X123304534Y-107768477D01*
X123499219Y-107705220D01*
X123681610Y-107612287D01*
X123774590Y-107544732D01*
X123847213Y-107491971D01*
X123847215Y-107491968D01*
X123847219Y-107491966D01*
X123991966Y-107347219D01*
X123991968Y-107347215D01*
X123991971Y-107347213D01*
X124048259Y-107269738D01*
X124112287Y-107181610D01*
X124205220Y-106999219D01*
X124268477Y-106804534D01*
X124300500Y-106602352D01*
X124300500Y-106397648D01*
X124281345Y-106276708D01*
X124268477Y-106195465D01*
X124205218Y-106000776D01*
X124180940Y-105953129D01*
X124153861Y-105899983D01*
X126699500Y-105899983D01*
X126699500Y-107100001D01*
X126699501Y-107100018D01*
X126710000Y-107202796D01*
X126710001Y-107202799D01*
X126757856Y-107347213D01*
X126765186Y-107369334D01*
X126857288Y-107518656D01*
X126981344Y-107642712D01*
X127130666Y-107734814D01*
X127297203Y-107789999D01*
X127399991Y-107800500D01*
X128600008Y-107800499D01*
X128702797Y-107789999D01*
X128869334Y-107734814D01*
X129018656Y-107642712D01*
X129087524Y-107573843D01*
X129148843Y-107540361D01*
X129218535Y-107545345D01*
X129248082Y-107561206D01*
X129318390Y-107612287D01*
X129404561Y-107656193D01*
X129500776Y-107705218D01*
X129500778Y-107705218D01*
X129500781Y-107705220D01*
X129587784Y-107733489D01*
X129695465Y-107768477D01*
X129796557Y-107784488D01*
X129897648Y-107800500D01*
X129897649Y-107800500D01*
X130102351Y-107800500D01*
X130102352Y-107800500D01*
X130304534Y-107768477D01*
X130499219Y-107705220D01*
X130681610Y-107612287D01*
X130774590Y-107544732D01*
X130847213Y-107491971D01*
X130847215Y-107491968D01*
X130847219Y-107491966D01*
X130991966Y-107347219D01*
X130991968Y-107347215D01*
X130991971Y-107347213D01*
X131048259Y-107269738D01*
X131112287Y-107181610D01*
X131205220Y-106999219D01*
X131268477Y-106804534D01*
X131300500Y-106602352D01*
X131300500Y-106397648D01*
X131281345Y-106276708D01*
X131268477Y-106195465D01*
X131205218Y-106000776D01*
X131153865Y-105899991D01*
X131112287Y-105818390D01*
X131092098Y-105790602D01*
X130991971Y-105652786D01*
X130847213Y-105508028D01*
X130681613Y-105387715D01*
X130681612Y-105387714D01*
X130681610Y-105387713D01*
X130621896Y-105357287D01*
X130499223Y-105294781D01*
X130304534Y-105231522D01*
X130129995Y-105203878D01*
X130102352Y-105199500D01*
X129897648Y-105199500D01*
X129873329Y-105203351D01*
X129695465Y-105231522D01*
X129500776Y-105294781D01*
X129318391Y-105387712D01*
X129318383Y-105387717D01*
X129248085Y-105438790D01*
X129182279Y-105462269D01*
X129114225Y-105446442D01*
X129087521Y-105426153D01*
X129062146Y-105400778D01*
X129018656Y-105357288D01*
X128943995Y-105311237D01*
X128869336Y-105265187D01*
X128869331Y-105265185D01*
X128867862Y-105264698D01*
X128702797Y-105210001D01*
X128702795Y-105210000D01*
X128600010Y-105199500D01*
X127399998Y-105199500D01*
X127399981Y-105199501D01*
X127297203Y-105210000D01*
X127297200Y-105210001D01*
X127130668Y-105265185D01*
X127130663Y-105265187D01*
X126981342Y-105357289D01*
X126857289Y-105481342D01*
X126765187Y-105630663D01*
X126765186Y-105630666D01*
X126710001Y-105797203D01*
X126710001Y-105797204D01*
X126710000Y-105797204D01*
X126699500Y-105899983D01*
X124153861Y-105899983D01*
X124112284Y-105818385D01*
X123991971Y-105652786D01*
X123847213Y-105508028D01*
X123681613Y-105387715D01*
X123681612Y-105387714D01*
X123681610Y-105387713D01*
X123621896Y-105357287D01*
X123499223Y-105294781D01*
X123304534Y-105231522D01*
X123129995Y-105203878D01*
X123102352Y-105199500D01*
X122897648Y-105199500D01*
X122873329Y-105203351D01*
X122695465Y-105231522D01*
X122500776Y-105294781D01*
X122318391Y-105387712D01*
X122318383Y-105387717D01*
X122248085Y-105438790D01*
X122182279Y-105462269D01*
X122114225Y-105446442D01*
X122087521Y-105426153D01*
X122062146Y-105400778D01*
X122018656Y-105357288D01*
X121943995Y-105311237D01*
X121869336Y-105265187D01*
X121869331Y-105265185D01*
X121867862Y-105264698D01*
X121702797Y-105210001D01*
X121702795Y-105210000D01*
X121600010Y-105199500D01*
X120399998Y-105199500D01*
X120399981Y-105199501D01*
X120297203Y-105210000D01*
X120297200Y-105210001D01*
X120130668Y-105265185D01*
X120130663Y-105265187D01*
X119981342Y-105357289D01*
X119857289Y-105481342D01*
X119765187Y-105630663D01*
X119765186Y-105630666D01*
X119710001Y-105797203D01*
X119710001Y-105797204D01*
X119710000Y-105797204D01*
X119699500Y-105899983D01*
X113531433Y-105899983D01*
X113586686Y-105791542D01*
X113648970Y-105599851D01*
X113674480Y-105438790D01*
X113680500Y-105400783D01*
X113680500Y-105199216D01*
X113650576Y-105010292D01*
X113648970Y-105000149D01*
X113586686Y-104808458D01*
X113495182Y-104628871D01*
X113376711Y-104465810D01*
X113234190Y-104323289D01*
X113071129Y-104204818D01*
X112944867Y-104140484D01*
X112894072Y-104092510D01*
X112877277Y-104024690D01*
X112899814Y-103958555D01*
X112944868Y-103919515D01*
X113071129Y-103855182D01*
X113234190Y-103736711D01*
X113376711Y-103594190D01*
X113495182Y-103431129D01*
X113586686Y-103251542D01*
X113648970Y-103059851D01*
X113667957Y-102939972D01*
X113680500Y-102860783D01*
X113680500Y-102659216D01*
X113662156Y-102543408D01*
X113648970Y-102460149D01*
X113586686Y-102268458D01*
X113495182Y-102088871D01*
X113376711Y-101925810D01*
X113234190Y-101783289D01*
X113071129Y-101664818D01*
X112944867Y-101600484D01*
X112894072Y-101552510D01*
X112877277Y-101484690D01*
X112899814Y-101418555D01*
X112944868Y-101379515D01*
X113071129Y-101315182D01*
X113234190Y-101196711D01*
X113376711Y-101054190D01*
X113495182Y-100891129D01*
X113586686Y-100711542D01*
X113648970Y-100519851D01*
X113665214Y-100417289D01*
X113680500Y-100320783D01*
X113680500Y-100119216D01*
X113662156Y-100003408D01*
X113648970Y-99920149D01*
X113587273Y-99730264D01*
X113586687Y-99728460D01*
X113495181Y-99548870D01*
X113376711Y-99385810D01*
X113234190Y-99243289D01*
X113071129Y-99124818D01*
X112944867Y-99060484D01*
X112894072Y-99012510D01*
X112877277Y-98944690D01*
X112899814Y-98878555D01*
X112944868Y-98839515D01*
X113071129Y-98775182D01*
X113234190Y-98656711D01*
X113376711Y-98514190D01*
X113495182Y-98351129D01*
X113586686Y-98171542D01*
X113648970Y-97979851D01*
X113665214Y-97877289D01*
X113680500Y-97780783D01*
X113680500Y-97579216D01*
X113662156Y-97463408D01*
X113648970Y-97380149D01*
X113586686Y-97188458D01*
X113495182Y-97008871D01*
X113376711Y-96845810D01*
X113234190Y-96703289D01*
X113071129Y-96584818D01*
X112944867Y-96520484D01*
X112894072Y-96472510D01*
X112877277Y-96404690D01*
X112899814Y-96338555D01*
X112944868Y-96299515D01*
X113071129Y-96235182D01*
X113234190Y-96116711D01*
X113376711Y-95974190D01*
X113495182Y-95811129D01*
X113586686Y-95631542D01*
X113648970Y-95439851D01*
X113665214Y-95337289D01*
X113680500Y-95240783D01*
X113680500Y-95039216D01*
X113662156Y-94923408D01*
X113648970Y-94840149D01*
X113605129Y-94705220D01*
X113586687Y-94648460D01*
X113520549Y-94518657D01*
X113495182Y-94468871D01*
X113376711Y-94305810D01*
X113234190Y-94163289D01*
X113071129Y-94044818D01*
X112944867Y-93980484D01*
X112894072Y-93932510D01*
X112877277Y-93864690D01*
X112899814Y-93798555D01*
X112944868Y-93759515D01*
X113071129Y-93695182D01*
X113234190Y-93576711D01*
X113376711Y-93434190D01*
X113495182Y-93271129D01*
X113586686Y-93091542D01*
X113648927Y-92899983D01*
X127199500Y-92899983D01*
X127199500Y-94100001D01*
X127199501Y-94100018D01*
X127210000Y-94202796D01*
X127210001Y-94202799D01*
X127244136Y-94305810D01*
X127265186Y-94369334D01*
X127357288Y-94518656D01*
X127481344Y-94642712D01*
X127630666Y-94734814D01*
X127797203Y-94789999D01*
X127899991Y-94800500D01*
X129100008Y-94800499D01*
X129202797Y-94789999D01*
X129369334Y-94734814D01*
X129518656Y-94642712D01*
X129587524Y-94573843D01*
X129648843Y-94540361D01*
X129718535Y-94545345D01*
X129748082Y-94561206D01*
X129818390Y-94612287D01*
X129904561Y-94656193D01*
X130000776Y-94705218D01*
X130000778Y-94705218D01*
X130000781Y-94705220D01*
X130091856Y-94734812D01*
X130195465Y-94768477D01*
X130296557Y-94784488D01*
X130397648Y-94800500D01*
X130397649Y-94800500D01*
X130602351Y-94800500D01*
X130602352Y-94800500D01*
X130804534Y-94768477D01*
X130999219Y-94705220D01*
X131181610Y-94612287D01*
X131274590Y-94544732D01*
X131347213Y-94491971D01*
X131347215Y-94491968D01*
X131347219Y-94491966D01*
X131491966Y-94347219D01*
X131491968Y-94347215D01*
X131491971Y-94347213D01*
X131596892Y-94202799D01*
X131612287Y-94181610D01*
X131705220Y-93999219D01*
X131768477Y-93804534D01*
X131800500Y-93602352D01*
X131800500Y-93397648D01*
X131768477Y-93195466D01*
X131705220Y-93000781D01*
X131705218Y-93000778D01*
X131705218Y-93000776D01*
X131653865Y-92899991D01*
X131612287Y-92818390D01*
X131596894Y-92797203D01*
X131491971Y-92652786D01*
X131347213Y-92508028D01*
X131181613Y-92387715D01*
X131181612Y-92387714D01*
X131181610Y-92387713D01*
X131121896Y-92357287D01*
X130999223Y-92294781D01*
X130804534Y-92231522D01*
X130629995Y-92203878D01*
X130602352Y-92199500D01*
X130397648Y-92199500D01*
X130373329Y-92203351D01*
X130195465Y-92231522D01*
X130000776Y-92294781D01*
X129818391Y-92387712D01*
X129818383Y-92387717D01*
X129748085Y-92438790D01*
X129682279Y-92462269D01*
X129614225Y-92446442D01*
X129587521Y-92426153D01*
X129518656Y-92357288D01*
X129426015Y-92300147D01*
X129369336Y-92265187D01*
X129369331Y-92265185D01*
X129367862Y-92264698D01*
X129202797Y-92210001D01*
X129202795Y-92210000D01*
X129100010Y-92199500D01*
X127899998Y-92199500D01*
X127899981Y-92199501D01*
X127797203Y-92210000D01*
X127797200Y-92210001D01*
X127630668Y-92265185D01*
X127630663Y-92265187D01*
X127481342Y-92357289D01*
X127357289Y-92481342D01*
X127265187Y-92630663D01*
X127265186Y-92630666D01*
X127210001Y-92797203D01*
X127210001Y-92797204D01*
X127210000Y-92797204D01*
X127199500Y-92899983D01*
X113648927Y-92899983D01*
X113648970Y-92899851D01*
X113665228Y-92797203D01*
X113680500Y-92700782D01*
X113680500Y-92499216D01*
X113658020Y-92357287D01*
X113648970Y-92300149D01*
X113586686Y-92108458D01*
X113495182Y-91928871D01*
X113376711Y-91765810D01*
X113234190Y-91623289D01*
X113071129Y-91504818D01*
X112944867Y-91440484D01*
X112894072Y-91392510D01*
X112877277Y-91324690D01*
X112899814Y-91258555D01*
X112944868Y-91219515D01*
X113071129Y-91155182D01*
X113234190Y-91036711D01*
X113376711Y-90894190D01*
X113495182Y-90731129D01*
X113586686Y-90551542D01*
X113648970Y-90359851D01*
X113665214Y-90257289D01*
X113680500Y-90160783D01*
X113680500Y-89959216D01*
X113662156Y-89843408D01*
X113648970Y-89760149D01*
X113586686Y-89568458D01*
X113495182Y-89388871D01*
X113376711Y-89225810D01*
X113234190Y-89083289D01*
X113071129Y-88964818D01*
X112944867Y-88900484D01*
X112894072Y-88852510D01*
X112877277Y-88784690D01*
X112899814Y-88718555D01*
X112944868Y-88679515D01*
X113071129Y-88615182D01*
X113234190Y-88496711D01*
X113376711Y-88354190D01*
X113495182Y-88191129D01*
X113586686Y-88011542D01*
X113648970Y-87819851D01*
X113665214Y-87717289D01*
X113680500Y-87620783D01*
X113680500Y-87419216D01*
X113662156Y-87303408D01*
X113648970Y-87220149D01*
X113586686Y-87028458D01*
X113495182Y-86848871D01*
X113388274Y-86701725D01*
X113388274Y-86701724D01*
X113376715Y-86685816D01*
X113376711Y-86685810D01*
X113324614Y-86633713D01*
X121919500Y-86633713D01*
X121919500Y-86846286D01*
X121952753Y-87056239D01*
X122018444Y-87258414D01*
X122114951Y-87447820D01*
X122239890Y-87619786D01*
X122390213Y-87770109D01*
X122562179Y-87895048D01*
X122562181Y-87895049D01*
X122562184Y-87895051D01*
X122751588Y-87991557D01*
X122953757Y-88057246D01*
X123163713Y-88090500D01*
X123163714Y-88090500D01*
X123376286Y-88090500D01*
X123376287Y-88090500D01*
X123586243Y-88057246D01*
X123788412Y-87991557D01*
X123977816Y-87895051D01*
X123999789Y-87879086D01*
X124149786Y-87770109D01*
X124149788Y-87770106D01*
X124149792Y-87770104D01*
X124300104Y-87619792D01*
X124300106Y-87619788D01*
X124300109Y-87619786D01*
X124425048Y-87447820D01*
X124425047Y-87447820D01*
X124425051Y-87447816D01*
X124429514Y-87439054D01*
X124477488Y-87388259D01*
X124545308Y-87371463D01*
X124611444Y-87393999D01*
X124650486Y-87439056D01*
X124654951Y-87447820D01*
X124779890Y-87619786D01*
X124930213Y-87770109D01*
X125102179Y-87895048D01*
X125102181Y-87895049D01*
X125102184Y-87895051D01*
X125291588Y-87991557D01*
X125493757Y-88057246D01*
X125703713Y-88090500D01*
X125703714Y-88090500D01*
X125916286Y-88090500D01*
X125916287Y-88090500D01*
X126126243Y-88057246D01*
X126328412Y-87991557D01*
X126517816Y-87895051D01*
X126539789Y-87879086D01*
X126689786Y-87770109D01*
X126689788Y-87770106D01*
X126689792Y-87770104D01*
X126840104Y-87619792D01*
X126840106Y-87619788D01*
X126840109Y-87619786D01*
X126965048Y-87447820D01*
X126965047Y-87447820D01*
X126965051Y-87447816D01*
X126969514Y-87439054D01*
X127017488Y-87388259D01*
X127085308Y-87371463D01*
X127151444Y-87393999D01*
X127190486Y-87439056D01*
X127194951Y-87447820D01*
X127319890Y-87619786D01*
X127470213Y-87770109D01*
X127642179Y-87895048D01*
X127642181Y-87895049D01*
X127642184Y-87895051D01*
X127831588Y-87991557D01*
X128033757Y-88057246D01*
X128243713Y-88090500D01*
X128243714Y-88090500D01*
X128456286Y-88090500D01*
X128456287Y-88090500D01*
X128666243Y-88057246D01*
X128868412Y-87991557D01*
X129057816Y-87895051D01*
X129079789Y-87879086D01*
X129229786Y-87770109D01*
X129229788Y-87770106D01*
X129229792Y-87770104D01*
X129380104Y-87619792D01*
X129380106Y-87619788D01*
X129380109Y-87619786D01*
X129505048Y-87447820D01*
X129505047Y-87447820D01*
X129505051Y-87447816D01*
X129509514Y-87439054D01*
X129557488Y-87388259D01*
X129625308Y-87371463D01*
X129691444Y-87393999D01*
X129730486Y-87439056D01*
X129734951Y-87447820D01*
X129859890Y-87619786D01*
X130010213Y-87770109D01*
X130182179Y-87895048D01*
X130182181Y-87895049D01*
X130182184Y-87895051D01*
X130371588Y-87991557D01*
X130573757Y-88057246D01*
X130783713Y-88090500D01*
X130783714Y-88090500D01*
X130996286Y-88090500D01*
X130996287Y-88090500D01*
X131206243Y-88057246D01*
X131408412Y-87991557D01*
X131597816Y-87895051D01*
X131619789Y-87879086D01*
X131769786Y-87770109D01*
X131769788Y-87770106D01*
X131769792Y-87770104D01*
X131920104Y-87619792D01*
X131920106Y-87619788D01*
X131920109Y-87619786D01*
X132045048Y-87447820D01*
X132045047Y-87447820D01*
X132045051Y-87447816D01*
X132049514Y-87439054D01*
X132097488Y-87388259D01*
X132165308Y-87371463D01*
X132231444Y-87393999D01*
X132270486Y-87439056D01*
X132274951Y-87447820D01*
X132399890Y-87619786D01*
X132550213Y-87770109D01*
X132722179Y-87895048D01*
X132722181Y-87895049D01*
X132722184Y-87895051D01*
X132911588Y-87991557D01*
X133113757Y-88057246D01*
X133323713Y-88090500D01*
X133323714Y-88090500D01*
X133536286Y-88090500D01*
X133536287Y-88090500D01*
X133746243Y-88057246D01*
X133948412Y-87991557D01*
X134137816Y-87895051D01*
X134159789Y-87879086D01*
X134309786Y-87770109D01*
X134309788Y-87770106D01*
X134309792Y-87770104D01*
X134460104Y-87619792D01*
X134460106Y-87619788D01*
X134460109Y-87619786D01*
X134585048Y-87447820D01*
X134585047Y-87447820D01*
X134585051Y-87447816D01*
X134589514Y-87439054D01*
X134637488Y-87388259D01*
X134705308Y-87371463D01*
X134771444Y-87393999D01*
X134810486Y-87439056D01*
X134814951Y-87447820D01*
X134939890Y-87619786D01*
X135090213Y-87770109D01*
X135262179Y-87895048D01*
X135262181Y-87895049D01*
X135262184Y-87895051D01*
X135451588Y-87991557D01*
X135653757Y-88057246D01*
X135863713Y-88090500D01*
X135863714Y-88090500D01*
X136076286Y-88090500D01*
X136076287Y-88090500D01*
X136286243Y-88057246D01*
X136488412Y-87991557D01*
X136677816Y-87895051D01*
X136699789Y-87879086D01*
X136849786Y-87770109D01*
X136849788Y-87770106D01*
X136849792Y-87770104D01*
X137000104Y-87619792D01*
X137000106Y-87619788D01*
X137000109Y-87619786D01*
X137125048Y-87447820D01*
X137125047Y-87447820D01*
X137125051Y-87447816D01*
X137129514Y-87439054D01*
X137177488Y-87388259D01*
X137245308Y-87371463D01*
X137311444Y-87393999D01*
X137350486Y-87439056D01*
X137354951Y-87447820D01*
X137479890Y-87619786D01*
X137630213Y-87770109D01*
X137802179Y-87895048D01*
X137802181Y-87895049D01*
X137802184Y-87895051D01*
X137991588Y-87991557D01*
X138193757Y-88057246D01*
X138403713Y-88090500D01*
X138403714Y-88090500D01*
X138616286Y-88090500D01*
X138616287Y-88090500D01*
X138826243Y-88057246D01*
X139028412Y-87991557D01*
X139217816Y-87895051D01*
X139239789Y-87879086D01*
X139389786Y-87770109D01*
X139389788Y-87770106D01*
X139389792Y-87770104D01*
X139540104Y-87619792D01*
X139540106Y-87619788D01*
X139540109Y-87619786D01*
X139665048Y-87447820D01*
X139665047Y-87447820D01*
X139665051Y-87447816D01*
X139669514Y-87439054D01*
X139717488Y-87388259D01*
X139785308Y-87371463D01*
X139851444Y-87393999D01*
X139890486Y-87439056D01*
X139894951Y-87447820D01*
X140019890Y-87619786D01*
X140170213Y-87770109D01*
X140342179Y-87895048D01*
X140342181Y-87895049D01*
X140342184Y-87895051D01*
X140531588Y-87991557D01*
X140733757Y-88057246D01*
X140943713Y-88090500D01*
X140943714Y-88090500D01*
X141156286Y-88090500D01*
X141156287Y-88090500D01*
X141366243Y-88057246D01*
X141568412Y-87991557D01*
X141757816Y-87895051D01*
X141779789Y-87879086D01*
X141929786Y-87770109D01*
X141929788Y-87770106D01*
X141929792Y-87770104D01*
X142080104Y-87619792D01*
X142080106Y-87619788D01*
X142080109Y-87619786D01*
X142205048Y-87447820D01*
X142205047Y-87447820D01*
X142205051Y-87447816D01*
X142301557Y-87258412D01*
X142367246Y-87056243D01*
X142400500Y-86846287D01*
X142400500Y-86633713D01*
X142367246Y-86423757D01*
X142301557Y-86221588D01*
X142205051Y-86032184D01*
X142205049Y-86032181D01*
X142205048Y-86032179D01*
X142080109Y-85860213D01*
X141929786Y-85709890D01*
X141757817Y-85584949D01*
X141748504Y-85580204D01*
X141697707Y-85532230D01*
X141680912Y-85464409D01*
X141703449Y-85398274D01*
X141748507Y-85359232D01*
X141757555Y-85354622D01*
X141811716Y-85315270D01*
X141811717Y-85315270D01*
X141179408Y-84682962D01*
X141242993Y-84665925D01*
X141357007Y-84600099D01*
X141450099Y-84507007D01*
X141515925Y-84392993D01*
X141532962Y-84329408D01*
X142165270Y-84961717D01*
X142165270Y-84961716D01*
X142204622Y-84907554D01*
X142301095Y-84718217D01*
X142366757Y-84516130D01*
X142366757Y-84516127D01*
X142400000Y-84306246D01*
X142400000Y-84093753D01*
X142366757Y-83883872D01*
X142366757Y-83883869D01*
X142301095Y-83681782D01*
X142204624Y-83492449D01*
X142165270Y-83438282D01*
X142165269Y-83438282D01*
X141532962Y-84070590D01*
X141515925Y-84007007D01*
X141450099Y-83892993D01*
X141357007Y-83799901D01*
X141242993Y-83734075D01*
X141179409Y-83717037D01*
X141811716Y-83084728D01*
X141757550Y-83045375D01*
X141568217Y-82948904D01*
X141366129Y-82883242D01*
X141156246Y-82850000D01*
X140943754Y-82850000D01*
X140733872Y-82883242D01*
X140733869Y-82883242D01*
X140531782Y-82948904D01*
X140342439Y-83045380D01*
X140288282Y-83084727D01*
X140288282Y-83084728D01*
X140920591Y-83717037D01*
X140857007Y-83734075D01*
X140742993Y-83799901D01*
X140649901Y-83892993D01*
X140584075Y-84007007D01*
X140567037Y-84070591D01*
X139934728Y-83438282D01*
X139934727Y-83438282D01*
X139895380Y-83492440D01*
X139895376Y-83492446D01*
X139890760Y-83501505D01*
X139842781Y-83552297D01*
X139774959Y-83569087D01*
X139708826Y-83546543D01*
X139669794Y-83501493D01*
X139665051Y-83492184D01*
X139665049Y-83492181D01*
X139665048Y-83492179D01*
X139540109Y-83320213D01*
X139389786Y-83169890D01*
X139217820Y-83044951D01*
X139028414Y-82948444D01*
X139028413Y-82948443D01*
X139028412Y-82948443D01*
X138826243Y-82882754D01*
X138826241Y-82882753D01*
X138826240Y-82882753D01*
X138664957Y-82857208D01*
X138616287Y-82849500D01*
X138403713Y-82849500D01*
X138355042Y-82857208D01*
X138193760Y-82882753D01*
X137991585Y-82948444D01*
X137802179Y-83044951D01*
X137630213Y-83169890D01*
X137479890Y-83320213D01*
X137354949Y-83492182D01*
X137350484Y-83500946D01*
X137302509Y-83551742D01*
X137234688Y-83568536D01*
X137168553Y-83545998D01*
X137129516Y-83500946D01*
X137125050Y-83492182D01*
X137000109Y-83320213D01*
X136849786Y-83169890D01*
X136677820Y-83044951D01*
X136488414Y-82948444D01*
X136488413Y-82948443D01*
X136488412Y-82948443D01*
X136286243Y-82882754D01*
X136286241Y-82882753D01*
X136286240Y-82882753D01*
X136124957Y-82857208D01*
X136076287Y-82849500D01*
X135863713Y-82849500D01*
X135815042Y-82857208D01*
X135653760Y-82882753D01*
X135451585Y-82948444D01*
X135262179Y-83044951D01*
X135090213Y-83169890D01*
X134939890Y-83320213D01*
X134814949Y-83492182D01*
X134810484Y-83500946D01*
X134762509Y-83551742D01*
X134694688Y-83568536D01*
X134628553Y-83545998D01*
X134589516Y-83500946D01*
X134585050Y-83492182D01*
X134460109Y-83320213D01*
X134309786Y-83169890D01*
X134137820Y-83044951D01*
X133948414Y-82948444D01*
X133948413Y-82948443D01*
X133948412Y-82948443D01*
X133746243Y-82882754D01*
X133746241Y-82882753D01*
X133746240Y-82882753D01*
X133584957Y-82857208D01*
X133536287Y-82849500D01*
X133323713Y-82849500D01*
X133275042Y-82857208D01*
X133113760Y-82882753D01*
X132911585Y-82948444D01*
X132722179Y-83044951D01*
X132550213Y-83169890D01*
X132399890Y-83320213D01*
X132274949Y-83492182D01*
X132270484Y-83500946D01*
X132222509Y-83551742D01*
X132154688Y-83568536D01*
X132088553Y-83545998D01*
X132049516Y-83500946D01*
X132045050Y-83492182D01*
X131920109Y-83320213D01*
X131769786Y-83169890D01*
X131597820Y-83044951D01*
X131408414Y-82948444D01*
X131408413Y-82948443D01*
X131408412Y-82948443D01*
X131206243Y-82882754D01*
X131206241Y-82882753D01*
X131206240Y-82882753D01*
X131044957Y-82857208D01*
X130996287Y-82849500D01*
X130783713Y-82849500D01*
X130735042Y-82857208D01*
X130573760Y-82882753D01*
X130371585Y-82948444D01*
X130182179Y-83044951D01*
X130010213Y-83169890D01*
X129859890Y-83320213D01*
X129734949Y-83492182D01*
X129730484Y-83500946D01*
X129682509Y-83551742D01*
X129614688Y-83568536D01*
X129548553Y-83545998D01*
X129509516Y-83500946D01*
X129505050Y-83492182D01*
X129380109Y-83320213D01*
X129229786Y-83169890D01*
X129057820Y-83044951D01*
X128868414Y-82948444D01*
X128868413Y-82948443D01*
X128868412Y-82948443D01*
X128666243Y-82882754D01*
X128666241Y-82882753D01*
X128666240Y-82882753D01*
X128504957Y-82857208D01*
X128456287Y-82849500D01*
X128243713Y-82849500D01*
X128195042Y-82857208D01*
X128033760Y-82882753D01*
X127831585Y-82948444D01*
X127642179Y-83044951D01*
X127470213Y-83169890D01*
X127319890Y-83320213D01*
X127194949Y-83492182D01*
X127190484Y-83500946D01*
X127142509Y-83551742D01*
X127074688Y-83568536D01*
X127008553Y-83545998D01*
X126969516Y-83500946D01*
X126965050Y-83492182D01*
X126840109Y-83320213D01*
X126689786Y-83169890D01*
X126517820Y-83044951D01*
X126328414Y-82948444D01*
X126328413Y-82948443D01*
X126328412Y-82948443D01*
X126126243Y-82882754D01*
X126126241Y-82882753D01*
X126126240Y-82882753D01*
X125964957Y-82857208D01*
X125916287Y-82849500D01*
X125703713Y-82849500D01*
X125655042Y-82857208D01*
X125493760Y-82882753D01*
X125291585Y-82948444D01*
X125102179Y-83044951D01*
X124930215Y-83169889D01*
X124816285Y-83283819D01*
X124754962Y-83317303D01*
X124685270Y-83312319D01*
X124629337Y-83270447D01*
X124612422Y-83239470D01*
X124563354Y-83107913D01*
X124563350Y-83107906D01*
X124477190Y-82992812D01*
X124477187Y-82992809D01*
X124362093Y-82906649D01*
X124362086Y-82906645D01*
X124227379Y-82856403D01*
X124227372Y-82856401D01*
X124167844Y-82850000D01*
X123520000Y-82850000D01*
X123520000Y-83766988D01*
X123462993Y-83734075D01*
X123335826Y-83700000D01*
X123204174Y-83700000D01*
X123077007Y-83734075D01*
X123020000Y-83766988D01*
X123020000Y-82850000D01*
X122372155Y-82850000D01*
X122312627Y-82856401D01*
X122312620Y-82856403D01*
X122177913Y-82906645D01*
X122177906Y-82906649D01*
X122062812Y-82992809D01*
X122062809Y-82992812D01*
X121976649Y-83107906D01*
X121976645Y-83107913D01*
X121926403Y-83242620D01*
X121926401Y-83242627D01*
X121920000Y-83302155D01*
X121920000Y-83950000D01*
X122836988Y-83950000D01*
X122804075Y-84007007D01*
X122770000Y-84134174D01*
X122770000Y-84265826D01*
X122804075Y-84392993D01*
X122836988Y-84450000D01*
X121920000Y-84450000D01*
X121920000Y-85097844D01*
X121926401Y-85157372D01*
X121926403Y-85157379D01*
X121976645Y-85292086D01*
X121976649Y-85292093D01*
X122062809Y-85407187D01*
X122062812Y-85407190D01*
X122177906Y-85493350D01*
X122177913Y-85493354D01*
X122309470Y-85542422D01*
X122365404Y-85584293D01*
X122389821Y-85649758D01*
X122374969Y-85718031D01*
X122353819Y-85746285D01*
X122239889Y-85860215D01*
X122114951Y-86032179D01*
X122018444Y-86221585D01*
X121952753Y-86423760D01*
X121919500Y-86633713D01*
X113324614Y-86633713D01*
X113234190Y-86543289D01*
X113071129Y-86424818D01*
X112944867Y-86360484D01*
X112894072Y-86312510D01*
X112877277Y-86244690D01*
X112899814Y-86178555D01*
X112944868Y-86139515D01*
X113071129Y-86075182D01*
X113234190Y-85956711D01*
X113376711Y-85814190D01*
X113495182Y-85651129D01*
X113586686Y-85471542D01*
X113648970Y-85279851D01*
X113676728Y-85104595D01*
X113680500Y-85080783D01*
X113680500Y-84879216D01*
X113652114Y-84700000D01*
X113648970Y-84680149D01*
X113586686Y-84488458D01*
X113495182Y-84308871D01*
X113376711Y-84145810D01*
X113234190Y-84003289D01*
X113071129Y-83884818D01*
X112944867Y-83820484D01*
X112894072Y-83772510D01*
X112877277Y-83704690D01*
X112899814Y-83638555D01*
X112944868Y-83599515D01*
X113071129Y-83535182D01*
X113234190Y-83416711D01*
X113376711Y-83274190D01*
X113495182Y-83111129D01*
X113586686Y-82931542D01*
X113648970Y-82739851D01*
X113667670Y-82621786D01*
X113680500Y-82540783D01*
X113680500Y-82339216D01*
X113662156Y-82223408D01*
X113648970Y-82140149D01*
X113586686Y-81948458D01*
X113495182Y-81768871D01*
X113376711Y-81605810D01*
X113234190Y-81463289D01*
X113071129Y-81344818D01*
X112964724Y-81290602D01*
X112891539Y-81253312D01*
X112699852Y-81191030D01*
X112500783Y-81159500D01*
X112500778Y-81159500D01*
X112299222Y-81159500D01*
X112299217Y-81159500D01*
X112100147Y-81191030D01*
X111908460Y-81253312D01*
X111728870Y-81344818D01*
X111635838Y-81412410D01*
X111565810Y-81463289D01*
X111565808Y-81463291D01*
X111565807Y-81463291D01*
X111423291Y-81605807D01*
X111423291Y-81605808D01*
X111423289Y-81605810D01*
X111372410Y-81675838D01*
X111304818Y-81768870D01*
X111213312Y-81948460D01*
X111151030Y-82140147D01*
X111119500Y-82339216D01*
X111119500Y-82540783D01*
X111151030Y-82739852D01*
X111213312Y-82931539D01*
X111291366Y-83084728D01*
X111304818Y-83111129D01*
X111423289Y-83274190D01*
X111565810Y-83416711D01*
X111728871Y-83535182D01*
X111794332Y-83568536D01*
X111855131Y-83599515D01*
X111905927Y-83647490D01*
X111922722Y-83715311D01*
X111900184Y-83781446D01*
X111855131Y-83820485D01*
X111728870Y-83884818D01*
X111639156Y-83950000D01*
X111565810Y-84003289D01*
X111565808Y-84003291D01*
X111565807Y-84003291D01*
X111423291Y-84145807D01*
X111423291Y-84145808D01*
X111423289Y-84145810D01*
X111392059Y-84188794D01*
X111304818Y-84308870D01*
X111213312Y-84488460D01*
X111151030Y-84680147D01*
X111119500Y-84879216D01*
X111119500Y-85080783D01*
X111151030Y-85279852D01*
X111213312Y-85471539D01*
X111271099Y-85584951D01*
X111304818Y-85651129D01*
X111423289Y-85814190D01*
X111565810Y-85956711D01*
X111728871Y-86075182D01*
X111750099Y-86085998D01*
X111855131Y-86139515D01*
X111905927Y-86187490D01*
X111922722Y-86255311D01*
X111900184Y-86321446D01*
X111855131Y-86360485D01*
X111728870Y-86424818D01*
X111635838Y-86492410D01*
X111565810Y-86543289D01*
X111565808Y-86543291D01*
X111565807Y-86543291D01*
X111423291Y-86685807D01*
X111423291Y-86685808D01*
X111423289Y-86685810D01*
X111423285Y-86685816D01*
X111304818Y-86848870D01*
X111213312Y-87028460D01*
X111151030Y-87220147D01*
X111119500Y-87419216D01*
X111119500Y-87620783D01*
X111151030Y-87819852D01*
X111213312Y-88011539D01*
X111213314Y-88011542D01*
X111304818Y-88191129D01*
X111423289Y-88354190D01*
X111565810Y-88496711D01*
X111728871Y-88615182D01*
X111796885Y-88649836D01*
X111855131Y-88679515D01*
X111905927Y-88727490D01*
X111922722Y-88795311D01*
X111900184Y-88861446D01*
X111855131Y-88900485D01*
X111728870Y-88964818D01*
X111635838Y-89032410D01*
X111565810Y-89083289D01*
X111565808Y-89083291D01*
X111565807Y-89083291D01*
X111423291Y-89225807D01*
X111423291Y-89225808D01*
X111423289Y-89225810D01*
X111372410Y-89295838D01*
X111304818Y-89388870D01*
X111213312Y-89568460D01*
X111151030Y-89760147D01*
X111119500Y-89959216D01*
X111119500Y-90160783D01*
X111151030Y-90359852D01*
X111213312Y-90551539D01*
X111213314Y-90551542D01*
X111304818Y-90731129D01*
X111423289Y-90894190D01*
X111565810Y-91036711D01*
X111728871Y-91155182D01*
X111796885Y-91189836D01*
X111855131Y-91219515D01*
X111905927Y-91267490D01*
X111922722Y-91335311D01*
X111900184Y-91401446D01*
X111855131Y-91440485D01*
X111728870Y-91504818D01*
X111635838Y-91572410D01*
X111565810Y-91623289D01*
X111565808Y-91623291D01*
X111565807Y-91623291D01*
X111423291Y-91765807D01*
X111423291Y-91765808D01*
X111423289Y-91765810D01*
X111372410Y-91835838D01*
X111304818Y-91928870D01*
X111213312Y-92108460D01*
X111151030Y-92300147D01*
X111119500Y-92499216D01*
X111119500Y-92700783D01*
X111151030Y-92899852D01*
X111213312Y-93091539D01*
X111213314Y-93091542D01*
X111304818Y-93271129D01*
X111423289Y-93434190D01*
X111565810Y-93576711D01*
X111728871Y-93695182D01*
X111796885Y-93729836D01*
X111855131Y-93759515D01*
X111905927Y-93807490D01*
X111922722Y-93875311D01*
X111900184Y-93941446D01*
X111855131Y-93980485D01*
X111728870Y-94044818D01*
X111652895Y-94100018D01*
X111565810Y-94163289D01*
X111565808Y-94163291D01*
X111565807Y-94163291D01*
X111423291Y-94305807D01*
X111423291Y-94305808D01*
X111423289Y-94305810D01*
X111393208Y-94347213D01*
X111304818Y-94468870D01*
X111213312Y-94648460D01*
X111151030Y-94840147D01*
X111119500Y-95039216D01*
X111119500Y-95240783D01*
X111151030Y-95439852D01*
X111213312Y-95631539D01*
X111213314Y-95631542D01*
X111304818Y-95811129D01*
X111423289Y-95974190D01*
X111565810Y-96116711D01*
X111728871Y-96235182D01*
X111796885Y-96269836D01*
X111855131Y-96299515D01*
X111905927Y-96347490D01*
X111922722Y-96415311D01*
X111900184Y-96481446D01*
X111855131Y-96520485D01*
X111728870Y-96584818D01*
X111635838Y-96652410D01*
X111565810Y-96703289D01*
X111565808Y-96703291D01*
X111565807Y-96703291D01*
X111423291Y-96845807D01*
X111423291Y-96845808D01*
X111423289Y-96845810D01*
X111372410Y-96915838D01*
X111304818Y-97008870D01*
X111213312Y-97188460D01*
X111151030Y-97380147D01*
X111119500Y-97579216D01*
X111119500Y-97780783D01*
X111151030Y-97979852D01*
X111213312Y-98171539D01*
X111213314Y-98171542D01*
X111304818Y-98351129D01*
X111423289Y-98514190D01*
X111565810Y-98656711D01*
X111728871Y-98775182D01*
X111796885Y-98809836D01*
X111855131Y-98839515D01*
X111905927Y-98887490D01*
X111922722Y-98955311D01*
X111900184Y-99021446D01*
X111855131Y-99060485D01*
X111728870Y-99124818D01*
X111635838Y-99192410D01*
X111565810Y-99243289D01*
X111565808Y-99243291D01*
X111565807Y-99243291D01*
X111423291Y-99385807D01*
X111423291Y-99385808D01*
X111423289Y-99385810D01*
X111372410Y-99455838D01*
X111304818Y-99548870D01*
X111213312Y-99728460D01*
X111151030Y-99920147D01*
X111119500Y-100119216D01*
X111119500Y-100320783D01*
X111151030Y-100519852D01*
X111213312Y-100711539D01*
X111278617Y-100839706D01*
X111304818Y-100891129D01*
X111423289Y-101054190D01*
X111565810Y-101196711D01*
X111728871Y-101315182D01*
X111796885Y-101349836D01*
X111855131Y-101379515D01*
X111905927Y-101427490D01*
X111922722Y-101495311D01*
X111900184Y-101561446D01*
X111855131Y-101600485D01*
X111728870Y-101664818D01*
X111635838Y-101732410D01*
X111565810Y-101783289D01*
X111565808Y-101783291D01*
X111565807Y-101783291D01*
X111423291Y-101925807D01*
X111423291Y-101925808D01*
X111423289Y-101925810D01*
X111372410Y-101995838D01*
X111304818Y-102088870D01*
X111213312Y-102268460D01*
X111151030Y-102460147D01*
X111119500Y-102659216D01*
X111119500Y-102860783D01*
X111151030Y-103059852D01*
X111213312Y-103251539D01*
X111258236Y-103339707D01*
X111304818Y-103431129D01*
X111423289Y-103594190D01*
X111565810Y-103736711D01*
X111728871Y-103855182D01*
X111774066Y-103878210D01*
X111855131Y-103919515D01*
X111905927Y-103967490D01*
X111922722Y-104035311D01*
X111900184Y-104101446D01*
X111855131Y-104140485D01*
X111728870Y-104204818D01*
X111689392Y-104233501D01*
X111565810Y-104323289D01*
X111565808Y-104323291D01*
X111565807Y-104323291D01*
X111423291Y-104465807D01*
X111423291Y-104465808D01*
X111423289Y-104465810D01*
X111418945Y-104471789D01*
X111304818Y-104628870D01*
X111213312Y-104808460D01*
X111151030Y-105000147D01*
X111119500Y-105199216D01*
X111119500Y-105400783D01*
X111151030Y-105599852D01*
X111213312Y-105791539D01*
X111238279Y-105840539D01*
X111304818Y-105971129D01*
X111423289Y-106134190D01*
X111565810Y-106276711D01*
X111728871Y-106395182D01*
X111779842Y-106421153D01*
X111855131Y-106459515D01*
X111905927Y-106507490D01*
X111922722Y-106575311D01*
X111900184Y-106641446D01*
X111855131Y-106680485D01*
X111728870Y-106744818D01*
X111665855Y-106790602D01*
X111565810Y-106863289D01*
X111565808Y-106863291D01*
X111565807Y-106863291D01*
X111423291Y-107005807D01*
X111423291Y-107005808D01*
X111423289Y-107005810D01*
X111420036Y-107010288D01*
X111304818Y-107168870D01*
X111213312Y-107348460D01*
X111151030Y-107540147D01*
X111119500Y-107739216D01*
X111119500Y-107940783D01*
X111151030Y-108139852D01*
X111213312Y-108331539D01*
X111213314Y-108331542D01*
X111304818Y-108511129D01*
X111423289Y-108674190D01*
X111565810Y-108816711D01*
X111728871Y-108935182D01*
X111796885Y-108969836D01*
X111855131Y-108999515D01*
X111905927Y-109047490D01*
X111922722Y-109115311D01*
X111900184Y-109181446D01*
X111855131Y-109220485D01*
X111728870Y-109284818D01*
X111635838Y-109352410D01*
X111565810Y-109403289D01*
X111565808Y-109403291D01*
X111565807Y-109403291D01*
X111423291Y-109545807D01*
X111423291Y-109545808D01*
X111423289Y-109545810D01*
X111372410Y-109615838D01*
X111304818Y-109708870D01*
X111213312Y-109888460D01*
X111151030Y-110080147D01*
X111119500Y-110279216D01*
X111119500Y-110480783D01*
X111151030Y-110679852D01*
X111213312Y-110871539D01*
X111230496Y-110905264D01*
X111304818Y-111051129D01*
X111423289Y-111214190D01*
X111565810Y-111356711D01*
X111728871Y-111475182D01*
X111796885Y-111509836D01*
X111855131Y-111539515D01*
X111905927Y-111587490D01*
X111922722Y-111655311D01*
X111900184Y-111721446D01*
X111855131Y-111760485D01*
X111728870Y-111824818D01*
X111654041Y-111879185D01*
X111565810Y-111943289D01*
X111565808Y-111943291D01*
X111565807Y-111943291D01*
X111423291Y-112085807D01*
X111423291Y-112085808D01*
X111423289Y-112085810D01*
X111397151Y-112121786D01*
X111304818Y-112248870D01*
X111213312Y-112428460D01*
X111151030Y-112620147D01*
X111119500Y-112819216D01*
X111119500Y-113020783D01*
X111151030Y-113219852D01*
X111213312Y-113411539D01*
X111213314Y-113411542D01*
X111304818Y-113591129D01*
X111423289Y-113754190D01*
X111565810Y-113896711D01*
X111728871Y-114015182D01*
X111796885Y-114049836D01*
X111855131Y-114079515D01*
X111905927Y-114127490D01*
X111922722Y-114195311D01*
X111900184Y-114261446D01*
X111855131Y-114300485D01*
X111728870Y-114364818D01*
X111635838Y-114432410D01*
X111565810Y-114483289D01*
X111565808Y-114483291D01*
X111565807Y-114483291D01*
X111423291Y-114625807D01*
X111423291Y-114625808D01*
X111423289Y-114625810D01*
X111372410Y-114695838D01*
X111304818Y-114788870D01*
X111213312Y-114968460D01*
X111151030Y-115160147D01*
X111119500Y-115359216D01*
X111119500Y-115560783D01*
X111151030Y-115759852D01*
X111213312Y-115951539D01*
X111213314Y-115951542D01*
X111304818Y-116131129D01*
X111423289Y-116294190D01*
X111565810Y-116436711D01*
X111728871Y-116555182D01*
X111796885Y-116589836D01*
X111855131Y-116619515D01*
X111905927Y-116667490D01*
X111922722Y-116735311D01*
X111900184Y-116801446D01*
X111855131Y-116840485D01*
X111728870Y-116904818D01*
X111635838Y-116972410D01*
X111565810Y-117023289D01*
X111565808Y-117023291D01*
X111565807Y-117023291D01*
X111423291Y-117165807D01*
X111423291Y-117165808D01*
X111423289Y-117165810D01*
X111391621Y-117209397D01*
X111304818Y-117328870D01*
X111213312Y-117508460D01*
X111151030Y-117700147D01*
X111119500Y-117899216D01*
X111119500Y-118100783D01*
X111151030Y-118299852D01*
X111213312Y-118491539D01*
X111213314Y-118491542D01*
X111304818Y-118671129D01*
X111423289Y-118834190D01*
X111565810Y-118976711D01*
X111728871Y-119095182D01*
X111796885Y-119129836D01*
X111855131Y-119159515D01*
X111905927Y-119207490D01*
X111922722Y-119275311D01*
X111900184Y-119341446D01*
X111855131Y-119380485D01*
X111728870Y-119444818D01*
X111635838Y-119512410D01*
X111565810Y-119563289D01*
X111565808Y-119563291D01*
X111565807Y-119563291D01*
X111423291Y-119705807D01*
X111423291Y-119705808D01*
X111423289Y-119705810D01*
X111372410Y-119775838D01*
X111304818Y-119868870D01*
X111213312Y-120048460D01*
X111151030Y-120240147D01*
X111119500Y-120439216D01*
X111119500Y-120640783D01*
X111151030Y-120839852D01*
X111213312Y-121031539D01*
X111213314Y-121031542D01*
X111304818Y-121211129D01*
X111423289Y-121374190D01*
X111565810Y-121516711D01*
X111728871Y-121635182D01*
X111796885Y-121669836D01*
X111855131Y-121699515D01*
X111905927Y-121747490D01*
X111922722Y-121815311D01*
X111900184Y-121881446D01*
X111855131Y-121920485D01*
X111728870Y-121984818D01*
X111661196Y-122033987D01*
X111565810Y-122103289D01*
X111565808Y-122103291D01*
X111565807Y-122103291D01*
X111423291Y-122245807D01*
X111423291Y-122245808D01*
X111423289Y-122245810D01*
X111372410Y-122315838D01*
X111304818Y-122408870D01*
X111213312Y-122588460D01*
X111151030Y-122780147D01*
X111119500Y-122979216D01*
X111119500Y-123180783D01*
X111151030Y-123379852D01*
X111213312Y-123571539D01*
X111213314Y-123571542D01*
X111304818Y-123751129D01*
X111423289Y-123914190D01*
X111565810Y-124056711D01*
X111728871Y-124175182D01*
X111737923Y-124179794D01*
X111855131Y-124239515D01*
X111905927Y-124287490D01*
X111922722Y-124355311D01*
X111900184Y-124421446D01*
X111855131Y-124460485D01*
X111728870Y-124524818D01*
X111635838Y-124592410D01*
X111565810Y-124643289D01*
X111565808Y-124643291D01*
X111565807Y-124643291D01*
X111423291Y-124785807D01*
X111423291Y-124785808D01*
X111423289Y-124785810D01*
X111372410Y-124855838D01*
X111304818Y-124948870D01*
X111213312Y-125128460D01*
X111151030Y-125320147D01*
X111119500Y-125519216D01*
X111119500Y-125720783D01*
X111151030Y-125919852D01*
X111213312Y-126111539D01*
X111280016Y-126242452D01*
X111304818Y-126291129D01*
X111423289Y-126454190D01*
X111565810Y-126596711D01*
X111646289Y-126655183D01*
X111688955Y-126710511D01*
X111694934Y-126780125D01*
X111662329Y-126841920D01*
X111601490Y-126876277D01*
X111575433Y-126879270D01*
X111575436Y-126879324D01*
X111574550Y-126879371D01*
X111573431Y-126879500D01*
X111572143Y-126879500D01*
X111572123Y-126879501D01*
X111512516Y-126885908D01*
X111377671Y-126936202D01*
X111377664Y-126936206D01*
X111262455Y-127022452D01*
X111262452Y-127022455D01*
X111176206Y-127137664D01*
X111176202Y-127137671D01*
X111125908Y-127272517D01*
X111119501Y-127332116D01*
X111119501Y-127332123D01*
X111119500Y-127332135D01*
X111119501Y-128875500D01*
X111099816Y-128942539D01*
X111047013Y-128988294D01*
X110995501Y-128999500D01*
X88211180Y-128999500D01*
X88144141Y-128979815D01*
X88098386Y-128927011D01*
X88088442Y-128857853D01*
X88100696Y-128819205D01*
X88186218Y-128651359D01*
X88186224Y-128651346D01*
X88248481Y-128459735D01*
X88280000Y-128260737D01*
X88280000Y-128059262D01*
X88248481Y-127860264D01*
X88186224Y-127668653D01*
X88186223Y-127668650D01*
X88094753Y-127489133D01*
X88065155Y-127448396D01*
X88065155Y-127448395D01*
X87499292Y-128014259D01*
X87484563Y-127959288D01*
X87416104Y-127840713D01*
X87319287Y-127743896D01*
X87200712Y-127675437D01*
X87145738Y-127660707D01*
X87711603Y-127094843D01*
X87711602Y-127094842D01*
X87670867Y-127065246D01*
X87544316Y-127000764D01*
X87493521Y-126952790D01*
X87476726Y-126884969D01*
X87499264Y-126818834D01*
X87544317Y-126779795D01*
X87671129Y-126715182D01*
X87834190Y-126596711D01*
X87976711Y-126454190D01*
X88095182Y-126291129D01*
X88186686Y-126111542D01*
X88248970Y-125919851D01*
X88267873Y-125800500D01*
X88280500Y-125720783D01*
X88280500Y-125519216D01*
X88255044Y-125358501D01*
X88248970Y-125320149D01*
X88203519Y-125180264D01*
X88186687Y-125128460D01*
X88144752Y-125046158D01*
X88095182Y-124948871D01*
X88075044Y-124921153D01*
X89699500Y-124921153D01*
X89699500Y-125078846D01*
X89730261Y-125233489D01*
X89730264Y-125233501D01*
X89790602Y-125379172D01*
X89790609Y-125379185D01*
X89878210Y-125510288D01*
X89878213Y-125510292D01*
X89989707Y-125621786D01*
X89989711Y-125621789D01*
X90120814Y-125709390D01*
X90120827Y-125709397D01*
X90211101Y-125746789D01*
X90266503Y-125769737D01*
X90421153Y-125800499D01*
X90421156Y-125800500D01*
X90421158Y-125800500D01*
X90578844Y-125800500D01*
X90578845Y-125800499D01*
X90733497Y-125769737D01*
X90877180Y-125710222D01*
X90879172Y-125709397D01*
X90879172Y-125709396D01*
X90879179Y-125709394D01*
X91010289Y-125621789D01*
X91121789Y-125510289D01*
X91209394Y-125379179D01*
X91269737Y-125233497D01*
X91300500Y-125078842D01*
X91300500Y-124921158D01*
X91300500Y-124921155D01*
X91300499Y-124921153D01*
X91273577Y-124785808D01*
X91269737Y-124766503D01*
X91261170Y-124745821D01*
X91209397Y-124620827D01*
X91209390Y-124620814D01*
X91121789Y-124489711D01*
X91121786Y-124489707D01*
X91010292Y-124378213D01*
X91010288Y-124378210D01*
X90879185Y-124290609D01*
X90879172Y-124290602D01*
X90733501Y-124230264D01*
X90733489Y-124230261D01*
X90578845Y-124199500D01*
X90578842Y-124199500D01*
X90421158Y-124199500D01*
X90421155Y-124199500D01*
X90266510Y-124230261D01*
X90266498Y-124230264D01*
X90120827Y-124290602D01*
X90120814Y-124290609D01*
X89989711Y-124378210D01*
X89989707Y-124378213D01*
X89878213Y-124489707D01*
X89878210Y-124489711D01*
X89790609Y-124620814D01*
X89790602Y-124620827D01*
X89730264Y-124766498D01*
X89730261Y-124766510D01*
X89699500Y-124921153D01*
X88075044Y-124921153D01*
X87976711Y-124785810D01*
X87834190Y-124643289D01*
X87671129Y-124524818D01*
X87544867Y-124460484D01*
X87494072Y-124412510D01*
X87477277Y-124344690D01*
X87499814Y-124278555D01*
X87544868Y-124239515D01*
X87563030Y-124230261D01*
X87671129Y-124175182D01*
X87834190Y-124056711D01*
X87976711Y-123914190D01*
X88095182Y-123751129D01*
X88186686Y-123571542D01*
X88248970Y-123379851D01*
X88267080Y-123265507D01*
X88280500Y-123180783D01*
X88280500Y-122979216D01*
X88261996Y-122862393D01*
X88248970Y-122780149D01*
X88186686Y-122588458D01*
X88095182Y-122408871D01*
X87976711Y-122245810D01*
X87834190Y-122103289D01*
X87671129Y-121984818D01*
X87544867Y-121920484D01*
X87494072Y-121872510D01*
X87477277Y-121804690D01*
X87499814Y-121738555D01*
X87544868Y-121699515D01*
X87671129Y-121635182D01*
X87834190Y-121516711D01*
X87976711Y-121374190D01*
X88095182Y-121211129D01*
X88186686Y-121031542D01*
X88248970Y-120839851D01*
X88265214Y-120737289D01*
X88280500Y-120640783D01*
X88280500Y-120439216D01*
X88258449Y-120300000D01*
X88248970Y-120240149D01*
X88186686Y-120048458D01*
X88095182Y-119868871D01*
X87976711Y-119705810D01*
X87834190Y-119563289D01*
X87671129Y-119444818D01*
X87544867Y-119380484D01*
X87494072Y-119332510D01*
X87477277Y-119264690D01*
X87499814Y-119198555D01*
X87544868Y-119159515D01*
X87671129Y-119095182D01*
X87834190Y-118976711D01*
X87976711Y-118834190D01*
X88095182Y-118671129D01*
X88186686Y-118491542D01*
X88248970Y-118299851D01*
X88265214Y-118197289D01*
X88280500Y-118100783D01*
X88280500Y-117899216D01*
X88262156Y-117783408D01*
X88248970Y-117700149D01*
X88186686Y-117508458D01*
X88095182Y-117328871D01*
X87976711Y-117165810D01*
X87834190Y-117023289D01*
X87671129Y-116904818D01*
X87544867Y-116840484D01*
X87494072Y-116792510D01*
X87477277Y-116724690D01*
X87499814Y-116658555D01*
X87544868Y-116619515D01*
X87671129Y-116555182D01*
X87834190Y-116436711D01*
X87976711Y-116294190D01*
X88095182Y-116131129D01*
X88186686Y-115951542D01*
X88248970Y-115759851D01*
X88265214Y-115657289D01*
X88280500Y-115560783D01*
X88280500Y-115359216D01*
X88262156Y-115243408D01*
X88248970Y-115160149D01*
X88186686Y-114968458D01*
X88095182Y-114788871D01*
X87976711Y-114625810D01*
X87834190Y-114483289D01*
X87671129Y-114364818D01*
X87544867Y-114300484D01*
X87494072Y-114252510D01*
X87477277Y-114184690D01*
X87499814Y-114118555D01*
X87544868Y-114079515D01*
X87671129Y-114015182D01*
X87834190Y-113896711D01*
X87976711Y-113754190D01*
X88095182Y-113591129D01*
X88186686Y-113411542D01*
X88248970Y-113219851D01*
X88265214Y-113117289D01*
X88280500Y-113020783D01*
X88280500Y-112819216D01*
X88262156Y-112703408D01*
X88248970Y-112620149D01*
X88191976Y-112444738D01*
X88186687Y-112428460D01*
X88121488Y-112300500D01*
X88095182Y-112248871D01*
X87976711Y-112085810D01*
X87834190Y-111943289D01*
X87671129Y-111824818D01*
X87544867Y-111760484D01*
X87494072Y-111712510D01*
X87477277Y-111644690D01*
X87499814Y-111578555D01*
X87544868Y-111539515D01*
X87671129Y-111475182D01*
X87834190Y-111356711D01*
X87976711Y-111214190D01*
X88095182Y-111051129D01*
X88186686Y-110871542D01*
X88248970Y-110679851D01*
X88265214Y-110577289D01*
X88280500Y-110480783D01*
X88280500Y-110279216D01*
X88248970Y-110080148D01*
X88207782Y-109953384D01*
X88207781Y-109953382D01*
X88197310Y-109921153D01*
X91199500Y-109921153D01*
X91199500Y-110078846D01*
X91230261Y-110233489D01*
X91230264Y-110233501D01*
X91290602Y-110379172D01*
X91290609Y-110379185D01*
X91378210Y-110510288D01*
X91378213Y-110510292D01*
X91489707Y-110621786D01*
X91489711Y-110621789D01*
X91620814Y-110709390D01*
X91620827Y-110709397D01*
X91754323Y-110764692D01*
X91766503Y-110769737D01*
X91921153Y-110800499D01*
X91921156Y-110800500D01*
X91921158Y-110800500D01*
X92078844Y-110800500D01*
X92078845Y-110800499D01*
X92233497Y-110769737D01*
X92379179Y-110709394D01*
X92510289Y-110621789D01*
X92621789Y-110510289D01*
X92709394Y-110379179D01*
X92769737Y-110233497D01*
X92800500Y-110078842D01*
X92800500Y-109921158D01*
X92800500Y-109921155D01*
X92800499Y-109921153D01*
X92793996Y-109888460D01*
X92769737Y-109766503D01*
X92745865Y-109708870D01*
X92709397Y-109620827D01*
X92709390Y-109620814D01*
X92621789Y-109489711D01*
X92621786Y-109489707D01*
X92510292Y-109378213D01*
X92510288Y-109378210D01*
X92379185Y-109290609D01*
X92379172Y-109290602D01*
X92233501Y-109230264D01*
X92233489Y-109230261D01*
X92078845Y-109199500D01*
X92078842Y-109199500D01*
X91921158Y-109199500D01*
X91921155Y-109199500D01*
X91766510Y-109230261D01*
X91766498Y-109230264D01*
X91620827Y-109290602D01*
X91620814Y-109290609D01*
X91489711Y-109378210D01*
X91489707Y-109378213D01*
X91378213Y-109489707D01*
X91378210Y-109489711D01*
X91290609Y-109620814D01*
X91290602Y-109620827D01*
X91230264Y-109766498D01*
X91230261Y-109766510D01*
X91199500Y-109921153D01*
X88197310Y-109921153D01*
X88186688Y-109888462D01*
X88095181Y-109708870D01*
X87976711Y-109545810D01*
X87834190Y-109403289D01*
X87671129Y-109284818D01*
X87544867Y-109220484D01*
X87494072Y-109172510D01*
X87477277Y-109104690D01*
X87499814Y-109038555D01*
X87544868Y-108999515D01*
X87671129Y-108935182D01*
X87834190Y-108816711D01*
X87976711Y-108674190D01*
X88095182Y-108511129D01*
X88186686Y-108331542D01*
X88248970Y-108139851D01*
X88269491Y-108010288D01*
X88280500Y-107940783D01*
X88280500Y-107739216D01*
X88262156Y-107623408D01*
X88248970Y-107540149D01*
X88238302Y-107507318D01*
X88220779Y-107453384D01*
X88210306Y-107421153D01*
X90199500Y-107421153D01*
X90199500Y-107578846D01*
X90230261Y-107733489D01*
X90230264Y-107733501D01*
X90290602Y-107879172D01*
X90290609Y-107879185D01*
X90378210Y-108010288D01*
X90378213Y-108010292D01*
X90489707Y-108121786D01*
X90489711Y-108121789D01*
X90620814Y-108209390D01*
X90620827Y-108209397D01*
X90766498Y-108269735D01*
X90766503Y-108269737D01*
X90921153Y-108300499D01*
X90921156Y-108300500D01*
X90921158Y-108300500D01*
X91078844Y-108300500D01*
X91078845Y-108300499D01*
X91233497Y-108269737D01*
X91379179Y-108209394D01*
X91510289Y-108121789D01*
X91621789Y-108010289D01*
X91709394Y-107879179D01*
X91769737Y-107733497D01*
X91800500Y-107578842D01*
X91800500Y-107421158D01*
X91800500Y-107421155D01*
X91800499Y-107421153D01*
X91786039Y-107348458D01*
X91769737Y-107266503D01*
X91743350Y-107202799D01*
X91709397Y-107120827D01*
X91709390Y-107120814D01*
X91621789Y-106989711D01*
X91621786Y-106989707D01*
X91510292Y-106878213D01*
X91510288Y-106878210D01*
X91379185Y-106790609D01*
X91379172Y-106790602D01*
X91233501Y-106730264D01*
X91233489Y-106730261D01*
X91078845Y-106699500D01*
X91078842Y-106699500D01*
X90921158Y-106699500D01*
X90921155Y-106699500D01*
X90766510Y-106730261D01*
X90766498Y-106730264D01*
X90620827Y-106790602D01*
X90620814Y-106790609D01*
X90489711Y-106878210D01*
X90489707Y-106878213D01*
X90378213Y-106989707D01*
X90378210Y-106989711D01*
X90290609Y-107120814D01*
X90290602Y-107120827D01*
X90230264Y-107266498D01*
X90230261Y-107266510D01*
X90199500Y-107421153D01*
X88210306Y-107421153D01*
X88186687Y-107348460D01*
X88146576Y-107269738D01*
X88095182Y-107168871D01*
X87976711Y-107005810D01*
X87834190Y-106863289D01*
X87671129Y-106744818D01*
X87544867Y-106680484D01*
X87494072Y-106632510D01*
X87477277Y-106564690D01*
X87499814Y-106498555D01*
X87544868Y-106459515D01*
X87671129Y-106395182D01*
X87834190Y-106276711D01*
X87976711Y-106134190D01*
X88095182Y-105971129D01*
X88186686Y-105791542D01*
X88248970Y-105599851D01*
X88274480Y-105438790D01*
X88280500Y-105400783D01*
X88280500Y-105199216D01*
X88250576Y-105010292D01*
X88248970Y-105000149D01*
X88186686Y-104808458D01*
X88183925Y-104803039D01*
X88171029Y-104734370D01*
X88197305Y-104669629D01*
X88254412Y-104629372D01*
X88318600Y-104625127D01*
X88366817Y-104634718D01*
X88446155Y-104650500D01*
X88446158Y-104650500D01*
X88603844Y-104650500D01*
X88603845Y-104650499D01*
X88758497Y-104619737D01*
X88904179Y-104559394D01*
X89035289Y-104471789D01*
X89085925Y-104421153D01*
X90199500Y-104421153D01*
X90199500Y-104578846D01*
X90230261Y-104733489D01*
X90230264Y-104733501D01*
X90290602Y-104879172D01*
X90290609Y-104879185D01*
X90378210Y-105010288D01*
X90378213Y-105010292D01*
X90489707Y-105121786D01*
X90489711Y-105121789D01*
X90620814Y-105209390D01*
X90620827Y-105209397D01*
X90755513Y-105265185D01*
X90766503Y-105269737D01*
X90892402Y-105294780D01*
X90921153Y-105300499D01*
X90921156Y-105300500D01*
X90921158Y-105300500D01*
X91078844Y-105300500D01*
X91078845Y-105300499D01*
X91233497Y-105269737D01*
X91379179Y-105209394D01*
X91510289Y-105121789D01*
X91621789Y-105010289D01*
X91709394Y-104879179D01*
X91769737Y-104733497D01*
X91800500Y-104578842D01*
X91800500Y-104421158D01*
X91800500Y-104421155D01*
X91800499Y-104421153D01*
X91781033Y-104323291D01*
X91769737Y-104266503D01*
X91756062Y-104233489D01*
X91709397Y-104120827D01*
X91709390Y-104120814D01*
X91621789Y-103989711D01*
X91621786Y-103989707D01*
X91510292Y-103878213D01*
X91510288Y-103878210D01*
X91379185Y-103790609D01*
X91379172Y-103790602D01*
X91233501Y-103730264D01*
X91233489Y-103730261D01*
X91078845Y-103699500D01*
X91078842Y-103699500D01*
X90921158Y-103699500D01*
X90921155Y-103699500D01*
X90766510Y-103730261D01*
X90766498Y-103730264D01*
X90620827Y-103790602D01*
X90620814Y-103790609D01*
X90489711Y-103878210D01*
X90489707Y-103878213D01*
X90378213Y-103989707D01*
X90378210Y-103989711D01*
X90290609Y-104120814D01*
X90290602Y-104120827D01*
X90230264Y-104266498D01*
X90230261Y-104266510D01*
X90199500Y-104421153D01*
X89085925Y-104421153D01*
X89146789Y-104360289D01*
X89171511Y-104323291D01*
X89234390Y-104229185D01*
X89234390Y-104229184D01*
X89234394Y-104229179D01*
X89294737Y-104083497D01*
X89325500Y-103928842D01*
X89325500Y-103771158D01*
X89325500Y-103771155D01*
X89325499Y-103771153D01*
X89295596Y-103620821D01*
X89294737Y-103616503D01*
X89285495Y-103594190D01*
X89234397Y-103470827D01*
X89234390Y-103470814D01*
X89146789Y-103339711D01*
X89146786Y-103339707D01*
X89035292Y-103228213D01*
X89035288Y-103228210D01*
X88904185Y-103140609D01*
X88904172Y-103140602D01*
X88758501Y-103080264D01*
X88758489Y-103080261D01*
X88603845Y-103049500D01*
X88603842Y-103049500D01*
X88446158Y-103049500D01*
X88446153Y-103049500D01*
X88418745Y-103054952D01*
X88349153Y-103048725D01*
X88293976Y-103005862D01*
X88270732Y-102939972D01*
X88272081Y-102913937D01*
X88280500Y-102860783D01*
X88280500Y-102659216D01*
X88262156Y-102543408D01*
X88248970Y-102460149D01*
X88186686Y-102268458D01*
X88095182Y-102088871D01*
X87976711Y-101925810D01*
X87834190Y-101783289D01*
X87671129Y-101664818D01*
X87544867Y-101600484D01*
X87494072Y-101552510D01*
X87477277Y-101484690D01*
X87499814Y-101418555D01*
X87544868Y-101379515D01*
X87671129Y-101315182D01*
X87834190Y-101196711D01*
X87976711Y-101054190D01*
X88095182Y-100891129D01*
X88186686Y-100711542D01*
X88248970Y-100519851D01*
X88265214Y-100417289D01*
X88280500Y-100320783D01*
X88280500Y-100119216D01*
X88262156Y-100003408D01*
X88248970Y-99920149D01*
X88187273Y-99730264D01*
X88186687Y-99728460D01*
X88095181Y-99548870D01*
X87976711Y-99385810D01*
X87834190Y-99243289D01*
X87671129Y-99124818D01*
X87544867Y-99060484D01*
X87494072Y-99012510D01*
X87477277Y-98944690D01*
X87499814Y-98878555D01*
X87544868Y-98839515D01*
X87671129Y-98775182D01*
X87834190Y-98656711D01*
X87976711Y-98514190D01*
X88095182Y-98351129D01*
X88186686Y-98171542D01*
X88248970Y-97979851D01*
X88265214Y-97877289D01*
X88280500Y-97780783D01*
X88280500Y-97579216D01*
X88262156Y-97463408D01*
X88248970Y-97380149D01*
X88186686Y-97188458D01*
X88095182Y-97008871D01*
X87976711Y-96845810D01*
X87834190Y-96703289D01*
X87671129Y-96584818D01*
X87544867Y-96520484D01*
X87494072Y-96472510D01*
X87477277Y-96404690D01*
X87499814Y-96338555D01*
X87544868Y-96299515D01*
X87671129Y-96235182D01*
X87834190Y-96116711D01*
X87976711Y-95974190D01*
X88095182Y-95811129D01*
X88186686Y-95631542D01*
X88248970Y-95439851D01*
X88265214Y-95337289D01*
X88280500Y-95240783D01*
X88280500Y-95039216D01*
X88262156Y-94923408D01*
X88248970Y-94840149D01*
X88205129Y-94705220D01*
X88186687Y-94648460D01*
X88120549Y-94518657D01*
X88095182Y-94468871D01*
X87976711Y-94305810D01*
X87834190Y-94163289D01*
X87671129Y-94044818D01*
X87544867Y-93980484D01*
X87494072Y-93932510D01*
X87477277Y-93864690D01*
X87499814Y-93798555D01*
X87544868Y-93759515D01*
X87671129Y-93695182D01*
X87834190Y-93576711D01*
X87976711Y-93434190D01*
X88095182Y-93271129D01*
X88186686Y-93091542D01*
X88248970Y-92899851D01*
X88265228Y-92797203D01*
X88280500Y-92700783D01*
X88280500Y-92499216D01*
X88258020Y-92357287D01*
X88248970Y-92300149D01*
X88186686Y-92108458D01*
X88095182Y-91928871D01*
X87976711Y-91765810D01*
X87834190Y-91623289D01*
X87671129Y-91504818D01*
X87544867Y-91440484D01*
X87494072Y-91392510D01*
X87477277Y-91324690D01*
X87499814Y-91258555D01*
X87544868Y-91219515D01*
X87671129Y-91155182D01*
X87834190Y-91036711D01*
X87976711Y-90894190D01*
X88095182Y-90731129D01*
X88186686Y-90551542D01*
X88248970Y-90359851D01*
X88265214Y-90257289D01*
X88280500Y-90160783D01*
X88280500Y-89959216D01*
X88262156Y-89843408D01*
X88248970Y-89760149D01*
X88186686Y-89568458D01*
X88095182Y-89388871D01*
X87976711Y-89225810D01*
X87834190Y-89083289D01*
X87671129Y-88964818D01*
X87544867Y-88900484D01*
X87494072Y-88852510D01*
X87477277Y-88784690D01*
X87499814Y-88718555D01*
X87544868Y-88679515D01*
X87671129Y-88615182D01*
X87834190Y-88496711D01*
X87976711Y-88354190D01*
X88095182Y-88191129D01*
X88186686Y-88011542D01*
X88248970Y-87819851D01*
X88265214Y-87717289D01*
X88280500Y-87620783D01*
X88280500Y-87419216D01*
X88262156Y-87303408D01*
X88248970Y-87220149D01*
X88186686Y-87028458D01*
X88095182Y-86848871D01*
X87976711Y-86685810D01*
X87834190Y-86543289D01*
X87671129Y-86424818D01*
X87544867Y-86360484D01*
X87494072Y-86312510D01*
X87477277Y-86244690D01*
X87499814Y-86178555D01*
X87544868Y-86139515D01*
X87671129Y-86075182D01*
X87834190Y-85956711D01*
X87976711Y-85814190D01*
X88095182Y-85651129D01*
X88186686Y-85471542D01*
X88248970Y-85279851D01*
X88276728Y-85104595D01*
X88280500Y-85080783D01*
X88280500Y-84879216D01*
X88252114Y-84700000D01*
X88248970Y-84680149D01*
X88186686Y-84488458D01*
X88095182Y-84308871D01*
X87976711Y-84145810D01*
X87834190Y-84003289D01*
X87671129Y-83884818D01*
X87544867Y-83820484D01*
X87494072Y-83772510D01*
X87477277Y-83704690D01*
X87499814Y-83638555D01*
X87544868Y-83599515D01*
X87671129Y-83535182D01*
X87834190Y-83416711D01*
X87976711Y-83274190D01*
X88095182Y-83111129D01*
X88186686Y-82931542D01*
X88248970Y-82739851D01*
X88267670Y-82621786D01*
X88280500Y-82540783D01*
X88280500Y-82339216D01*
X88262156Y-82223408D01*
X88248970Y-82140149D01*
X88186686Y-81948458D01*
X88095182Y-81768871D01*
X87976711Y-81605810D01*
X87834190Y-81463289D01*
X87671129Y-81344818D01*
X87564724Y-81290602D01*
X87491539Y-81253312D01*
X87299852Y-81191030D01*
X87100783Y-81159500D01*
X87100778Y-81159500D01*
X86899222Y-81159500D01*
X86899217Y-81159500D01*
X86700147Y-81191030D01*
X86508460Y-81253312D01*
X86328870Y-81344818D01*
X86235838Y-81412410D01*
X86165810Y-81463289D01*
X86165808Y-81463291D01*
X86165807Y-81463291D01*
X86023291Y-81605807D01*
X86023291Y-81605808D01*
X86023289Y-81605810D01*
X85972410Y-81675838D01*
X85904818Y-81768870D01*
X85813312Y-81948460D01*
X85751030Y-82140147D01*
X85719500Y-82339216D01*
X85719500Y-82540783D01*
X85751030Y-82739852D01*
X85813312Y-82931539D01*
X85891366Y-83084728D01*
X85904818Y-83111129D01*
X86023289Y-83274190D01*
X86165810Y-83416711D01*
X86328871Y-83535182D01*
X86394332Y-83568536D01*
X86455131Y-83599515D01*
X86505927Y-83647490D01*
X86522722Y-83715311D01*
X86500184Y-83781446D01*
X86455131Y-83820485D01*
X86328870Y-83884818D01*
X86239156Y-83950000D01*
X86165810Y-84003289D01*
X86165808Y-84003291D01*
X86165807Y-84003291D01*
X86023291Y-84145807D01*
X86023291Y-84145808D01*
X86023289Y-84145810D01*
X85992059Y-84188794D01*
X85904818Y-84308870D01*
X85813312Y-84488460D01*
X85751030Y-84680147D01*
X85719500Y-84879216D01*
X85719500Y-85080783D01*
X85751030Y-85279852D01*
X85813312Y-85471539D01*
X85871099Y-85584951D01*
X85904818Y-85651129D01*
X86023289Y-85814190D01*
X86165810Y-85956711D01*
X86328871Y-86075182D01*
X86350099Y-86085998D01*
X86455131Y-86139515D01*
X86505927Y-86187490D01*
X86522722Y-86255311D01*
X86500184Y-86321446D01*
X86455131Y-86360485D01*
X86328870Y-86424818D01*
X86235838Y-86492410D01*
X86165810Y-86543289D01*
X86165808Y-86543291D01*
X86165807Y-86543291D01*
X86023291Y-86685807D01*
X86023291Y-86685808D01*
X86023289Y-86685810D01*
X86023285Y-86685816D01*
X85904818Y-86848870D01*
X85813312Y-87028460D01*
X85751030Y-87220147D01*
X85719500Y-87419216D01*
X85719500Y-87620783D01*
X85751030Y-87819852D01*
X85813312Y-88011539D01*
X85813314Y-88011542D01*
X85904818Y-88191129D01*
X86023289Y-88354190D01*
X86165810Y-88496711D01*
X86328871Y-88615182D01*
X86396885Y-88649836D01*
X86455131Y-88679515D01*
X86505927Y-88727490D01*
X86522722Y-88795311D01*
X86500184Y-88861446D01*
X86455131Y-88900485D01*
X86328870Y-88964818D01*
X86235838Y-89032410D01*
X86165810Y-89083289D01*
X86165808Y-89083291D01*
X86165807Y-89083291D01*
X86023291Y-89225807D01*
X86023291Y-89225808D01*
X86023289Y-89225810D01*
X85972410Y-89295838D01*
X85904818Y-89388870D01*
X85813312Y-89568460D01*
X85751030Y-89760147D01*
X85719500Y-89959216D01*
X85719500Y-90160783D01*
X85751030Y-90359852D01*
X85813312Y-90551539D01*
X85813314Y-90551542D01*
X85904818Y-90731129D01*
X86023289Y-90894190D01*
X86165810Y-91036711D01*
X86328871Y-91155182D01*
X86396885Y-91189836D01*
X86455131Y-91219515D01*
X86505927Y-91267490D01*
X86522722Y-91335311D01*
X86500184Y-91401446D01*
X86455131Y-91440485D01*
X86328870Y-91504818D01*
X86235838Y-91572410D01*
X86165810Y-91623289D01*
X86165808Y-91623291D01*
X86165807Y-91623291D01*
X86023291Y-91765807D01*
X86023291Y-91765808D01*
X86023289Y-91765810D01*
X85972410Y-91835838D01*
X85904818Y-91928870D01*
X85813312Y-92108460D01*
X85751030Y-92300147D01*
X85719500Y-92499216D01*
X85719500Y-92700783D01*
X85751030Y-92899852D01*
X85813312Y-93091539D01*
X85813314Y-93091542D01*
X85904818Y-93271129D01*
X86023289Y-93434190D01*
X86165810Y-93576711D01*
X86328871Y-93695182D01*
X86396885Y-93729836D01*
X86455131Y-93759515D01*
X86505927Y-93807490D01*
X86522722Y-93875311D01*
X86500184Y-93941446D01*
X86455131Y-93980485D01*
X86328870Y-94044818D01*
X86252895Y-94100018D01*
X86165810Y-94163289D01*
X86165808Y-94163291D01*
X86165807Y-94163291D01*
X86023291Y-94305807D01*
X86023291Y-94305808D01*
X86023289Y-94305810D01*
X85993208Y-94347213D01*
X85904818Y-94468870D01*
X85813312Y-94648460D01*
X85751030Y-94840147D01*
X85719500Y-95039216D01*
X85719500Y-95240783D01*
X85751030Y-95439852D01*
X85813312Y-95631539D01*
X85813314Y-95631542D01*
X85904818Y-95811129D01*
X86023289Y-95974190D01*
X86165810Y-96116711D01*
X86328871Y-96235182D01*
X86396885Y-96269836D01*
X86455131Y-96299515D01*
X86505927Y-96347490D01*
X86522722Y-96415311D01*
X86500184Y-96481446D01*
X86455131Y-96520485D01*
X86328870Y-96584818D01*
X86235838Y-96652410D01*
X86165810Y-96703289D01*
X86165808Y-96703291D01*
X86165807Y-96703291D01*
X86023291Y-96845807D01*
X86023291Y-96845808D01*
X86023289Y-96845810D01*
X85972410Y-96915838D01*
X85904818Y-97008870D01*
X85813312Y-97188460D01*
X85751030Y-97380147D01*
X85719500Y-97579216D01*
X85719500Y-97780783D01*
X85751030Y-97979852D01*
X85813312Y-98171539D01*
X85813314Y-98171542D01*
X85904818Y-98351129D01*
X86023289Y-98514190D01*
X86165810Y-98656711D01*
X86328871Y-98775182D01*
X86396885Y-98809836D01*
X86455131Y-98839515D01*
X86505927Y-98887490D01*
X86522722Y-98955311D01*
X86500184Y-99021446D01*
X86455131Y-99060485D01*
X86328870Y-99124818D01*
X86235838Y-99192410D01*
X86165810Y-99243289D01*
X86165808Y-99243291D01*
X86165807Y-99243291D01*
X86023291Y-99385807D01*
X86023291Y-99385808D01*
X86023289Y-99385810D01*
X85972410Y-99455838D01*
X85904818Y-99548870D01*
X85813312Y-99728460D01*
X85764805Y-99877751D01*
X85725367Y-99935427D01*
X85661009Y-99962625D01*
X85592163Y-99950710D01*
X85559193Y-99927114D01*
X85510292Y-99878213D01*
X85510288Y-99878210D01*
X85379185Y-99790609D01*
X85379172Y-99790602D01*
X85233501Y-99730264D01*
X85233489Y-99730261D01*
X85078845Y-99699500D01*
X85078842Y-99699500D01*
X84921158Y-99699500D01*
X84921155Y-99699500D01*
X84766510Y-99730261D01*
X84766498Y-99730264D01*
X84620827Y-99790602D01*
X84620814Y-99790609D01*
X84489711Y-99878210D01*
X84489707Y-99878213D01*
X84378213Y-99989707D01*
X84378210Y-99989711D01*
X84290609Y-100120814D01*
X84290602Y-100120827D01*
X84230264Y-100266498D01*
X84230261Y-100266510D01*
X84199500Y-100421153D01*
X84199500Y-100578846D01*
X84230261Y-100733489D01*
X84230264Y-100733501D01*
X84290602Y-100879172D01*
X84290609Y-100879185D01*
X84378210Y-101010288D01*
X84378213Y-101010292D01*
X84489707Y-101121786D01*
X84489711Y-101121789D01*
X84620814Y-101209390D01*
X84620827Y-101209397D01*
X84766498Y-101269735D01*
X84766503Y-101269737D01*
X84921153Y-101300499D01*
X84921156Y-101300500D01*
X84921158Y-101300500D01*
X85078844Y-101300500D01*
X85078845Y-101300499D01*
X85233497Y-101269737D01*
X85379179Y-101209394D01*
X85510289Y-101121789D01*
X85621789Y-101010289D01*
X85700013Y-100893219D01*
X85753625Y-100848413D01*
X85822950Y-100839706D01*
X85885977Y-100869860D01*
X85903433Y-100889223D01*
X85904818Y-100891129D01*
X86023289Y-101054190D01*
X86165810Y-101196711D01*
X86328871Y-101315182D01*
X86396885Y-101349836D01*
X86455131Y-101379515D01*
X86505927Y-101427490D01*
X86522722Y-101495311D01*
X86500184Y-101561446D01*
X86455131Y-101600485D01*
X86328870Y-101664818D01*
X86235838Y-101732410D01*
X86165810Y-101783289D01*
X86165808Y-101783291D01*
X86165807Y-101783291D01*
X86023291Y-101925807D01*
X86023291Y-101925808D01*
X86023289Y-101925810D01*
X85972410Y-101995838D01*
X85904818Y-102088870D01*
X85813312Y-102268460D01*
X85751030Y-102460147D01*
X85719500Y-102659216D01*
X85719500Y-102860783D01*
X85751030Y-103059852D01*
X85813312Y-103251539D01*
X85858236Y-103339707D01*
X85904818Y-103431129D01*
X86023289Y-103594190D01*
X86165810Y-103736711D01*
X86328871Y-103855182D01*
X86374066Y-103878210D01*
X86455131Y-103919515D01*
X86505927Y-103967490D01*
X86522722Y-104035311D01*
X86500184Y-104101446D01*
X86455131Y-104140485D01*
X86328870Y-104204818D01*
X86289392Y-104233501D01*
X86165810Y-104323289D01*
X86165808Y-104323291D01*
X86165807Y-104323291D01*
X86023291Y-104465807D01*
X86023291Y-104465808D01*
X86023289Y-104465810D01*
X86018945Y-104471789D01*
X85904818Y-104628870D01*
X85813312Y-104808460D01*
X85751030Y-105000147D01*
X85719500Y-105199216D01*
X85719500Y-105400783D01*
X85751030Y-105599852D01*
X85813312Y-105791539D01*
X85838279Y-105840539D01*
X85904818Y-105971129D01*
X86023289Y-106134190D01*
X86165810Y-106276711D01*
X86328871Y-106395182D01*
X86379842Y-106421153D01*
X86455131Y-106459515D01*
X86505927Y-106507490D01*
X86522722Y-106575311D01*
X86500184Y-106641446D01*
X86455131Y-106680485D01*
X86328870Y-106744818D01*
X86265855Y-106790602D01*
X86165810Y-106863289D01*
X86165808Y-106863291D01*
X86165807Y-106863291D01*
X86023291Y-107005807D01*
X86023291Y-107005808D01*
X86023289Y-107005810D01*
X86020036Y-107010288D01*
X85904818Y-107168870D01*
X85813312Y-107348460D01*
X85751030Y-107540147D01*
X85719500Y-107739216D01*
X85719500Y-107940783D01*
X85751030Y-108139852D01*
X85813312Y-108331539D01*
X85813314Y-108331542D01*
X85904818Y-108511129D01*
X86023289Y-108674190D01*
X86165810Y-108816711D01*
X86328871Y-108935182D01*
X86396885Y-108969836D01*
X86455131Y-108999515D01*
X86505927Y-109047490D01*
X86522722Y-109115311D01*
X86500184Y-109181446D01*
X86455131Y-109220485D01*
X86328870Y-109284818D01*
X86235838Y-109352410D01*
X86165810Y-109403289D01*
X86165808Y-109403291D01*
X86165807Y-109403291D01*
X86023291Y-109545807D01*
X86023291Y-109545808D01*
X86023289Y-109545810D01*
X85972410Y-109615838D01*
X85904818Y-109708870D01*
X85813312Y-109888460D01*
X85751030Y-110080147D01*
X85719500Y-110279216D01*
X85719500Y-110480783D01*
X85751030Y-110679852D01*
X85778596Y-110764692D01*
X85780591Y-110834533D01*
X85744511Y-110894366D01*
X85681810Y-110925194D01*
X85613214Y-110917572D01*
X85607882Y-110915363D01*
X85583497Y-110905263D01*
X85583493Y-110905262D01*
X85583489Y-110905261D01*
X85428845Y-110874500D01*
X85428842Y-110874500D01*
X85271158Y-110874500D01*
X85271155Y-110874500D01*
X85116510Y-110905261D01*
X85116498Y-110905264D01*
X84970827Y-110965602D01*
X84970814Y-110965609D01*
X84839711Y-111053210D01*
X84839707Y-111053213D01*
X84728213Y-111164707D01*
X84728210Y-111164711D01*
X84640609Y-111295814D01*
X84640602Y-111295827D01*
X84580264Y-111441498D01*
X84580261Y-111441510D01*
X84549500Y-111596153D01*
X84549500Y-111753846D01*
X84580261Y-111908489D01*
X84580264Y-111908501D01*
X84640602Y-112054172D01*
X84640609Y-112054185D01*
X84728210Y-112185288D01*
X84728213Y-112185292D01*
X84839707Y-112296786D01*
X84839711Y-112296789D01*
X84970814Y-112384390D01*
X84970827Y-112384397D01*
X85116498Y-112444735D01*
X85116503Y-112444737D01*
X85271153Y-112475499D01*
X85271156Y-112475500D01*
X85271158Y-112475500D01*
X85428844Y-112475500D01*
X85428845Y-112475499D01*
X85583497Y-112444737D01*
X85594439Y-112440204D01*
X85663906Y-112432735D01*
X85726386Y-112464008D01*
X85762039Y-112524096D01*
X85759824Y-112593080D01*
X85751030Y-112620147D01*
X85719500Y-112819216D01*
X85719500Y-113020783D01*
X85751030Y-113219852D01*
X85813312Y-113411539D01*
X85813314Y-113411542D01*
X85904818Y-113591129D01*
X86023289Y-113754190D01*
X86165810Y-113896711D01*
X86328871Y-114015182D01*
X86396885Y-114049836D01*
X86455131Y-114079515D01*
X86505927Y-114127490D01*
X86522722Y-114195311D01*
X86500184Y-114261446D01*
X86455131Y-114300485D01*
X86328870Y-114364818D01*
X86235838Y-114432410D01*
X86165810Y-114483289D01*
X86165808Y-114483291D01*
X86165807Y-114483291D01*
X86023291Y-114625807D01*
X86023291Y-114625808D01*
X86023289Y-114625810D01*
X85972410Y-114695838D01*
X85904818Y-114788870D01*
X85813312Y-114968460D01*
X85751030Y-115160147D01*
X85719500Y-115359216D01*
X85719500Y-115560783D01*
X85751030Y-115759852D01*
X85813312Y-115951539D01*
X85813314Y-115951542D01*
X85904818Y-116131129D01*
X86023289Y-116294190D01*
X86165810Y-116436711D01*
X86328871Y-116555182D01*
X86396885Y-116589836D01*
X86455131Y-116619515D01*
X86505927Y-116667490D01*
X86522722Y-116735311D01*
X86500184Y-116801446D01*
X86455131Y-116840485D01*
X86328870Y-116904818D01*
X86235838Y-116972410D01*
X86165810Y-117023289D01*
X86165808Y-117023291D01*
X86165807Y-117023291D01*
X86023291Y-117165807D01*
X86023291Y-117165808D01*
X86023289Y-117165810D01*
X85991621Y-117209397D01*
X85904818Y-117328870D01*
X85813312Y-117508460D01*
X85751030Y-117700147D01*
X85719500Y-117899216D01*
X85719500Y-118100783D01*
X85751030Y-118299852D01*
X85813312Y-118491539D01*
X85813314Y-118491542D01*
X85904818Y-118671129D01*
X86023289Y-118834190D01*
X86165810Y-118976711D01*
X86328871Y-119095182D01*
X86396885Y-119129836D01*
X86455131Y-119159515D01*
X86505927Y-119207490D01*
X86522722Y-119275311D01*
X86500184Y-119341446D01*
X86455131Y-119380485D01*
X86328870Y-119444818D01*
X86235838Y-119512410D01*
X86165810Y-119563289D01*
X86165808Y-119563291D01*
X86165807Y-119563291D01*
X86023291Y-119705807D01*
X86023291Y-119705808D01*
X86023289Y-119705810D01*
X85972410Y-119775838D01*
X85904818Y-119868870D01*
X85813312Y-120048460D01*
X85751030Y-120240147D01*
X85719500Y-120439216D01*
X85719500Y-120640783D01*
X85751030Y-120839852D01*
X85813312Y-121031539D01*
X85813314Y-121031542D01*
X85904818Y-121211129D01*
X86023289Y-121374190D01*
X86165810Y-121516711D01*
X86328871Y-121635182D01*
X86396885Y-121669836D01*
X86455131Y-121699515D01*
X86505927Y-121747490D01*
X86522722Y-121815311D01*
X86500184Y-121881446D01*
X86455131Y-121920485D01*
X86328870Y-121984818D01*
X86261196Y-122033987D01*
X86165810Y-122103289D01*
X86165808Y-122103291D01*
X86165807Y-122103291D01*
X86023291Y-122245807D01*
X86023291Y-122245808D01*
X86023289Y-122245810D01*
X85972410Y-122315838D01*
X85904818Y-122408870D01*
X85813312Y-122588460D01*
X85751030Y-122780147D01*
X85719500Y-122979216D01*
X85719500Y-123180783D01*
X85751030Y-123379852D01*
X85813312Y-123571539D01*
X85813314Y-123571542D01*
X85904818Y-123751129D01*
X86023289Y-123914190D01*
X86165810Y-124056711D01*
X86328871Y-124175182D01*
X86337923Y-124179794D01*
X86455131Y-124239515D01*
X86505927Y-124287490D01*
X86522722Y-124355311D01*
X86500184Y-124421446D01*
X86455131Y-124460485D01*
X86328870Y-124524818D01*
X86235838Y-124592410D01*
X86165810Y-124643289D01*
X86165808Y-124643291D01*
X86165807Y-124643291D01*
X86023291Y-124785807D01*
X86023291Y-124785808D01*
X86023289Y-124785810D01*
X85972410Y-124855838D01*
X85904818Y-124948870D01*
X85813312Y-125128460D01*
X85751030Y-125320147D01*
X85719500Y-125519216D01*
X85719500Y-125720783D01*
X85751030Y-125919852D01*
X85813312Y-126111539D01*
X85880016Y-126242452D01*
X85904818Y-126291129D01*
X86023289Y-126454190D01*
X86165810Y-126596711D01*
X86328871Y-126715182D01*
X86455682Y-126779795D01*
X86506478Y-126827769D01*
X86523273Y-126895590D01*
X86500736Y-126961725D01*
X86455683Y-127000764D01*
X86329140Y-127065242D01*
X86329133Y-127065246D01*
X86288396Y-127094842D01*
X86288396Y-127094843D01*
X86854260Y-127660707D01*
X86799288Y-127675437D01*
X86680713Y-127743896D01*
X86583896Y-127840713D01*
X86515437Y-127959288D01*
X86500707Y-128014260D01*
X85934843Y-127448396D01*
X85934842Y-127448396D01*
X85905246Y-127489133D01*
X85905245Y-127489135D01*
X85813776Y-127668650D01*
X85813775Y-127668653D01*
X85751518Y-127860264D01*
X85720000Y-128059262D01*
X85720000Y-128260737D01*
X85751518Y-128459735D01*
X85813775Y-128651346D01*
X85813781Y-128651359D01*
X85899304Y-128819205D01*
X85912201Y-128887874D01*
X85885925Y-128952614D01*
X85828819Y-128992872D01*
X85788820Y-128999500D01*
X85434108Y-128999500D01*
X85306812Y-129033608D01*
X85192686Y-129099500D01*
X85192683Y-129099502D01*
X85099502Y-129192683D01*
X85099500Y-129192686D01*
X85033608Y-129306812D01*
X85006605Y-129407593D01*
X84970240Y-129467254D01*
X84907393Y-129497783D01*
X84886830Y-129499500D01*
X60124500Y-129499500D01*
X60057461Y-129479815D01*
X60011706Y-129427011D01*
X60000500Y-129375500D01*
X60000500Y-124878711D01*
X62079500Y-124878711D01*
X62079500Y-125121288D01*
X62111161Y-125361785D01*
X62173947Y-125596104D01*
X62258611Y-125800500D01*
X62266776Y-125820212D01*
X62388064Y-126030289D01*
X62388066Y-126030292D01*
X62388067Y-126030293D01*
X62535733Y-126222736D01*
X62535739Y-126222743D01*
X62707256Y-126394260D01*
X62707263Y-126394266D01*
X62793305Y-126460288D01*
X62899711Y-126541936D01*
X63109788Y-126663224D01*
X63333900Y-126756054D01*
X63568211Y-126818838D01*
X63743539Y-126841920D01*
X63808711Y-126850500D01*
X63808712Y-126850500D01*
X64051289Y-126850500D01*
X64099388Y-126844167D01*
X64291789Y-126818838D01*
X64526100Y-126756054D01*
X64750212Y-126663224D01*
X64960289Y-126541936D01*
X65152738Y-126394265D01*
X65324265Y-126222738D01*
X65471936Y-126030289D01*
X65593224Y-125820212D01*
X65686054Y-125596100D01*
X65748838Y-125361789D01*
X65780500Y-125121288D01*
X65780500Y-125046153D01*
X79649500Y-125046153D01*
X79649500Y-125203846D01*
X79680261Y-125358489D01*
X79680264Y-125358501D01*
X79740602Y-125504172D01*
X79740609Y-125504185D01*
X79828210Y-125635288D01*
X79828213Y-125635292D01*
X79939707Y-125746786D01*
X79939711Y-125746789D01*
X80070814Y-125834390D01*
X80070827Y-125834397D01*
X80216498Y-125894735D01*
X80216503Y-125894737D01*
X80342759Y-125919851D01*
X80371153Y-125925499D01*
X80371156Y-125925500D01*
X80371158Y-125925500D01*
X80528844Y-125925500D01*
X80528845Y-125925499D01*
X80683497Y-125894737D01*
X80740434Y-125871153D01*
X82474500Y-125871153D01*
X82474500Y-126028846D01*
X82505261Y-126183489D01*
X82505264Y-126183501D01*
X82565602Y-126329172D01*
X82565609Y-126329185D01*
X82653210Y-126460288D01*
X82653213Y-126460292D01*
X82764707Y-126571786D01*
X82764711Y-126571789D01*
X82895814Y-126659390D01*
X82895827Y-126659397D01*
X83041498Y-126719735D01*
X83041503Y-126719737D01*
X83132578Y-126737853D01*
X83196153Y-126750499D01*
X83196156Y-126750500D01*
X83196158Y-126750500D01*
X83353844Y-126750500D01*
X83353845Y-126750499D01*
X83508497Y-126719737D01*
X83632806Y-126668247D01*
X83654172Y-126659397D01*
X83654172Y-126659396D01*
X83654179Y-126659394D01*
X83785289Y-126571789D01*
X83896789Y-126460289D01*
X83984394Y-126329179D01*
X84044737Y-126183497D01*
X84075500Y-126028842D01*
X84075500Y-125871158D01*
X84075500Y-125871155D01*
X84075499Y-125871153D01*
X84068186Y-125834390D01*
X84044737Y-125716503D01*
X84011099Y-125635292D01*
X83984397Y-125570827D01*
X83984390Y-125570814D01*
X83896789Y-125439711D01*
X83896786Y-125439707D01*
X83785292Y-125328213D01*
X83785288Y-125328210D01*
X83654185Y-125240609D01*
X83654172Y-125240602D01*
X83508501Y-125180264D01*
X83508489Y-125180261D01*
X83353845Y-125149500D01*
X83353842Y-125149500D01*
X83196158Y-125149500D01*
X83196155Y-125149500D01*
X83041510Y-125180261D01*
X83041498Y-125180264D01*
X82895827Y-125240602D01*
X82895814Y-125240609D01*
X82764711Y-125328210D01*
X82764707Y-125328213D01*
X82653213Y-125439707D01*
X82653210Y-125439711D01*
X82565609Y-125570814D01*
X82565602Y-125570827D01*
X82505264Y-125716498D01*
X82505261Y-125716510D01*
X82474500Y-125871153D01*
X80740434Y-125871153D01*
X80829179Y-125834394D01*
X80960289Y-125746789D01*
X81071789Y-125635289D01*
X81159394Y-125504179D01*
X81219737Y-125358497D01*
X81250500Y-125203842D01*
X81250500Y-125046158D01*
X81250500Y-125046155D01*
X81250499Y-125046153D01*
X81231148Y-124948870D01*
X81219737Y-124891503D01*
X81214439Y-124878712D01*
X81159397Y-124745827D01*
X81159390Y-124745814D01*
X81071789Y-124614711D01*
X81071786Y-124614707D01*
X80960292Y-124503213D01*
X80960288Y-124503210D01*
X80829185Y-124415609D01*
X80829172Y-124415602D01*
X80683501Y-124355264D01*
X80683489Y-124355261D01*
X80528845Y-124324500D01*
X80528842Y-124324500D01*
X80371158Y-124324500D01*
X80371155Y-124324500D01*
X80216510Y-124355261D01*
X80216498Y-124355264D01*
X80070827Y-124415602D01*
X80070814Y-124415609D01*
X79939711Y-124503210D01*
X79939707Y-124503213D01*
X79828213Y-124614707D01*
X79828210Y-124614711D01*
X79740609Y-124745814D01*
X79740602Y-124745827D01*
X79680264Y-124891498D01*
X79680261Y-124891510D01*
X79649500Y-125046153D01*
X65780500Y-125046153D01*
X65780500Y-124878712D01*
X65748838Y-124638211D01*
X65686054Y-124403900D01*
X65593224Y-124179788D01*
X65471936Y-123969711D01*
X65324265Y-123777262D01*
X65324260Y-123777256D01*
X65152743Y-123605739D01*
X65152736Y-123605733D01*
X64960293Y-123458067D01*
X64960292Y-123458066D01*
X64960289Y-123458064D01*
X64750212Y-123336776D01*
X64636749Y-123289778D01*
X64526104Y-123243947D01*
X64291785Y-123181161D01*
X64051289Y-123149500D01*
X64051288Y-123149500D01*
X63808712Y-123149500D01*
X63808711Y-123149500D01*
X63568214Y-123181161D01*
X63333895Y-123243947D01*
X63109794Y-123336773D01*
X63109785Y-123336777D01*
X62899706Y-123458067D01*
X62707263Y-123605733D01*
X62707256Y-123605739D01*
X62535739Y-123777256D01*
X62535733Y-123777263D01*
X62388067Y-123969706D01*
X62266777Y-124179785D01*
X62266773Y-124179794D01*
X62173947Y-124403895D01*
X62111161Y-124638214D01*
X62079500Y-124878711D01*
X60000500Y-124878711D01*
X60000500Y-116421153D01*
X76899500Y-116421153D01*
X76899500Y-116578846D01*
X76930261Y-116733489D01*
X76930264Y-116733501D01*
X76990602Y-116879172D01*
X76990609Y-116879185D01*
X77078210Y-117010288D01*
X77078213Y-117010292D01*
X77189707Y-117121786D01*
X77189711Y-117121789D01*
X77320814Y-117209390D01*
X77320827Y-117209397D01*
X77466498Y-117269735D01*
X77466503Y-117269737D01*
X77621153Y-117300499D01*
X77621156Y-117300500D01*
X77621158Y-117300500D01*
X77778844Y-117300500D01*
X77778845Y-117300499D01*
X77933497Y-117269737D01*
X78079179Y-117209394D01*
X78210289Y-117121789D01*
X78321789Y-117010289D01*
X78409394Y-116879179D01*
X78469737Y-116733497D01*
X78500500Y-116578842D01*
X78500500Y-116421158D01*
X78500500Y-116421155D01*
X78500499Y-116421153D01*
X78469737Y-116266503D01*
X78413664Y-116131129D01*
X78409397Y-116120827D01*
X78409390Y-116120814D01*
X78321789Y-115989711D01*
X78321786Y-115989707D01*
X78210292Y-115878213D01*
X78210288Y-115878210D01*
X78079185Y-115790609D01*
X78079172Y-115790602D01*
X77933501Y-115730264D01*
X77933489Y-115730261D01*
X77778845Y-115699500D01*
X77778842Y-115699500D01*
X77621158Y-115699500D01*
X77621155Y-115699500D01*
X77466510Y-115730261D01*
X77466498Y-115730264D01*
X77320827Y-115790602D01*
X77320814Y-115790609D01*
X77189711Y-115878210D01*
X77189707Y-115878213D01*
X77078213Y-115989707D01*
X77078210Y-115989711D01*
X76990609Y-116120814D01*
X76990602Y-116120827D01*
X76930264Y-116266498D01*
X76930261Y-116266510D01*
X76899500Y-116421153D01*
X60000500Y-116421153D01*
X60000500Y-111421153D01*
X76899500Y-111421153D01*
X76899500Y-111578846D01*
X76930261Y-111733489D01*
X76930264Y-111733501D01*
X76990602Y-111879172D01*
X76990609Y-111879185D01*
X77078210Y-112010288D01*
X77078213Y-112010292D01*
X77189707Y-112121786D01*
X77189711Y-112121789D01*
X77320814Y-112209390D01*
X77320827Y-112209397D01*
X77466498Y-112269735D01*
X77466503Y-112269737D01*
X77602487Y-112296786D01*
X77621153Y-112300499D01*
X77621156Y-112300500D01*
X77621158Y-112300500D01*
X77778844Y-112300500D01*
X77778845Y-112300499D01*
X77933497Y-112269737D01*
X78079179Y-112209394D01*
X78210289Y-112121789D01*
X78321789Y-112010289D01*
X78409394Y-111879179D01*
X78469737Y-111733497D01*
X78500500Y-111578842D01*
X78500500Y-111421158D01*
X78500500Y-111421155D01*
X78500499Y-111421153D01*
X78469737Y-111266503D01*
X78448069Y-111214191D01*
X78409397Y-111120827D01*
X78409390Y-111120814D01*
X78321789Y-110989711D01*
X78321786Y-110989707D01*
X78210292Y-110878213D01*
X78210288Y-110878210D01*
X78079185Y-110790609D01*
X78079172Y-110790602D01*
X77933501Y-110730264D01*
X77933489Y-110730261D01*
X77778845Y-110699500D01*
X77778842Y-110699500D01*
X77621158Y-110699500D01*
X77621155Y-110699500D01*
X77466510Y-110730261D01*
X77466498Y-110730264D01*
X77320827Y-110790602D01*
X77320814Y-110790609D01*
X77189711Y-110878210D01*
X77189707Y-110878213D01*
X77078213Y-110989707D01*
X77078210Y-110989711D01*
X76990609Y-111120814D01*
X76990602Y-111120827D01*
X76930264Y-111266498D01*
X76930261Y-111266510D01*
X76899500Y-111421153D01*
X60000500Y-111421153D01*
X60000500Y-106421153D01*
X76899500Y-106421153D01*
X76899500Y-106578846D01*
X76930261Y-106733489D01*
X76930264Y-106733501D01*
X76990602Y-106879172D01*
X76990609Y-106879185D01*
X77078210Y-107010288D01*
X77078213Y-107010292D01*
X77189707Y-107121786D01*
X77189711Y-107121789D01*
X77320814Y-107209390D01*
X77320827Y-107209397D01*
X77458683Y-107266498D01*
X77466503Y-107269737D01*
X77621153Y-107300499D01*
X77621156Y-107300500D01*
X77621158Y-107300500D01*
X77778844Y-107300500D01*
X77778845Y-107300499D01*
X77933497Y-107269737D01*
X78079179Y-107209394D01*
X78210289Y-107121789D01*
X78321789Y-107010289D01*
X78409394Y-106879179D01*
X78469737Y-106733497D01*
X78500500Y-106578842D01*
X78500500Y-106421158D01*
X78500500Y-106421155D01*
X78500499Y-106421153D01*
X78469737Y-106266503D01*
X78440313Y-106195466D01*
X78409397Y-106120827D01*
X78409390Y-106120814D01*
X78321789Y-105989711D01*
X78321786Y-105989707D01*
X78210292Y-105878213D01*
X78210288Y-105878210D01*
X78079185Y-105790609D01*
X78079172Y-105790602D01*
X77933501Y-105730264D01*
X77933489Y-105730261D01*
X77778845Y-105699500D01*
X77778842Y-105699500D01*
X77621158Y-105699500D01*
X77621155Y-105699500D01*
X77466510Y-105730261D01*
X77466498Y-105730264D01*
X77320827Y-105790602D01*
X77320814Y-105790609D01*
X77189711Y-105878210D01*
X77189707Y-105878213D01*
X77078213Y-105989707D01*
X77078210Y-105989711D01*
X76990609Y-106120814D01*
X76990602Y-106120827D01*
X76930264Y-106266498D01*
X76930261Y-106266510D01*
X76899500Y-106421153D01*
X60000500Y-106421153D01*
X60000500Y-103921153D01*
X82199500Y-103921153D01*
X82199500Y-104078846D01*
X82230261Y-104233489D01*
X82230264Y-104233501D01*
X82290602Y-104379172D01*
X82290609Y-104379185D01*
X82378210Y-104510288D01*
X82378213Y-104510292D01*
X82489707Y-104621786D01*
X82489711Y-104621789D01*
X82620814Y-104709390D01*
X82620827Y-104709397D01*
X82766498Y-104769735D01*
X82766503Y-104769737D01*
X82921153Y-104800499D01*
X82921156Y-104800500D01*
X82921158Y-104800500D01*
X83078844Y-104800500D01*
X83078845Y-104800499D01*
X83233497Y-104769737D01*
X83379179Y-104709394D01*
X83510289Y-104621789D01*
X83621789Y-104510289D01*
X83709394Y-104379179D01*
X83769737Y-104233497D01*
X83800500Y-104078842D01*
X83800500Y-103921158D01*
X83800500Y-103921155D01*
X83800499Y-103921153D01*
X83774531Y-103790606D01*
X83769737Y-103766503D01*
X83757396Y-103736708D01*
X83709397Y-103620827D01*
X83709390Y-103620814D01*
X83621789Y-103489711D01*
X83621786Y-103489707D01*
X83510292Y-103378213D01*
X83510288Y-103378210D01*
X83379185Y-103290609D01*
X83379172Y-103290602D01*
X83233501Y-103230264D01*
X83233489Y-103230261D01*
X83078845Y-103199500D01*
X83078842Y-103199500D01*
X82921158Y-103199500D01*
X82921155Y-103199500D01*
X82766510Y-103230261D01*
X82766498Y-103230264D01*
X82620827Y-103290602D01*
X82620814Y-103290609D01*
X82489711Y-103378210D01*
X82489707Y-103378213D01*
X82378213Y-103489707D01*
X82378210Y-103489711D01*
X82290609Y-103620814D01*
X82290602Y-103620827D01*
X82230264Y-103766498D01*
X82230261Y-103766510D01*
X82199500Y-103921153D01*
X60000500Y-103921153D01*
X60000500Y-81921153D01*
X82199500Y-81921153D01*
X82199500Y-82078846D01*
X82230261Y-82233489D01*
X82230264Y-82233501D01*
X82290602Y-82379172D01*
X82290609Y-82379185D01*
X82378210Y-82510288D01*
X82378213Y-82510292D01*
X82489707Y-82621786D01*
X82489711Y-82621789D01*
X82620814Y-82709390D01*
X82620827Y-82709397D01*
X82766498Y-82769735D01*
X82766503Y-82769737D01*
X82921153Y-82800499D01*
X82921156Y-82800500D01*
X82921158Y-82800500D01*
X83078844Y-82800500D01*
X83078845Y-82800499D01*
X83233497Y-82769737D01*
X83379179Y-82709394D01*
X83431110Y-82674694D01*
X83497785Y-82653816D01*
X83565165Y-82672300D01*
X83568863Y-82674676D01*
X83620821Y-82709394D01*
X83620823Y-82709395D01*
X83620825Y-82709396D01*
X83766498Y-82769735D01*
X83766503Y-82769737D01*
X83921153Y-82800499D01*
X83921156Y-82800500D01*
X83921158Y-82800500D01*
X84078844Y-82800500D01*
X84078845Y-82800499D01*
X84233497Y-82769737D01*
X84379179Y-82709394D01*
X84510289Y-82621789D01*
X84621789Y-82510289D01*
X84709394Y-82379179D01*
X84769737Y-82233497D01*
X84800500Y-82078842D01*
X84800500Y-81921158D01*
X84800500Y-81921155D01*
X84800499Y-81921153D01*
X84770208Y-81768871D01*
X84769737Y-81766503D01*
X84769735Y-81766498D01*
X84709397Y-81620827D01*
X84709390Y-81620814D01*
X84621789Y-81489711D01*
X84621786Y-81489707D01*
X84510292Y-81378213D01*
X84510288Y-81378210D01*
X84379185Y-81290609D01*
X84379172Y-81290602D01*
X84233501Y-81230264D01*
X84233489Y-81230261D01*
X84078845Y-81199500D01*
X84078842Y-81199500D01*
X83921158Y-81199500D01*
X83921155Y-81199500D01*
X83766510Y-81230261D01*
X83766498Y-81230264D01*
X83620827Y-81290602D01*
X83620814Y-81290609D01*
X83568891Y-81325304D01*
X83502214Y-81346182D01*
X83434833Y-81327698D01*
X83431109Y-81325304D01*
X83379185Y-81290609D01*
X83379172Y-81290602D01*
X83233501Y-81230264D01*
X83233489Y-81230261D01*
X83078845Y-81199500D01*
X83078842Y-81199500D01*
X82921158Y-81199500D01*
X82921155Y-81199500D01*
X82766510Y-81230261D01*
X82766498Y-81230264D01*
X82620827Y-81290602D01*
X82620814Y-81290609D01*
X82489711Y-81378210D01*
X82489707Y-81378213D01*
X82378213Y-81489707D01*
X82378210Y-81489711D01*
X82290609Y-81620814D01*
X82290602Y-81620827D01*
X82230264Y-81766498D01*
X82230261Y-81766510D01*
X82199500Y-81921153D01*
X60000500Y-81921153D01*
X60000500Y-65763713D01*
X79329500Y-65763713D01*
X79329500Y-65976286D01*
X79362753Y-66186239D01*
X79428444Y-66388414D01*
X79524951Y-66577820D01*
X79649890Y-66749786D01*
X79800213Y-66900109D01*
X79972182Y-67025050D01*
X79980946Y-67029516D01*
X80031742Y-67077491D01*
X80048536Y-67145312D01*
X80025998Y-67211447D01*
X79980946Y-67250484D01*
X79972182Y-67254949D01*
X79800213Y-67379890D01*
X79649890Y-67530213D01*
X79524951Y-67702179D01*
X79428444Y-67891585D01*
X79362753Y-68093760D01*
X79329500Y-68303713D01*
X79329500Y-68516286D01*
X79346109Y-68621155D01*
X79362754Y-68726243D01*
X79412132Y-68878213D01*
X79428444Y-68928414D01*
X79524951Y-69117820D01*
X79649890Y-69289786D01*
X79800213Y-69440109D01*
X79972182Y-69565050D01*
X79980946Y-69569516D01*
X80031742Y-69617491D01*
X80048536Y-69685312D01*
X80025998Y-69751447D01*
X79980946Y-69790484D01*
X79972182Y-69794949D01*
X79800213Y-69919890D01*
X79649890Y-70070213D01*
X79524951Y-70242179D01*
X79428444Y-70431585D01*
X79362753Y-70633760D01*
X79329500Y-70843713D01*
X79329500Y-71056286D01*
X79362753Y-71266239D01*
X79428444Y-71468414D01*
X79524951Y-71657820D01*
X79649890Y-71829786D01*
X79800213Y-71980109D01*
X79972179Y-72105048D01*
X79972181Y-72105049D01*
X79972184Y-72105051D01*
X79981493Y-72109794D01*
X80032290Y-72157766D01*
X80049087Y-72225587D01*
X80026552Y-72291722D01*
X79981505Y-72330760D01*
X79972446Y-72335376D01*
X79972440Y-72335380D01*
X79918282Y-72374727D01*
X79918282Y-72374728D01*
X80550591Y-73007037D01*
X80487007Y-73024075D01*
X80372993Y-73089901D01*
X80279901Y-73182993D01*
X80214075Y-73297007D01*
X80197037Y-73360591D01*
X79564728Y-72728282D01*
X79564727Y-72728282D01*
X79525380Y-72782439D01*
X79428904Y-72971782D01*
X79363242Y-73173869D01*
X79363242Y-73173872D01*
X79330000Y-73383753D01*
X79330000Y-73596246D01*
X79363242Y-73806127D01*
X79363242Y-73806130D01*
X79428904Y-74008217D01*
X79525375Y-74197550D01*
X79564728Y-74251716D01*
X80197037Y-73619408D01*
X80214075Y-73682993D01*
X80279901Y-73797007D01*
X80372993Y-73890099D01*
X80487007Y-73955925D01*
X80550590Y-73972962D01*
X79918282Y-74605269D01*
X79918282Y-74605270D01*
X79972452Y-74644626D01*
X79972451Y-74644626D01*
X79981495Y-74649234D01*
X80032292Y-74697208D01*
X80049087Y-74765029D01*
X80026550Y-74831164D01*
X79981499Y-74870202D01*
X79972182Y-74874949D01*
X79800213Y-74999890D01*
X79649890Y-75150213D01*
X79524951Y-75322179D01*
X79428444Y-75511585D01*
X79362753Y-75713760D01*
X79333974Y-75895465D01*
X79329500Y-75923713D01*
X79329500Y-76136287D01*
X79362754Y-76346243D01*
X79409368Y-76489707D01*
X79428444Y-76548414D01*
X79524951Y-76737820D01*
X79649890Y-76909786D01*
X79763430Y-77023326D01*
X79796915Y-77084649D01*
X79791931Y-77154341D01*
X79750059Y-77210274D01*
X79719083Y-77227189D01*
X79587669Y-77276203D01*
X79587664Y-77276206D01*
X79472455Y-77362452D01*
X79472452Y-77362455D01*
X79386206Y-77477664D01*
X79386202Y-77477671D01*
X79335908Y-77612517D01*
X79329501Y-77672116D01*
X79329501Y-77672123D01*
X79329500Y-77672135D01*
X79329500Y-79467870D01*
X79329501Y-79467876D01*
X79335908Y-79527483D01*
X79386202Y-79662328D01*
X79386206Y-79662335D01*
X79472452Y-79777544D01*
X79472455Y-79777547D01*
X79587664Y-79863793D01*
X79587671Y-79863797D01*
X79722517Y-79914091D01*
X79722516Y-79914091D01*
X79729444Y-79914835D01*
X79782127Y-79920500D01*
X81577872Y-79920499D01*
X81637483Y-79914091D01*
X81772331Y-79863796D01*
X81887546Y-79777546D01*
X81973796Y-79662331D01*
X81979220Y-79647786D01*
X82021088Y-79591853D01*
X82086551Y-79567433D01*
X82154825Y-79582282D01*
X82204232Y-79631685D01*
X82217020Y-79666925D01*
X82230261Y-79733491D01*
X82230264Y-79733501D01*
X82290602Y-79879172D01*
X82290609Y-79879185D01*
X82378210Y-80010288D01*
X82378213Y-80010292D01*
X82489707Y-80121786D01*
X82489711Y-80121789D01*
X82620814Y-80209390D01*
X82620827Y-80209397D01*
X82766498Y-80269735D01*
X82766503Y-80269737D01*
X82921153Y-80300499D01*
X82921156Y-80300500D01*
X82921158Y-80300500D01*
X83078844Y-80300500D01*
X83078845Y-80300499D01*
X83233497Y-80269737D01*
X83379179Y-80209394D01*
X83510289Y-80121789D01*
X83621789Y-80010289D01*
X83709394Y-79879179D01*
X83769737Y-79733497D01*
X83800500Y-79578842D01*
X83800500Y-79421158D01*
X83800500Y-79421155D01*
X83800499Y-79421153D01*
X83769738Y-79266510D01*
X83769737Y-79266503D01*
X83755455Y-79232023D01*
X83709397Y-79120827D01*
X83709390Y-79120814D01*
X83621789Y-78989711D01*
X83621786Y-78989707D01*
X83510292Y-78878213D01*
X83510288Y-78878210D01*
X83379185Y-78790609D01*
X83379172Y-78790602D01*
X83233501Y-78730264D01*
X83233489Y-78730261D01*
X83078845Y-78699500D01*
X83078842Y-78699500D01*
X82921158Y-78699500D01*
X82921155Y-78699500D01*
X82766510Y-78730261D01*
X82766498Y-78730264D01*
X82620827Y-78790602D01*
X82620814Y-78790609D01*
X82489711Y-78878210D01*
X82489707Y-78878213D01*
X82378213Y-78989707D01*
X82378210Y-78989711D01*
X82290609Y-79120814D01*
X82290601Y-79120829D01*
X82269059Y-79172836D01*
X82225218Y-79227239D01*
X82158923Y-79249303D01*
X82091224Y-79232023D01*
X82043614Y-79180885D01*
X82030499Y-79125385D01*
X82030499Y-77851153D01*
X130089500Y-77851153D01*
X130089500Y-78008846D01*
X130120261Y-78163489D01*
X130120264Y-78163501D01*
X130180602Y-78309172D01*
X130180609Y-78309185D01*
X130268210Y-78440288D01*
X130268213Y-78440292D01*
X130379707Y-78551786D01*
X130379711Y-78551789D01*
X130510814Y-78639390D01*
X130510827Y-78639397D01*
X130655931Y-78699500D01*
X130656503Y-78699737D01*
X130809967Y-78730263D01*
X130811153Y-78730499D01*
X130811156Y-78730500D01*
X130811158Y-78730500D01*
X130968844Y-78730500D01*
X130968845Y-78730499D01*
X131123497Y-78699737D01*
X131269179Y-78639394D01*
X131400289Y-78551789D01*
X131511789Y-78440289D01*
X131599394Y-78309179D01*
X131659737Y-78163497D01*
X131690500Y-78008842D01*
X131690500Y-77851158D01*
X131690500Y-77851155D01*
X131690499Y-77851153D01*
X131666500Y-77730505D01*
X131659737Y-77696503D01*
X131628790Y-77621789D01*
X131599397Y-77550827D01*
X131599390Y-77550814D01*
X131511789Y-77419711D01*
X131511786Y-77419707D01*
X131400292Y-77308213D01*
X131400288Y-77308210D01*
X131269185Y-77220609D01*
X131269172Y-77220602D01*
X131123501Y-77160264D01*
X131123489Y-77160261D01*
X130968845Y-77129500D01*
X130968842Y-77129500D01*
X130811158Y-77129500D01*
X130811155Y-77129500D01*
X130656510Y-77160261D01*
X130656498Y-77160264D01*
X130510827Y-77220602D01*
X130510814Y-77220609D01*
X130379711Y-77308210D01*
X130379707Y-77308213D01*
X130268213Y-77419707D01*
X130268210Y-77419711D01*
X130180609Y-77550814D01*
X130180602Y-77550827D01*
X130120264Y-77696498D01*
X130120261Y-77696510D01*
X130089500Y-77851153D01*
X82030499Y-77851153D01*
X82030499Y-77672128D01*
X82024091Y-77612517D01*
X82001077Y-77550814D01*
X81973797Y-77477671D01*
X81973793Y-77477664D01*
X81887547Y-77362455D01*
X81887544Y-77362452D01*
X81772335Y-77276206D01*
X81772328Y-77276202D01*
X81640917Y-77227189D01*
X81584983Y-77185318D01*
X81560566Y-77119853D01*
X81575418Y-77051580D01*
X81596563Y-77023332D01*
X81698743Y-76921153D01*
X83199500Y-76921153D01*
X83199500Y-77078846D01*
X83230261Y-77233489D01*
X83230264Y-77233501D01*
X83290602Y-77379172D01*
X83290609Y-77379185D01*
X83378210Y-77510288D01*
X83378213Y-77510292D01*
X83489707Y-77621786D01*
X83489711Y-77621789D01*
X83620814Y-77709390D01*
X83620827Y-77709397D01*
X83766498Y-77769735D01*
X83766503Y-77769737D01*
X83921153Y-77800499D01*
X83921156Y-77800500D01*
X83921158Y-77800500D01*
X84078844Y-77800500D01*
X84078845Y-77800499D01*
X84233497Y-77769737D01*
X84280215Y-77750385D01*
X84328213Y-77730505D01*
X84379172Y-77709397D01*
X84379172Y-77709396D01*
X84379179Y-77709394D01*
X84510289Y-77621789D01*
X84621789Y-77510289D01*
X84709394Y-77379179D01*
X84716323Y-77362452D01*
X84769735Y-77233501D01*
X84769737Y-77233497D01*
X84800500Y-77078842D01*
X84800500Y-76921158D01*
X84800500Y-76921155D01*
X84800499Y-76921153D01*
X84796848Y-76902797D01*
X84769737Y-76766503D01*
X84741869Y-76699223D01*
X84709397Y-76620827D01*
X84709390Y-76620814D01*
X84621789Y-76489711D01*
X84621786Y-76489707D01*
X84510292Y-76378213D01*
X84510288Y-76378210D01*
X84379185Y-76290609D01*
X84379172Y-76290602D01*
X84233501Y-76230264D01*
X84233489Y-76230261D01*
X84078845Y-76199500D01*
X84078842Y-76199500D01*
X83921158Y-76199500D01*
X83921155Y-76199500D01*
X83766510Y-76230261D01*
X83766498Y-76230264D01*
X83620827Y-76290602D01*
X83620814Y-76290609D01*
X83489711Y-76378210D01*
X83489707Y-76378213D01*
X83378213Y-76489707D01*
X83378210Y-76489711D01*
X83290609Y-76620814D01*
X83290602Y-76620827D01*
X83230264Y-76766498D01*
X83230261Y-76766510D01*
X83199500Y-76921153D01*
X81698743Y-76921153D01*
X81710104Y-76909792D01*
X81835051Y-76737816D01*
X81931557Y-76548412D01*
X81997246Y-76346243D01*
X82030500Y-76136287D01*
X82030500Y-75923713D01*
X81997246Y-75713757D01*
X81960278Y-75599983D01*
X111199500Y-75599983D01*
X111199500Y-76800001D01*
X111199501Y-76800018D01*
X111210000Y-76902796D01*
X111210001Y-76902799D01*
X111265185Y-77069331D01*
X111265187Y-77069336D01*
X111271052Y-77078844D01*
X111357288Y-77218656D01*
X111481344Y-77342712D01*
X111630666Y-77434814D01*
X111797203Y-77489999D01*
X111899991Y-77500500D01*
X113100008Y-77500499D01*
X113202797Y-77489999D01*
X113369334Y-77434814D01*
X113518656Y-77342712D01*
X113587524Y-77273843D01*
X113648843Y-77240361D01*
X113718535Y-77245345D01*
X113748082Y-77261206D01*
X113818390Y-77312287D01*
X113904561Y-77356193D01*
X114000776Y-77405218D01*
X114000778Y-77405218D01*
X114000781Y-77405220D01*
X114045380Y-77419711D01*
X114195465Y-77468477D01*
X114296557Y-77484488D01*
X114397648Y-77500500D01*
X114397649Y-77500500D01*
X114602351Y-77500500D01*
X114602352Y-77500500D01*
X114804534Y-77468477D01*
X114999219Y-77405220D01*
X115181610Y-77312287D01*
X115274590Y-77244732D01*
X115347213Y-77191971D01*
X115347215Y-77191968D01*
X115347219Y-77191966D01*
X115491966Y-77047219D01*
X115491968Y-77047215D01*
X115491971Y-77047213D01*
X115544732Y-76974590D01*
X115612287Y-76881610D01*
X115705220Y-76699219D01*
X115768477Y-76504534D01*
X115800500Y-76302352D01*
X115800500Y-76097648D01*
X115772545Y-75921153D01*
X132199500Y-75921153D01*
X132199500Y-76078846D01*
X132230261Y-76233489D01*
X132230264Y-76233501D01*
X132290602Y-76379172D01*
X132290609Y-76379185D01*
X132378210Y-76510288D01*
X132378213Y-76510292D01*
X132489707Y-76621786D01*
X132489711Y-76621789D01*
X132620814Y-76709390D01*
X132620827Y-76709397D01*
X132758683Y-76766498D01*
X132766503Y-76769737D01*
X132918649Y-76800001D01*
X132921153Y-76800499D01*
X132921156Y-76800500D01*
X132921158Y-76800500D01*
X133078844Y-76800500D01*
X133078845Y-76800499D01*
X133233497Y-76769737D01*
X133379179Y-76709394D01*
X133510289Y-76621789D01*
X133621789Y-76510289D01*
X133709394Y-76379179D01*
X133769737Y-76233497D01*
X133800500Y-76078842D01*
X133800500Y-75921158D01*
X133800500Y-75921155D01*
X133800499Y-75921153D01*
X133769737Y-75766503D01*
X133747891Y-75713762D01*
X133709397Y-75620827D01*
X133709390Y-75620814D01*
X133621789Y-75489711D01*
X133621786Y-75489707D01*
X133510292Y-75378213D01*
X133510288Y-75378210D01*
X133379185Y-75290609D01*
X133379172Y-75290602D01*
X133233501Y-75230264D01*
X133233489Y-75230261D01*
X133078845Y-75199500D01*
X133078842Y-75199500D01*
X132921158Y-75199500D01*
X132921155Y-75199500D01*
X132766510Y-75230261D01*
X132766498Y-75230264D01*
X132620827Y-75290602D01*
X132620814Y-75290609D01*
X132489711Y-75378210D01*
X132489707Y-75378213D01*
X132378213Y-75489707D01*
X132378210Y-75489711D01*
X132290609Y-75620814D01*
X132290602Y-75620827D01*
X132230264Y-75766498D01*
X132230261Y-75766510D01*
X132199500Y-75921153D01*
X115772545Y-75921153D01*
X115768477Y-75895465D01*
X115726573Y-75766498D01*
X115705220Y-75700781D01*
X115705218Y-75700778D01*
X115705218Y-75700776D01*
X115653865Y-75599991D01*
X115612287Y-75518390D01*
X115591448Y-75489707D01*
X115491971Y-75352786D01*
X115347213Y-75208028D01*
X115181613Y-75087715D01*
X115181612Y-75087714D01*
X115181610Y-75087713D01*
X115121896Y-75057287D01*
X114999223Y-74994781D01*
X114804534Y-74931522D01*
X114629995Y-74903878D01*
X114602352Y-74899500D01*
X114397648Y-74899500D01*
X114373329Y-74903351D01*
X114195465Y-74931522D01*
X114000776Y-74994781D01*
X113818391Y-75087712D01*
X113818383Y-75087717D01*
X113748085Y-75138790D01*
X113682279Y-75162269D01*
X113614225Y-75146442D01*
X113587521Y-75126153D01*
X113518656Y-75057288D01*
X113425608Y-74999896D01*
X113369336Y-74965187D01*
X113369331Y-74965185D01*
X113367862Y-74964698D01*
X113202797Y-74910001D01*
X113202795Y-74910000D01*
X113100010Y-74899500D01*
X111899998Y-74899500D01*
X111899981Y-74899501D01*
X111797203Y-74910000D01*
X111797200Y-74910001D01*
X111630668Y-74965185D01*
X111630663Y-74965187D01*
X111481342Y-75057289D01*
X111357289Y-75181342D01*
X111265187Y-75330663D01*
X111265186Y-75330666D01*
X111210001Y-75497203D01*
X111210001Y-75497204D01*
X111210000Y-75497204D01*
X111199500Y-75599983D01*
X81960278Y-75599983D01*
X81931557Y-75511588D01*
X81835051Y-75322184D01*
X81835049Y-75322181D01*
X81835048Y-75322179D01*
X81710109Y-75150213D01*
X81559786Y-74999890D01*
X81387817Y-74874949D01*
X81378504Y-74870204D01*
X81327707Y-74822230D01*
X81310912Y-74754409D01*
X81333449Y-74688274D01*
X81378507Y-74649232D01*
X81387555Y-74644622D01*
X81441716Y-74605270D01*
X81441717Y-74605270D01*
X80809408Y-73972962D01*
X80872993Y-73955925D01*
X80987007Y-73890099D01*
X81080099Y-73797007D01*
X81145925Y-73682993D01*
X81162962Y-73619409D01*
X81795270Y-74251717D01*
X81795270Y-74251716D01*
X81834622Y-74197554D01*
X81931095Y-74008217D01*
X81959384Y-73921153D01*
X134699500Y-73921153D01*
X134699500Y-74078846D01*
X134730261Y-74233489D01*
X134730264Y-74233501D01*
X134790602Y-74379172D01*
X134790609Y-74379185D01*
X134878210Y-74510288D01*
X134878213Y-74510292D01*
X134989707Y-74621786D01*
X134989711Y-74621789D01*
X135120814Y-74709390D01*
X135120827Y-74709397D01*
X135255137Y-74765029D01*
X135266503Y-74769737D01*
X135421153Y-74800499D01*
X135421156Y-74800500D01*
X135421158Y-74800500D01*
X135578844Y-74800500D01*
X135578845Y-74800499D01*
X135733497Y-74769737D01*
X135879179Y-74709394D01*
X136010289Y-74621789D01*
X136121789Y-74510289D01*
X136209394Y-74379179D01*
X136269737Y-74233497D01*
X136300500Y-74078842D01*
X136300500Y-73921158D01*
X136300500Y-73921155D01*
X136300499Y-73921153D01*
X136291666Y-73876748D01*
X136269737Y-73766503D01*
X136269735Y-73766498D01*
X136209397Y-73620827D01*
X136209390Y-73620814D01*
X136121789Y-73489711D01*
X136121786Y-73489707D01*
X136010292Y-73378213D01*
X136010288Y-73378210D01*
X135879185Y-73290609D01*
X135879172Y-73290602D01*
X135733501Y-73230264D01*
X135733489Y-73230261D01*
X135578845Y-73199500D01*
X135578842Y-73199500D01*
X135421158Y-73199500D01*
X135421155Y-73199500D01*
X135266510Y-73230261D01*
X135266498Y-73230264D01*
X135120827Y-73290602D01*
X135120814Y-73290609D01*
X134989711Y-73378210D01*
X134989707Y-73378213D01*
X134878213Y-73489707D01*
X134878210Y-73489711D01*
X134790609Y-73620814D01*
X134790602Y-73620827D01*
X134730264Y-73766498D01*
X134730261Y-73766510D01*
X134699500Y-73921153D01*
X81959384Y-73921153D01*
X81973812Y-73876748D01*
X81996757Y-73806130D01*
X81996757Y-73806127D01*
X82030000Y-73596246D01*
X82030000Y-73383753D01*
X81996757Y-73173872D01*
X81996757Y-73173869D01*
X81931095Y-72971782D01*
X81834624Y-72782449D01*
X81795270Y-72728282D01*
X81795269Y-72728282D01*
X81162962Y-73360590D01*
X81145925Y-73297007D01*
X81080099Y-73182993D01*
X80987007Y-73089901D01*
X80872993Y-73024075D01*
X80809409Y-73007037D01*
X81395291Y-72421153D01*
X137699500Y-72421153D01*
X137699500Y-72578846D01*
X137730261Y-72733489D01*
X137730264Y-72733501D01*
X137790602Y-72879172D01*
X137790609Y-72879185D01*
X137878210Y-73010288D01*
X137878213Y-73010292D01*
X137989707Y-73121786D01*
X137989711Y-73121789D01*
X138120814Y-73209390D01*
X138120827Y-73209397D01*
X138266498Y-73269735D01*
X138266503Y-73269737D01*
X138403598Y-73297007D01*
X138421153Y-73300499D01*
X138421156Y-73300500D01*
X138421158Y-73300500D01*
X138578844Y-73300500D01*
X138578845Y-73300499D01*
X138733497Y-73269737D01*
X138879179Y-73209394D01*
X139010289Y-73121789D01*
X139121789Y-73010289D01*
X139209394Y-72879179D01*
X139269737Y-72733497D01*
X139300500Y-72578842D01*
X139300500Y-72421158D01*
X139300500Y-72421155D01*
X139300499Y-72421153D01*
X139291264Y-72374727D01*
X139269737Y-72266503D01*
X139224697Y-72157766D01*
X139209397Y-72120827D01*
X139209390Y-72120814D01*
X139121789Y-71989711D01*
X139121786Y-71989707D01*
X139010292Y-71878213D01*
X139010288Y-71878210D01*
X138879185Y-71790609D01*
X138879172Y-71790602D01*
X138733501Y-71730264D01*
X138733489Y-71730261D01*
X138578845Y-71699500D01*
X138578842Y-71699500D01*
X138421158Y-71699500D01*
X138421155Y-71699500D01*
X138266510Y-71730261D01*
X138266498Y-71730264D01*
X138120827Y-71790602D01*
X138120814Y-71790609D01*
X137989711Y-71878210D01*
X137989707Y-71878213D01*
X137878213Y-71989707D01*
X137878210Y-71989711D01*
X137790609Y-72120814D01*
X137790602Y-72120827D01*
X137730264Y-72266498D01*
X137730261Y-72266510D01*
X137699500Y-72421153D01*
X81395291Y-72421153D01*
X81411563Y-72404881D01*
X81332754Y-72290729D01*
X81331233Y-72286119D01*
X81327706Y-72282788D01*
X81320395Y-72253265D01*
X81310866Y-72224377D01*
X81312078Y-72219677D01*
X81310912Y-72214966D01*
X81320726Y-72186169D01*
X81328325Y-72156724D01*
X81331884Y-72153427D01*
X81333451Y-72148832D01*
X81378508Y-72109793D01*
X81387816Y-72105051D01*
X81467007Y-72047515D01*
X81559786Y-71980109D01*
X81559788Y-71980106D01*
X81559792Y-71980104D01*
X81710104Y-71829792D01*
X81710106Y-71829788D01*
X81710109Y-71829786D01*
X81835048Y-71657820D01*
X81835047Y-71657820D01*
X81835051Y-71657816D01*
X81931557Y-71468412D01*
X81997246Y-71266243D01*
X82030500Y-71056287D01*
X82030500Y-70843713D01*
X81997246Y-70633757D01*
X81931557Y-70431588D01*
X81835051Y-70242184D01*
X81835049Y-70242181D01*
X81835048Y-70242179D01*
X81710109Y-70070213D01*
X81559786Y-69919890D01*
X81387820Y-69794951D01*
X81387115Y-69794591D01*
X81379054Y-69790485D01*
X81328259Y-69742512D01*
X81311463Y-69674692D01*
X81333999Y-69608556D01*
X81379054Y-69569515D01*
X81387816Y-69565051D01*
X81409789Y-69549086D01*
X81559786Y-69440109D01*
X81559788Y-69440106D01*
X81559792Y-69440104D01*
X81578743Y-69421153D01*
X82199500Y-69421153D01*
X82199500Y-69578846D01*
X82230261Y-69733489D01*
X82230264Y-69733501D01*
X82290602Y-69879172D01*
X82290609Y-69879185D01*
X82378210Y-70010288D01*
X82378213Y-70010292D01*
X82489707Y-70121786D01*
X82489711Y-70121789D01*
X82620814Y-70209390D01*
X82620827Y-70209397D01*
X82766498Y-70269735D01*
X82766503Y-70269737D01*
X82921153Y-70300499D01*
X82921156Y-70300500D01*
X82921158Y-70300500D01*
X83078844Y-70300500D01*
X83078845Y-70300499D01*
X83233497Y-70269737D01*
X83379179Y-70209394D01*
X83510289Y-70121789D01*
X83621789Y-70010289D01*
X83709394Y-69879179D01*
X83769737Y-69733497D01*
X83800500Y-69578842D01*
X83800500Y-69421158D01*
X83800500Y-69421155D01*
X83800499Y-69421153D01*
X83780734Y-69321789D01*
X83769737Y-69266503D01*
X83746452Y-69210288D01*
X83709397Y-69120827D01*
X83709390Y-69120814D01*
X83621789Y-68989711D01*
X83621786Y-68989707D01*
X83510292Y-68878213D01*
X83510288Y-68878210D01*
X83379185Y-68790609D01*
X83379172Y-68790602D01*
X83233501Y-68730264D01*
X83233489Y-68730261D01*
X83078845Y-68699500D01*
X83078842Y-68699500D01*
X82921158Y-68699500D01*
X82921155Y-68699500D01*
X82766510Y-68730261D01*
X82766498Y-68730264D01*
X82620827Y-68790602D01*
X82620814Y-68790609D01*
X82489711Y-68878210D01*
X82489707Y-68878213D01*
X82378213Y-68989707D01*
X82378210Y-68989711D01*
X82290609Y-69120814D01*
X82290602Y-69120827D01*
X82230264Y-69266498D01*
X82230261Y-69266510D01*
X82199500Y-69421153D01*
X81578743Y-69421153D01*
X81710104Y-69289792D01*
X81710106Y-69289788D01*
X81710109Y-69289786D01*
X81835048Y-69117820D01*
X81835047Y-69117820D01*
X81835051Y-69117816D01*
X81931557Y-68928412D01*
X81997246Y-68726243D01*
X82013891Y-68621153D01*
X89799500Y-68621153D01*
X89799500Y-68778846D01*
X89830261Y-68933489D01*
X89830264Y-68933501D01*
X89890602Y-69079172D01*
X89890609Y-69079185D01*
X89978210Y-69210288D01*
X89978213Y-69210292D01*
X90089707Y-69321786D01*
X90089711Y-69321789D01*
X90220814Y-69409390D01*
X90220827Y-69409397D01*
X90366498Y-69469735D01*
X90366503Y-69469737D01*
X90521153Y-69500499D01*
X90521156Y-69500500D01*
X90521158Y-69500500D01*
X90678844Y-69500500D01*
X90678845Y-69500499D01*
X90833497Y-69469737D01*
X90979179Y-69409394D01*
X91110289Y-69321789D01*
X91112312Y-69319766D01*
X91113634Y-69319043D01*
X91114999Y-69317924D01*
X91115211Y-69318182D01*
X91173632Y-69286276D01*
X91243324Y-69291255D01*
X91284939Y-69317999D01*
X91285001Y-69317924D01*
X91285648Y-69318454D01*
X91287688Y-69319766D01*
X91289711Y-69321789D01*
X91420814Y-69409390D01*
X91420827Y-69409397D01*
X91566498Y-69469735D01*
X91566503Y-69469737D01*
X91721153Y-69500499D01*
X91721156Y-69500500D01*
X91721158Y-69500500D01*
X91878844Y-69500500D01*
X91878845Y-69500499D01*
X92033497Y-69469737D01*
X92179179Y-69409394D01*
X92310289Y-69321789D01*
X92312312Y-69319766D01*
X92313634Y-69319043D01*
X92314999Y-69317924D01*
X92315211Y-69318182D01*
X92373632Y-69286276D01*
X92443324Y-69291255D01*
X92484939Y-69317999D01*
X92485001Y-69317924D01*
X92485648Y-69318454D01*
X92487688Y-69319766D01*
X92489711Y-69321789D01*
X92620814Y-69409390D01*
X92620827Y-69409397D01*
X92766498Y-69469735D01*
X92766503Y-69469737D01*
X92921153Y-69500499D01*
X92921156Y-69500500D01*
X92921158Y-69500500D01*
X93078844Y-69500500D01*
X93078845Y-69500499D01*
X93233497Y-69469737D01*
X93379179Y-69409394D01*
X93510289Y-69321789D01*
X93621789Y-69210289D01*
X93709394Y-69079179D01*
X93769737Y-68933497D01*
X93800500Y-68778842D01*
X93800500Y-68621158D01*
X93800500Y-68621155D01*
X93800499Y-68621153D01*
X93769737Y-68466503D01*
X93769735Y-68466498D01*
X93709397Y-68320827D01*
X93709390Y-68320814D01*
X93621789Y-68189711D01*
X93621786Y-68189707D01*
X93510292Y-68078213D01*
X93510288Y-68078210D01*
X93379185Y-67990609D01*
X93379172Y-67990602D01*
X93233501Y-67930264D01*
X93233489Y-67930261D01*
X93078845Y-67899500D01*
X93078842Y-67899500D01*
X92921158Y-67899500D01*
X92921155Y-67899500D01*
X92766510Y-67930261D01*
X92766498Y-67930264D01*
X92620827Y-67990602D01*
X92620814Y-67990609D01*
X92489711Y-68078210D01*
X92489707Y-68078213D01*
X92487681Y-68080240D01*
X92486357Y-68080962D01*
X92485001Y-68082076D01*
X92484789Y-68081818D01*
X92426358Y-68113725D01*
X92356666Y-68108741D01*
X92315060Y-68082001D01*
X92314999Y-68082076D01*
X92314360Y-68081552D01*
X92312319Y-68080240D01*
X92310292Y-68078213D01*
X92310288Y-68078210D01*
X92179185Y-67990609D01*
X92179172Y-67990602D01*
X92033501Y-67930264D01*
X92033489Y-67930261D01*
X91878845Y-67899500D01*
X91878842Y-67899500D01*
X91721158Y-67899500D01*
X91721155Y-67899500D01*
X91566510Y-67930261D01*
X91566498Y-67930264D01*
X91420827Y-67990602D01*
X91420814Y-67990609D01*
X91289711Y-68078210D01*
X91289707Y-68078213D01*
X91287681Y-68080240D01*
X91286357Y-68080962D01*
X91285001Y-68082076D01*
X91284789Y-68081818D01*
X91226358Y-68113725D01*
X91156666Y-68108741D01*
X91115060Y-68082001D01*
X91114999Y-68082076D01*
X91114360Y-68081552D01*
X91112319Y-68080240D01*
X91110292Y-68078213D01*
X91110288Y-68078210D01*
X90979185Y-67990609D01*
X90979172Y-67990602D01*
X90833501Y-67930264D01*
X90833489Y-67930261D01*
X90678845Y-67899500D01*
X90678842Y-67899500D01*
X90521158Y-67899500D01*
X90521155Y-67899500D01*
X90366510Y-67930261D01*
X90366498Y-67930264D01*
X90220827Y-67990602D01*
X90220814Y-67990609D01*
X90089711Y-68078210D01*
X90089707Y-68078213D01*
X89978213Y-68189707D01*
X89978210Y-68189711D01*
X89890609Y-68320814D01*
X89890602Y-68320827D01*
X89830264Y-68466498D01*
X89830261Y-68466510D01*
X89799500Y-68621153D01*
X82013891Y-68621153D01*
X82030500Y-68516287D01*
X82030500Y-68303713D01*
X81997246Y-68093757D01*
X81931557Y-67891588D01*
X81835051Y-67702184D01*
X81835049Y-67702181D01*
X81835048Y-67702179D01*
X81710109Y-67530213D01*
X81601049Y-67421153D01*
X82199500Y-67421153D01*
X82199500Y-67578846D01*
X82230261Y-67733489D01*
X82230264Y-67733501D01*
X82290602Y-67879172D01*
X82290609Y-67879185D01*
X82378210Y-68010288D01*
X82378213Y-68010292D01*
X82489707Y-68121786D01*
X82489711Y-68121789D01*
X82620814Y-68209390D01*
X82620827Y-68209397D01*
X82766498Y-68269735D01*
X82766503Y-68269737D01*
X82921153Y-68300499D01*
X82921156Y-68300500D01*
X82921158Y-68300500D01*
X83078844Y-68300500D01*
X83078845Y-68300499D01*
X83233497Y-68269737D01*
X83379179Y-68209394D01*
X83510289Y-68121789D01*
X83621789Y-68010289D01*
X83709394Y-67879179D01*
X83769737Y-67733497D01*
X83800500Y-67578842D01*
X83800500Y-67421158D01*
X83800500Y-67421155D01*
X83800499Y-67421153D01*
X83769738Y-67266510D01*
X83769737Y-67266503D01*
X83746932Y-67211447D01*
X83709397Y-67120827D01*
X83709390Y-67120814D01*
X83621789Y-66989711D01*
X83621786Y-66989707D01*
X83510292Y-66878213D01*
X83510288Y-66878210D01*
X83379185Y-66790609D01*
X83379172Y-66790602D01*
X83233501Y-66730264D01*
X83233489Y-66730261D01*
X83078845Y-66699500D01*
X83078842Y-66699500D01*
X82921158Y-66699500D01*
X82921155Y-66699500D01*
X82766510Y-66730261D01*
X82766498Y-66730264D01*
X82620827Y-66790602D01*
X82620814Y-66790609D01*
X82489711Y-66878210D01*
X82489707Y-66878213D01*
X82378213Y-66989707D01*
X82378210Y-66989711D01*
X82290609Y-67120814D01*
X82290602Y-67120827D01*
X82230264Y-67266498D01*
X82230261Y-67266510D01*
X82199500Y-67421153D01*
X81601049Y-67421153D01*
X81559786Y-67379890D01*
X81387820Y-67254951D01*
X81387115Y-67254591D01*
X81379054Y-67250485D01*
X81328259Y-67202512D01*
X81311463Y-67134692D01*
X81333999Y-67068556D01*
X81379054Y-67029515D01*
X81387816Y-67025051D01*
X81436463Y-66989707D01*
X81559786Y-66900109D01*
X81559788Y-66900106D01*
X81559792Y-66900104D01*
X81710104Y-66749792D01*
X81710106Y-66749788D01*
X81710109Y-66749786D01*
X81835048Y-66577820D01*
X81835047Y-66577820D01*
X81835051Y-66577816D01*
X81931557Y-66388412D01*
X81997246Y-66186243D01*
X82030500Y-65976287D01*
X82030500Y-65763713D01*
X81997246Y-65553757D01*
X81931557Y-65351588D01*
X81835051Y-65162184D01*
X81835049Y-65162181D01*
X81835048Y-65162179D01*
X81710109Y-64990213D01*
X81559786Y-64839890D01*
X81387820Y-64714951D01*
X81198414Y-64618444D01*
X81198413Y-64618443D01*
X81198412Y-64618443D01*
X80996243Y-64552754D01*
X80996241Y-64552753D01*
X80996240Y-64552753D01*
X80834957Y-64527208D01*
X80786287Y-64519500D01*
X80573713Y-64519500D01*
X80525042Y-64527208D01*
X80363760Y-64552753D01*
X80161585Y-64618444D01*
X79972179Y-64714951D01*
X79800213Y-64839890D01*
X79649890Y-64990213D01*
X79524951Y-65162179D01*
X79428444Y-65351585D01*
X79362753Y-65553760D01*
X79329500Y-65763713D01*
X60000500Y-65763713D01*
X60000500Y-62401577D01*
X88249500Y-62401577D01*
X88249500Y-62598422D01*
X88280290Y-62792826D01*
X88341117Y-62980029D01*
X88430476Y-63155405D01*
X88546172Y-63314646D01*
X88685354Y-63453828D01*
X88844595Y-63569524D01*
X88927455Y-63611743D01*
X89019970Y-63658882D01*
X89019972Y-63658882D01*
X89019975Y-63658884D01*
X89120317Y-63691487D01*
X89207173Y-63719709D01*
X89401578Y-63750500D01*
X89401583Y-63750500D01*
X89598422Y-63750500D01*
X89792826Y-63719709D01*
X89980025Y-63658884D01*
X90155405Y-63569524D01*
X90314646Y-63453828D01*
X90453828Y-63314646D01*
X90569524Y-63155405D01*
X90658884Y-62980025D01*
X90719709Y-62792826D01*
X90750500Y-62598422D01*
X90750500Y-62401577D01*
X110249500Y-62401577D01*
X110249500Y-62598422D01*
X110280290Y-62792826D01*
X110341117Y-62980029D01*
X110430476Y-63155405D01*
X110546172Y-63314646D01*
X110685354Y-63453828D01*
X110844595Y-63569524D01*
X110927455Y-63611743D01*
X111019970Y-63658882D01*
X111019972Y-63658882D01*
X111019975Y-63658884D01*
X111120317Y-63691487D01*
X111207173Y-63719709D01*
X111401578Y-63750500D01*
X111401583Y-63750500D01*
X111598422Y-63750500D01*
X111792826Y-63719709D01*
X111980025Y-63658884D01*
X112155405Y-63569524D01*
X112314646Y-63453828D01*
X112453828Y-63314646D01*
X112569524Y-63155405D01*
X112658884Y-62980025D01*
X112719709Y-62792826D01*
X112750500Y-62598422D01*
X112750500Y-62401577D01*
X112719709Y-62207173D01*
X112658882Y-62019970D01*
X112569523Y-61844594D01*
X112453828Y-61685354D01*
X112314646Y-61546172D01*
X112155405Y-61430476D01*
X111980029Y-61341117D01*
X111792826Y-61280290D01*
X111598422Y-61249500D01*
X111598417Y-61249500D01*
X111401583Y-61249500D01*
X111401578Y-61249500D01*
X111207173Y-61280290D01*
X111019970Y-61341117D01*
X110844594Y-61430476D01*
X110753741Y-61496485D01*
X110685354Y-61546172D01*
X110685352Y-61546174D01*
X110685351Y-61546174D01*
X110546174Y-61685351D01*
X110546174Y-61685352D01*
X110546172Y-61685354D01*
X110496485Y-61753741D01*
X110430476Y-61844594D01*
X110341117Y-62019970D01*
X110280290Y-62207173D01*
X110249500Y-62401577D01*
X90750500Y-62401577D01*
X90719709Y-62207173D01*
X90658882Y-62019970D01*
X90569523Y-61844594D01*
X90453828Y-61685354D01*
X90314646Y-61546172D01*
X90155405Y-61430476D01*
X89980029Y-61341117D01*
X89792826Y-61280290D01*
X89598422Y-61249500D01*
X89598417Y-61249500D01*
X89401583Y-61249500D01*
X89401578Y-61249500D01*
X89207173Y-61280290D01*
X89019970Y-61341117D01*
X88844594Y-61430476D01*
X88753741Y-61496485D01*
X88685354Y-61546172D01*
X88685352Y-61546174D01*
X88685351Y-61546174D01*
X88546174Y-61685351D01*
X88546174Y-61685352D01*
X88546172Y-61685354D01*
X88496485Y-61753741D01*
X88430476Y-61844594D01*
X88341117Y-62019970D01*
X88280290Y-62207173D01*
X88249500Y-62401577D01*
X60000500Y-62401577D01*
X60000500Y-59421153D01*
X80199500Y-59421153D01*
X80199500Y-59578846D01*
X80230261Y-59733489D01*
X80230264Y-59733501D01*
X80290602Y-59879172D01*
X80290609Y-59879185D01*
X80378210Y-60010288D01*
X80378213Y-60010292D01*
X80489707Y-60121786D01*
X80489711Y-60121789D01*
X80620814Y-60209390D01*
X80620827Y-60209397D01*
X80766498Y-60269735D01*
X80766503Y-60269737D01*
X80921153Y-60300499D01*
X80921156Y-60300500D01*
X80921158Y-60300500D01*
X81078844Y-60300500D01*
X81078845Y-60300499D01*
X81233497Y-60269737D01*
X81379179Y-60209394D01*
X81510289Y-60121789D01*
X81621789Y-60010289D01*
X81709394Y-59879179D01*
X81769737Y-59733497D01*
X81800500Y-59578842D01*
X81800500Y-59421158D01*
X81800500Y-59421155D01*
X81800499Y-59421153D01*
X81769738Y-59266510D01*
X81769737Y-59266503D01*
X81769735Y-59266498D01*
X81709397Y-59120827D01*
X81709390Y-59120814D01*
X81621789Y-58989711D01*
X81621786Y-58989707D01*
X81510292Y-58878213D01*
X81510288Y-58878210D01*
X81379185Y-58790609D01*
X81379172Y-58790602D01*
X81233501Y-58730264D01*
X81233489Y-58730261D01*
X81078845Y-58699500D01*
X81078842Y-58699500D01*
X80921158Y-58699500D01*
X80921155Y-58699500D01*
X80766510Y-58730261D01*
X80766498Y-58730264D01*
X80620827Y-58790602D01*
X80620814Y-58790609D01*
X80489711Y-58878210D01*
X80489707Y-58878213D01*
X80378213Y-58989707D01*
X80378210Y-58989711D01*
X80290609Y-59120814D01*
X80290602Y-59120827D01*
X80230264Y-59266498D01*
X80230261Y-59266510D01*
X80199500Y-59421153D01*
X60000500Y-59421153D01*
X60000500Y-57221153D01*
X74099500Y-57221153D01*
X74099500Y-57378846D01*
X74130261Y-57533489D01*
X74130264Y-57533501D01*
X74190602Y-57679172D01*
X74190609Y-57679185D01*
X74278210Y-57810288D01*
X74278213Y-57810292D01*
X74389707Y-57921786D01*
X74389711Y-57921789D01*
X74520814Y-58009390D01*
X74520827Y-58009397D01*
X74666498Y-58069735D01*
X74666503Y-58069737D01*
X74821153Y-58100499D01*
X74821156Y-58100500D01*
X74821158Y-58100500D01*
X74978844Y-58100500D01*
X74978845Y-58100499D01*
X75133497Y-58069737D01*
X75279179Y-58009394D01*
X75410289Y-57921789D01*
X75521789Y-57810289D01*
X75609394Y-57679179D01*
X75669737Y-57533497D01*
X75700500Y-57378842D01*
X75700500Y-57221158D01*
X75700500Y-57221155D01*
X75700499Y-57221153D01*
X75669738Y-57066510D01*
X75669737Y-57066503D01*
X75669735Y-57066498D01*
X75609397Y-56920827D01*
X75609390Y-56920814D01*
X75521789Y-56789711D01*
X75521786Y-56789707D01*
X75410292Y-56678213D01*
X75410288Y-56678210D01*
X75279185Y-56590609D01*
X75279172Y-56590602D01*
X75133501Y-56530264D01*
X75133489Y-56530261D01*
X74978845Y-56499500D01*
X74978842Y-56499500D01*
X74821158Y-56499500D01*
X74821155Y-56499500D01*
X74666510Y-56530261D01*
X74666498Y-56530264D01*
X74520827Y-56590602D01*
X74520814Y-56590609D01*
X74389711Y-56678210D01*
X74389707Y-56678213D01*
X74278213Y-56789707D01*
X74278210Y-56789711D01*
X74190609Y-56920814D01*
X74190602Y-56920827D01*
X74130264Y-57066498D01*
X74130261Y-57066510D01*
X74099500Y-57221153D01*
X60000500Y-57221153D01*
X60000500Y-50622596D01*
X70544050Y-50622596D01*
X70544050Y-50797403D01*
X70571393Y-50970043D01*
X70625410Y-51136288D01*
X70704631Y-51291766D01*
X70704765Y-51292029D01*
X70807508Y-51433442D01*
X70931108Y-51557042D01*
X71072521Y-51659785D01*
X71146103Y-51697277D01*
X71228261Y-51739139D01*
X71228263Y-51739139D01*
X71228266Y-51739141D01*
X71317375Y-51768094D01*
X71394506Y-51793156D01*
X71567147Y-51820500D01*
X71567152Y-51820500D01*
X71741953Y-51820500D01*
X71914593Y-51793156D01*
X71916095Y-51792668D01*
X72080834Y-51739141D01*
X72236579Y-51659785D01*
X72377992Y-51557042D01*
X72501592Y-51433442D01*
X72604335Y-51292029D01*
X72683691Y-51136284D01*
X72737706Y-50970043D01*
X72754439Y-50864394D01*
X72765050Y-50797403D01*
X72765050Y-50622641D01*
X73084550Y-50622641D01*
X73084550Y-50797358D01*
X73111881Y-50969922D01*
X73165874Y-51136094D01*
X73245193Y-51291766D01*
X73251099Y-51299897D01*
X73794550Y-50756446D01*
X73794550Y-50762661D01*
X73821809Y-50864394D01*
X73874470Y-50955606D01*
X73948944Y-51030080D01*
X74040156Y-51082741D01*
X74141889Y-51110000D01*
X74148103Y-51110000D01*
X73604652Y-51653448D01*
X73604652Y-51653451D01*
X73612779Y-51659354D01*
X73768455Y-51738675D01*
X73934627Y-51792668D01*
X73934626Y-51792668D01*
X74107192Y-51820000D01*
X74281908Y-51820000D01*
X74454472Y-51792668D01*
X74620644Y-51738675D01*
X74776317Y-51659356D01*
X74784446Y-51653450D01*
X74784446Y-51653449D01*
X74240998Y-51110000D01*
X74247211Y-51110000D01*
X74348944Y-51082741D01*
X74440156Y-51030080D01*
X74514630Y-50955606D01*
X74567291Y-50864394D01*
X74594550Y-50762661D01*
X74594550Y-50756447D01*
X75137999Y-51299896D01*
X75138000Y-51299896D01*
X75143906Y-51291767D01*
X75223225Y-51136094D01*
X75277218Y-50969922D01*
X75304550Y-50797358D01*
X75304550Y-50622641D01*
X75304543Y-50622596D01*
X75624050Y-50622596D01*
X75624050Y-50797403D01*
X75651393Y-50970043D01*
X75705410Y-51136288D01*
X75784631Y-51291766D01*
X75784765Y-51292029D01*
X75887508Y-51433442D01*
X76011108Y-51557042D01*
X76152521Y-51659785D01*
X76226103Y-51697277D01*
X76308261Y-51739139D01*
X76308263Y-51739139D01*
X76308266Y-51739141D01*
X76397375Y-51768094D01*
X76474506Y-51793156D01*
X76647147Y-51820500D01*
X76647152Y-51820500D01*
X76821953Y-51820500D01*
X76994593Y-51793156D01*
X76996095Y-51792668D01*
X77160834Y-51739141D01*
X77316579Y-51659785D01*
X77457992Y-51557042D01*
X77581592Y-51433442D01*
X77684335Y-51292029D01*
X77763691Y-51136284D01*
X77817706Y-50970043D01*
X77834439Y-50864394D01*
X77845050Y-50797403D01*
X77845050Y-50622596D01*
X78164050Y-50622596D01*
X78164050Y-50797403D01*
X78191393Y-50970043D01*
X78245410Y-51136288D01*
X78324631Y-51291766D01*
X78324765Y-51292029D01*
X78427508Y-51433442D01*
X78551108Y-51557042D01*
X78692521Y-51659785D01*
X78766103Y-51697277D01*
X78848261Y-51739139D01*
X78848263Y-51739139D01*
X78848266Y-51739141D01*
X78937375Y-51768094D01*
X79014506Y-51793156D01*
X79187147Y-51820500D01*
X79187152Y-51820500D01*
X79361953Y-51820500D01*
X79534593Y-51793156D01*
X79536095Y-51792668D01*
X79700834Y-51739141D01*
X79856579Y-51659785D01*
X79997992Y-51557042D01*
X80121592Y-51433442D01*
X80224335Y-51292029D01*
X80303691Y-51136284D01*
X80357706Y-50970043D01*
X80374439Y-50864394D01*
X80385050Y-50797403D01*
X80385050Y-50622596D01*
X80357706Y-50449956D01*
X80303689Y-50283711D01*
X80261827Y-50201553D01*
X80224335Y-50127971D01*
X80121592Y-49986558D01*
X79997992Y-49862958D01*
X79856579Y-49760215D01*
X79700838Y-49680860D01*
X79534593Y-49626843D01*
X79361953Y-49599500D01*
X79361948Y-49599500D01*
X79187152Y-49599500D01*
X79187147Y-49599500D01*
X79014506Y-49626843D01*
X78848261Y-49680860D01*
X78692520Y-49760215D01*
X78611838Y-49818834D01*
X78551108Y-49862958D01*
X78551106Y-49862960D01*
X78551105Y-49862960D01*
X78427510Y-49986555D01*
X78427510Y-49986556D01*
X78427508Y-49986558D01*
X78383384Y-50047288D01*
X78324765Y-50127970D01*
X78245410Y-50283711D01*
X78191393Y-50449956D01*
X78164050Y-50622596D01*
X77845050Y-50622596D01*
X77817706Y-50449956D01*
X77763689Y-50283711D01*
X77721827Y-50201553D01*
X77684335Y-50127971D01*
X77581592Y-49986558D01*
X77457992Y-49862958D01*
X77316579Y-49760215D01*
X77160838Y-49680860D01*
X76994593Y-49626843D01*
X76821953Y-49599500D01*
X76821948Y-49599500D01*
X76647152Y-49599500D01*
X76647147Y-49599500D01*
X76474506Y-49626843D01*
X76308261Y-49680860D01*
X76152520Y-49760215D01*
X76071838Y-49818834D01*
X76011108Y-49862958D01*
X76011106Y-49862960D01*
X76011105Y-49862960D01*
X75887510Y-49986555D01*
X75887510Y-49986556D01*
X75887508Y-49986558D01*
X75843384Y-50047288D01*
X75784765Y-50127970D01*
X75705410Y-50283711D01*
X75651393Y-50449956D01*
X75624050Y-50622596D01*
X75304543Y-50622596D01*
X75277218Y-50450077D01*
X75223225Y-50283905D01*
X75143904Y-50128229D01*
X75138001Y-50120102D01*
X75137998Y-50120102D01*
X74594550Y-50663551D01*
X74594550Y-50657339D01*
X74567291Y-50555606D01*
X74514630Y-50464394D01*
X74440156Y-50389920D01*
X74348944Y-50337259D01*
X74247211Y-50310000D01*
X74240997Y-50310000D01*
X74784447Y-49766549D01*
X74776316Y-49760643D01*
X74620644Y-49681324D01*
X74454472Y-49627331D01*
X74454473Y-49627331D01*
X74281908Y-49600000D01*
X74107192Y-49600000D01*
X73934627Y-49627331D01*
X73768455Y-49681324D01*
X73612782Y-49760643D01*
X73604652Y-49766549D01*
X74148104Y-50310000D01*
X74141889Y-50310000D01*
X74040156Y-50337259D01*
X73948944Y-50389920D01*
X73874470Y-50464394D01*
X73821809Y-50555606D01*
X73794550Y-50657339D01*
X73794550Y-50663553D01*
X73251099Y-50120102D01*
X73245193Y-50128232D01*
X73165874Y-50283905D01*
X73111881Y-50450077D01*
X73084550Y-50622641D01*
X72765050Y-50622641D01*
X72765050Y-50622596D01*
X72737706Y-50449956D01*
X72683689Y-50283711D01*
X72641827Y-50201553D01*
X72604335Y-50127971D01*
X72501592Y-49986558D01*
X72377992Y-49862958D01*
X72236579Y-49760215D01*
X72080838Y-49680860D01*
X71914593Y-49626843D01*
X71741953Y-49599500D01*
X71741948Y-49599500D01*
X71567152Y-49599500D01*
X71567147Y-49599500D01*
X71394506Y-49626843D01*
X71228261Y-49680860D01*
X71072520Y-49760215D01*
X70991838Y-49818834D01*
X70931108Y-49862958D01*
X70931106Y-49862960D01*
X70931105Y-49862960D01*
X70807510Y-49986555D01*
X70807510Y-49986556D01*
X70807508Y-49986558D01*
X70763384Y-50047288D01*
X70704765Y-50127970D01*
X70625410Y-50283711D01*
X70571393Y-50449956D01*
X70544050Y-50622596D01*
X60000500Y-50622596D01*
X60000500Y-40401577D01*
X88249500Y-40401577D01*
X88249500Y-40598422D01*
X88280290Y-40792826D01*
X88341117Y-40980029D01*
X88388460Y-41072944D01*
X88430476Y-41155405D01*
X88546172Y-41314646D01*
X88685354Y-41453828D01*
X88844595Y-41569524D01*
X88927455Y-41611743D01*
X89019970Y-41658882D01*
X89019972Y-41658882D01*
X89019975Y-41658884D01*
X89120317Y-41691487D01*
X89207173Y-41719709D01*
X89401578Y-41750500D01*
X89401583Y-41750500D01*
X89598422Y-41750500D01*
X89792826Y-41719709D01*
X89980025Y-41658884D01*
X90155405Y-41569524D01*
X90314646Y-41453828D01*
X90453828Y-41314646D01*
X90569524Y-41155405D01*
X90658884Y-40980025D01*
X90719709Y-40792826D01*
X90750500Y-40598422D01*
X90750500Y-40401577D01*
X90721431Y-40218044D01*
X90721430Y-40218040D01*
X90719708Y-40207173D01*
X90715101Y-40192993D01*
X90684475Y-40098736D01*
X90658884Y-40019975D01*
X90658882Y-40019972D01*
X90658882Y-40019970D01*
X90598401Y-39901269D01*
X90569524Y-39844595D01*
X90453828Y-39685354D01*
X90314646Y-39546172D01*
X90155405Y-39430476D01*
X89980029Y-39341117D01*
X89892822Y-39312782D01*
X89792826Y-39280290D01*
X89598422Y-39249500D01*
X89598417Y-39249500D01*
X89401583Y-39249500D01*
X89401578Y-39249500D01*
X89207173Y-39280290D01*
X89019970Y-39341117D01*
X88844594Y-39430476D01*
X88753741Y-39496485D01*
X88685354Y-39546172D01*
X88685352Y-39546174D01*
X88685351Y-39546174D01*
X88546174Y-39685351D01*
X88546174Y-39685352D01*
X88546172Y-39685354D01*
X88531000Y-39706237D01*
X88430476Y-39844594D01*
X88341117Y-40019970D01*
X88280290Y-40207173D01*
X88249500Y-40401577D01*
X60000500Y-40401577D01*
X60000500Y-39198155D01*
X95436000Y-39198155D01*
X95436000Y-39750000D01*
X96256988Y-39750000D01*
X96224075Y-39807007D01*
X96190000Y-39934174D01*
X96190000Y-40065826D01*
X96224075Y-40192993D01*
X96256988Y-40250000D01*
X95436000Y-40250000D01*
X95436000Y-40801844D01*
X95442401Y-40861372D01*
X95442403Y-40861379D01*
X95492645Y-40996086D01*
X95492649Y-40996093D01*
X95578809Y-41111187D01*
X95578812Y-41111190D01*
X95693906Y-41197350D01*
X95693913Y-41197354D01*
X95828620Y-41247596D01*
X95828627Y-41247598D01*
X95888155Y-41253999D01*
X95888172Y-41254000D01*
X96440000Y-41254000D01*
X96440000Y-40433012D01*
X96497007Y-40465925D01*
X96624174Y-40500000D01*
X96755826Y-40500000D01*
X96882993Y-40465925D01*
X96940000Y-40433012D01*
X96940000Y-41254000D01*
X97491828Y-41254000D01*
X97491844Y-41253999D01*
X97551372Y-41247598D01*
X97551379Y-41247596D01*
X97686086Y-41197354D01*
X97686093Y-41197350D01*
X97801187Y-41111190D01*
X97801190Y-41111187D01*
X97887350Y-40996093D01*
X97887354Y-40996086D01*
X97937596Y-40861379D01*
X97937598Y-40861372D01*
X97943999Y-40801844D01*
X97944000Y-40801827D01*
X97944000Y-40745887D01*
X97963685Y-40678848D01*
X98016489Y-40633093D01*
X98085647Y-40623149D01*
X98149203Y-40652174D01*
X98168314Y-40672997D01*
X98221272Y-40745887D01*
X98273121Y-40817252D01*
X98412753Y-40956884D01*
X98562234Y-41065486D01*
X98572499Y-41072944D01*
X98748439Y-41162591D01*
X98855417Y-41197350D01*
X98936236Y-41223610D01*
X99131264Y-41254500D01*
X99131269Y-41254500D01*
X99328736Y-41254500D01*
X99523763Y-41223610D01*
X99711561Y-41162591D01*
X99887501Y-41072944D01*
X100015394Y-40980025D01*
X100047246Y-40956884D01*
X100047248Y-40956881D01*
X100047252Y-40956879D01*
X100186879Y-40817252D01*
X100186881Y-40817248D01*
X100186884Y-40817246D01*
X100302941Y-40657505D01*
X100302942Y-40657504D01*
X100302944Y-40657501D01*
X100389517Y-40487593D01*
X100437490Y-40436800D01*
X100505311Y-40420005D01*
X100571446Y-40442542D01*
X100610482Y-40487593D01*
X100679553Y-40623149D01*
X100697058Y-40657505D01*
X100813115Y-40817246D01*
X100952753Y-40956884D01*
X101102234Y-41065486D01*
X101112499Y-41072944D01*
X101288439Y-41162591D01*
X101395417Y-41197350D01*
X101476236Y-41223610D01*
X101671264Y-41254500D01*
X101671269Y-41254500D01*
X101868736Y-41254500D01*
X102063763Y-41223610D01*
X102251561Y-41162591D01*
X102427501Y-41072944D01*
X102555394Y-40980025D01*
X102587246Y-40956884D01*
X102587248Y-40956881D01*
X102587252Y-40956879D01*
X102726879Y-40817252D01*
X102726881Y-40817248D01*
X102726884Y-40817246D01*
X102842941Y-40657505D01*
X102842942Y-40657504D01*
X102842944Y-40657501D01*
X102929517Y-40487593D01*
X102977490Y-40436800D01*
X103045311Y-40420005D01*
X103111446Y-40442542D01*
X103150482Y-40487593D01*
X103219553Y-40623149D01*
X103237058Y-40657505D01*
X103353115Y-40817246D01*
X103492753Y-40956884D01*
X103642234Y-41065486D01*
X103652499Y-41072944D01*
X103828439Y-41162591D01*
X103935417Y-41197350D01*
X104016236Y-41223610D01*
X104211264Y-41254500D01*
X104211269Y-41254500D01*
X104408736Y-41254500D01*
X104603763Y-41223610D01*
X104791561Y-41162591D01*
X104967501Y-41072944D01*
X105095394Y-40980025D01*
X105127246Y-40956884D01*
X105127248Y-40956881D01*
X105127252Y-40956879D01*
X105266879Y-40817252D01*
X105266881Y-40817248D01*
X105266884Y-40817246D01*
X105318728Y-40745887D01*
X105382944Y-40657501D01*
X105472591Y-40481561D01*
X105498579Y-40401577D01*
X110249500Y-40401577D01*
X110249500Y-40598422D01*
X110280290Y-40792826D01*
X110341117Y-40980029D01*
X110388460Y-41072944D01*
X110430476Y-41155405D01*
X110546172Y-41314646D01*
X110685354Y-41453828D01*
X110844595Y-41569524D01*
X110927455Y-41611743D01*
X111019970Y-41658882D01*
X111019972Y-41658882D01*
X111019975Y-41658884D01*
X111120317Y-41691487D01*
X111207173Y-41719709D01*
X111401578Y-41750500D01*
X111401583Y-41750500D01*
X111598422Y-41750500D01*
X111792826Y-41719709D01*
X111980025Y-41658884D01*
X112155405Y-41569524D01*
X112314646Y-41453828D01*
X112453828Y-41314646D01*
X112569524Y-41155405D01*
X112658884Y-40980025D01*
X112719709Y-40792826D01*
X112750500Y-40598422D01*
X112750500Y-40401577D01*
X112719709Y-40207173D01*
X112684475Y-40098736D01*
X112658884Y-40019975D01*
X112658882Y-40019972D01*
X112658882Y-40019970D01*
X112598401Y-39901269D01*
X112569524Y-39844595D01*
X112453828Y-39685354D01*
X112314646Y-39546172D01*
X112155405Y-39430476D01*
X111980029Y-39341117D01*
X111792826Y-39280290D01*
X111598422Y-39249500D01*
X111598417Y-39249500D01*
X111401583Y-39249500D01*
X111401578Y-39249500D01*
X111207173Y-39280290D01*
X111019970Y-39341117D01*
X110844594Y-39430476D01*
X110753741Y-39496485D01*
X110685354Y-39546172D01*
X110685352Y-39546174D01*
X110685351Y-39546174D01*
X110546174Y-39685351D01*
X110546174Y-39685352D01*
X110546172Y-39685354D01*
X110531000Y-39706237D01*
X110430476Y-39844594D01*
X110341117Y-40019970D01*
X110280290Y-40207173D01*
X110249500Y-40401577D01*
X105498579Y-40401577D01*
X105533610Y-40293763D01*
X105549570Y-40192993D01*
X105564500Y-40098736D01*
X105564500Y-39901263D01*
X105533610Y-39706236D01*
X105485268Y-39557456D01*
X105472591Y-39518439D01*
X105382944Y-39342499D01*
X105361354Y-39312782D01*
X105266884Y-39182753D01*
X105127246Y-39043115D01*
X104967504Y-38927058D01*
X104967503Y-38927057D01*
X104967501Y-38927056D01*
X104791561Y-38837409D01*
X104791558Y-38837408D01*
X104603763Y-38776389D01*
X104408736Y-38745500D01*
X104408731Y-38745500D01*
X104211269Y-38745500D01*
X104211264Y-38745500D01*
X104016236Y-38776389D01*
X103828441Y-38837408D01*
X103652495Y-38927058D01*
X103492753Y-39043115D01*
X103353115Y-39182753D01*
X103237058Y-39342495D01*
X103237056Y-39342499D01*
X103156805Y-39500000D01*
X103150485Y-39512403D01*
X103102510Y-39563199D01*
X103034689Y-39579994D01*
X102968554Y-39557456D01*
X102929515Y-39512403D01*
X102842944Y-39342499D01*
X102821354Y-39312782D01*
X102726884Y-39182753D01*
X102587246Y-39043115D01*
X102427504Y-38927058D01*
X102427503Y-38927057D01*
X102427501Y-38927056D01*
X102251561Y-38837409D01*
X102251558Y-38837408D01*
X102063763Y-38776389D01*
X101868736Y-38745500D01*
X101868731Y-38745500D01*
X101671269Y-38745500D01*
X101671264Y-38745500D01*
X101476236Y-38776389D01*
X101288441Y-38837408D01*
X101112495Y-38927058D01*
X100952753Y-39043115D01*
X100813115Y-39182753D01*
X100697058Y-39342495D01*
X100697056Y-39342499D01*
X100616805Y-39500000D01*
X100610485Y-39512403D01*
X100562510Y-39563199D01*
X100494689Y-39579994D01*
X100428554Y-39557456D01*
X100389515Y-39512403D01*
X100302944Y-39342499D01*
X100281354Y-39312782D01*
X100186884Y-39182753D01*
X100047246Y-39043115D01*
X99887504Y-38927058D01*
X99887503Y-38927057D01*
X99887501Y-38927056D01*
X99711561Y-38837409D01*
X99711558Y-38837408D01*
X99523763Y-38776389D01*
X99328736Y-38745500D01*
X99328731Y-38745500D01*
X99131269Y-38745500D01*
X99131264Y-38745500D01*
X98936236Y-38776389D01*
X98748441Y-38837408D01*
X98572495Y-38927058D01*
X98412753Y-39043115D01*
X98273115Y-39182753D01*
X98168318Y-39326997D01*
X98112989Y-39369663D01*
X98043375Y-39375642D01*
X97981580Y-39343037D01*
X97947223Y-39282198D01*
X97944000Y-39254112D01*
X97944000Y-39198172D01*
X97943999Y-39198155D01*
X97937598Y-39138627D01*
X97937596Y-39138620D01*
X97887354Y-39003913D01*
X97887350Y-39003906D01*
X97801190Y-38888812D01*
X97801187Y-38888809D01*
X97686093Y-38802649D01*
X97686086Y-38802645D01*
X97551379Y-38752403D01*
X97551372Y-38752401D01*
X97491844Y-38746000D01*
X96940000Y-38746000D01*
X96940000Y-39566988D01*
X96882993Y-39534075D01*
X96755826Y-39500000D01*
X96624174Y-39500000D01*
X96497007Y-39534075D01*
X96440000Y-39566988D01*
X96440000Y-38746000D01*
X95888155Y-38746000D01*
X95828627Y-38752401D01*
X95828620Y-38752403D01*
X95693913Y-38802645D01*
X95693906Y-38802649D01*
X95578812Y-38888809D01*
X95578809Y-38888812D01*
X95492649Y-39003906D01*
X95492645Y-39003913D01*
X95442403Y-39138620D01*
X95442401Y-39138627D01*
X95436000Y-39198155D01*
X60000500Y-39198155D01*
X60000500Y-37421153D01*
X100699500Y-37421153D01*
X100699500Y-37578846D01*
X100730261Y-37733489D01*
X100730264Y-37733501D01*
X100790602Y-37879172D01*
X100790609Y-37879185D01*
X100878210Y-38010288D01*
X100878213Y-38010292D01*
X100989707Y-38121786D01*
X100989711Y-38121789D01*
X101120814Y-38209390D01*
X101120827Y-38209397D01*
X101266498Y-38269735D01*
X101266503Y-38269737D01*
X101421153Y-38300499D01*
X101421156Y-38300500D01*
X101421158Y-38300500D01*
X101578844Y-38300500D01*
X101578845Y-38300499D01*
X101733497Y-38269737D01*
X101879179Y-38209394D01*
X102010289Y-38121789D01*
X102121789Y-38010289D01*
X102209394Y-37879179D01*
X102269737Y-37733497D01*
X102292944Y-37616826D01*
X102325328Y-37554916D01*
X102386044Y-37520342D01*
X102455813Y-37524081D01*
X102462013Y-37526457D01*
X102566498Y-37569735D01*
X102566503Y-37569737D01*
X102721153Y-37600499D01*
X102721156Y-37600500D01*
X102721158Y-37600500D01*
X102878844Y-37600500D01*
X102878845Y-37600499D01*
X103033497Y-37569737D01*
X103179179Y-37509394D01*
X103310289Y-37421789D01*
X103310925Y-37421153D01*
X104199500Y-37421153D01*
X104199500Y-37578846D01*
X104230261Y-37733489D01*
X104230264Y-37733501D01*
X104290602Y-37879172D01*
X104290609Y-37879185D01*
X104378210Y-38010288D01*
X104378213Y-38010292D01*
X104489707Y-38121786D01*
X104489711Y-38121789D01*
X104620814Y-38209390D01*
X104620827Y-38209397D01*
X104766498Y-38269735D01*
X104766503Y-38269737D01*
X104921153Y-38300499D01*
X104921156Y-38300500D01*
X104921158Y-38300500D01*
X105078844Y-38300500D01*
X105078845Y-38300499D01*
X105233497Y-38269737D01*
X105379179Y-38209394D01*
X105510289Y-38121789D01*
X105621789Y-38010289D01*
X105709394Y-37879179D01*
X105769737Y-37733497D01*
X105800500Y-37578842D01*
X105800500Y-37421158D01*
X105800500Y-37421155D01*
X105800499Y-37421153D01*
X105778447Y-37310292D01*
X105769737Y-37266503D01*
X105733569Y-37179185D01*
X105709397Y-37120827D01*
X105709390Y-37120814D01*
X105621789Y-36989711D01*
X105621786Y-36989707D01*
X105510292Y-36878213D01*
X105510288Y-36878210D01*
X105379185Y-36790609D01*
X105379172Y-36790602D01*
X105233501Y-36730264D01*
X105233489Y-36730261D01*
X105078845Y-36699500D01*
X105078842Y-36699500D01*
X104921158Y-36699500D01*
X104921155Y-36699500D01*
X104766510Y-36730261D01*
X104766498Y-36730264D01*
X104620827Y-36790602D01*
X104620814Y-36790609D01*
X104489711Y-36878210D01*
X104489707Y-36878213D01*
X104378213Y-36989707D01*
X104378210Y-36989711D01*
X104290609Y-37120814D01*
X104290602Y-37120827D01*
X104230264Y-37266498D01*
X104230261Y-37266510D01*
X104199500Y-37421153D01*
X103310925Y-37421153D01*
X103404694Y-37327385D01*
X103421786Y-37310292D01*
X103421789Y-37310289D01*
X103509394Y-37179179D01*
X103569737Y-37033497D01*
X103600500Y-36878842D01*
X103600500Y-36721158D01*
X103600500Y-36721155D01*
X103600499Y-36721153D01*
X103592944Y-36683173D01*
X103569737Y-36566503D01*
X103559561Y-36541936D01*
X103509397Y-36420827D01*
X103509390Y-36420814D01*
X103421789Y-36289711D01*
X103421786Y-36289707D01*
X103310292Y-36178213D01*
X103310288Y-36178210D01*
X103179185Y-36090609D01*
X103179172Y-36090602D01*
X103033501Y-36030264D01*
X103033489Y-36030261D01*
X102878845Y-35999500D01*
X102878842Y-35999500D01*
X102721158Y-35999500D01*
X102721155Y-35999500D01*
X102566510Y-36030261D01*
X102566498Y-36030264D01*
X102420827Y-36090602D01*
X102420814Y-36090609D01*
X102289711Y-36178210D01*
X102289707Y-36178213D01*
X102178213Y-36289707D01*
X102178210Y-36289711D01*
X102090609Y-36420814D01*
X102090602Y-36420827D01*
X102030264Y-36566498D01*
X102030261Y-36566508D01*
X102007055Y-36683173D01*
X101974670Y-36745084D01*
X101913954Y-36779658D01*
X101844185Y-36775918D01*
X101837987Y-36773543D01*
X101767866Y-36744499D01*
X101733497Y-36730263D01*
X101733493Y-36730262D01*
X101733489Y-36730261D01*
X101578845Y-36699500D01*
X101578842Y-36699500D01*
X101421158Y-36699500D01*
X101421155Y-36699500D01*
X101266510Y-36730261D01*
X101266498Y-36730264D01*
X101120827Y-36790602D01*
X101120814Y-36790609D01*
X100989711Y-36878210D01*
X100989707Y-36878213D01*
X100878213Y-36989707D01*
X100878210Y-36989711D01*
X100790609Y-37120814D01*
X100790602Y-37120827D01*
X100730264Y-37266498D01*
X100730261Y-37266510D01*
X100699500Y-37421153D01*
X60000500Y-37421153D01*
X60000500Y-34928711D01*
X62149500Y-34928711D01*
X62149500Y-35171288D01*
X62181161Y-35411785D01*
X62243947Y-35646104D01*
X62270163Y-35709394D01*
X62336776Y-35870212D01*
X62458064Y-36080289D01*
X62458066Y-36080292D01*
X62458067Y-36080293D01*
X62605733Y-36272736D01*
X62605739Y-36272743D01*
X62777256Y-36444260D01*
X62777262Y-36444265D01*
X62969711Y-36591936D01*
X63179788Y-36713224D01*
X63403900Y-36806054D01*
X63638211Y-36868838D01*
X63818586Y-36892584D01*
X63878711Y-36900500D01*
X63878712Y-36900500D01*
X64121289Y-36900500D01*
X64169388Y-36894167D01*
X64361789Y-36868838D01*
X64596100Y-36806054D01*
X64820212Y-36713224D01*
X65030289Y-36591936D01*
X65222738Y-36444265D01*
X65394265Y-36272738D01*
X65541936Y-36080289D01*
X65663224Y-35870212D01*
X65756054Y-35646100D01*
X65818838Y-35411789D01*
X65850500Y-35171288D01*
X65850500Y-34928712D01*
X65849505Y-34921153D01*
X85199500Y-34921153D01*
X85199500Y-35078846D01*
X85230261Y-35233489D01*
X85230264Y-35233501D01*
X85290602Y-35379172D01*
X85290609Y-35379185D01*
X85378210Y-35510288D01*
X85378213Y-35510292D01*
X85489707Y-35621786D01*
X85489711Y-35621789D01*
X85620814Y-35709390D01*
X85620827Y-35709397D01*
X85766498Y-35769735D01*
X85766503Y-35769737D01*
X85921153Y-35800499D01*
X85921156Y-35800500D01*
X85921158Y-35800500D01*
X86078844Y-35800500D01*
X86078845Y-35800499D01*
X86233497Y-35769737D01*
X86379179Y-35709394D01*
X86510289Y-35621789D01*
X86621789Y-35510289D01*
X86709394Y-35379179D01*
X86769737Y-35233497D01*
X86800500Y-35078842D01*
X86800500Y-34921158D01*
X86800500Y-34921155D01*
X86796062Y-34898845D01*
X86796062Y-34898844D01*
X86792057Y-34878711D01*
X142649500Y-34878711D01*
X142649500Y-35121288D01*
X142681161Y-35361785D01*
X142743947Y-35596104D01*
X142828611Y-35800500D01*
X142836776Y-35820212D01*
X142958064Y-36030289D01*
X142958066Y-36030292D01*
X142958067Y-36030293D01*
X143105733Y-36222736D01*
X143105739Y-36222743D01*
X143277256Y-36394260D01*
X143277263Y-36394266D01*
X143311878Y-36420827D01*
X143469711Y-36541936D01*
X143679788Y-36663224D01*
X143903900Y-36756054D01*
X144138211Y-36818838D01*
X144318586Y-36842584D01*
X144378711Y-36850500D01*
X144378712Y-36850500D01*
X144621289Y-36850500D01*
X144669388Y-36844167D01*
X144861789Y-36818838D01*
X145096100Y-36756054D01*
X145320212Y-36663224D01*
X145530289Y-36541936D01*
X145722738Y-36394265D01*
X145894265Y-36222738D01*
X146041936Y-36030289D01*
X146163224Y-35820212D01*
X146256054Y-35596100D01*
X146318838Y-35361789D01*
X146350500Y-35121288D01*
X146350500Y-34878712D01*
X146318838Y-34638211D01*
X146256054Y-34403900D01*
X146163224Y-34179788D01*
X146041936Y-33969711D01*
X145894265Y-33777262D01*
X145894260Y-33777256D01*
X145722743Y-33605739D01*
X145722736Y-33605733D01*
X145530293Y-33458067D01*
X145530292Y-33458066D01*
X145530289Y-33458064D01*
X145320212Y-33336776D01*
X145320205Y-33336773D01*
X145096104Y-33243947D01*
X144861785Y-33181161D01*
X144621289Y-33149500D01*
X144621288Y-33149500D01*
X144378712Y-33149500D01*
X144378711Y-33149500D01*
X144138214Y-33181161D01*
X143903895Y-33243947D01*
X143679794Y-33336773D01*
X143679785Y-33336777D01*
X143469706Y-33458067D01*
X143277263Y-33605733D01*
X143277256Y-33605739D01*
X143105739Y-33777256D01*
X143105733Y-33777263D01*
X142958067Y-33969706D01*
X142836777Y-34179785D01*
X142836773Y-34179794D01*
X142743947Y-34403895D01*
X142681161Y-34638214D01*
X142649500Y-34878711D01*
X86792057Y-34878711D01*
X86769738Y-34766510D01*
X86769737Y-34766503D01*
X86737308Y-34688211D01*
X86709397Y-34620827D01*
X86709390Y-34620814D01*
X86621789Y-34489711D01*
X86621786Y-34489707D01*
X86510292Y-34378213D01*
X86510288Y-34378210D01*
X86379185Y-34290609D01*
X86379172Y-34290602D01*
X86233501Y-34230264D01*
X86233489Y-34230261D01*
X86078845Y-34199500D01*
X86078842Y-34199500D01*
X85921158Y-34199500D01*
X85921155Y-34199500D01*
X85766510Y-34230261D01*
X85766498Y-34230264D01*
X85620827Y-34290602D01*
X85620814Y-34290609D01*
X85489711Y-34378210D01*
X85489707Y-34378213D01*
X85378213Y-34489707D01*
X85378210Y-34489711D01*
X85290609Y-34620814D01*
X85290602Y-34620827D01*
X85230264Y-34766498D01*
X85230261Y-34766510D01*
X85199500Y-34921153D01*
X65849505Y-34921153D01*
X65818838Y-34688211D01*
X65756054Y-34453900D01*
X65663224Y-34229788D01*
X65541936Y-34019711D01*
X65394265Y-33827262D01*
X65394260Y-33827256D01*
X65222743Y-33655739D01*
X65222736Y-33655733D01*
X65030293Y-33508067D01*
X65030292Y-33508066D01*
X65030289Y-33508064D01*
X64820212Y-33386776D01*
X64820205Y-33386773D01*
X64596104Y-33293947D01*
X64361785Y-33231161D01*
X64121289Y-33199500D01*
X64121288Y-33199500D01*
X63878712Y-33199500D01*
X63878711Y-33199500D01*
X63638214Y-33231161D01*
X63403895Y-33293947D01*
X63179794Y-33386773D01*
X63179785Y-33386777D01*
X62969706Y-33508067D01*
X62777263Y-33655733D01*
X62777256Y-33655739D01*
X62605739Y-33827256D01*
X62605733Y-33827263D01*
X62458067Y-34019706D01*
X62336777Y-34229785D01*
X62336773Y-34229794D01*
X62243947Y-34453895D01*
X62181161Y-34688214D01*
X62149500Y-34928711D01*
X60000500Y-34928711D01*
X60000500Y-30624500D01*
X60020185Y-30557461D01*
X60072989Y-30511706D01*
X60124500Y-30500500D01*
X126934108Y-30500500D01*
X149375500Y-30500500D01*
X149442539Y-30520185D01*
G37*
G04 #@! TD.AperFunction*
M02*
