M48
; DRILL file {KiCad 9.0.3} date 2025-11-14T23:28:36+0500
; FORMAT={-:-/ absolute / metric / decimal}
; #@! TF.CreationDate,2025-11-14T23:28:36+05:00
; #@! TF.GenerationSoftware,Kicad,Pcbnew,9.0.3
; #@! TF.FileFunction,Plated,1,4,PTH
FMAT,2
METRIC
; #@! TA.AperFunction,Plated,PTH,ViaDrill
T1C0.300
; #@! TA.AperFunction,Plated,PTH,ComponentDrill
T2C0.800
; #@! TA.AperFunction,Plated,PTH,ComponentDrill
T3C1.000
; #@! TA.AperFunction,Plated,PTH,ComponentDrill
T4C1.040
%
G90
G05
T1
X61.55Y-102.65
X61.55Y-107.15
X61.625Y-112.35
X61.625Y-116.85
X64.325Y-86.025
X64.325Y-90.525
X64.35Y-102.625
X64.375Y-93.675
X64.375Y-98.175
X64.475Y-112.45
X64.5Y-107.575
X67.2Y-115.575
X67.2Y-120.075
X67.425Y-53.15
X67.425Y-57.65
X67.45Y-37.775
X67.45Y-42.275
X67.45Y-44.925
X67.45Y-49.425
X69.0Y-55.5
X72.0Y-74.0
X72.0Y-79.0
X72.0Y-84.0
X72.0Y-89.0
X72.0Y-94.0
X72.0Y-98.5
X72.0Y-103.5
X72.0Y-118.5
X72.1Y-112.85
X72.125Y-107.25
X74.9Y-57.3
X75.325Y-48.225
X75.5Y-59.5
X75.5Y-63.5
X75.5Y-69.0
X77.7Y-106.5
X77.7Y-111.5
X77.7Y-116.5
X78.0Y-63.5
X78.3Y-72.425
X78.6Y-55.5
X79.0Y-57.0
X79.5Y-54.0
X79.5Y-83.5
X79.5Y-88.5
X79.5Y-93.5
X79.5Y-98.5
X79.5Y-103.5
X80.0Y-61.0
X80.45Y-125.125
X81.0Y-59.5
X81.5Y-52.0
X82.0Y-39.0
X82.0Y-45.0
X82.0Y-47.5
X82.0Y-58.0
X83.0Y-67.5
X83.0Y-69.5
X83.0Y-79.5
X83.0Y-82.0
X83.0Y-104.0
X83.275Y-125.95
X84.0Y-77.0
X84.0Y-82.0
X84.5Y-36.5
X84.55Y-128.15
X85.0Y-45.0
X85.0Y-52.0
X85.0Y-57.0
X85.0Y-62.0
X85.0Y-67.0
X85.0Y-72.0
X85.0Y-100.5
X85.35Y-111.675
X85.5Y-32.5
X86.0Y-35.0
X86.0Y-39.0
X86.0Y-47.5
X86.0Y-75.4
X86.0Y-76.4
X88.0Y-32.0
X88.0Y-34.0
X88.5Y-36.0
X88.525Y-103.85
X88.825Y-128.075
X89.1Y-123.0
X89.4Y-117.3
X89.65Y-76.075
X89.925Y-78.475
X90.0Y-85.0
X90.0Y-89.5
X90.0Y-94.0
X90.0Y-98.5
X90.0Y-103.0
X90.5Y-125.0
X90.6Y-68.7
X90.7Y-75.05
X91.0Y-36.0
X91.0Y-104.5
X91.0Y-107.5
X91.5Y-114.5
X91.8Y-68.7
X92.0Y-32.0
X92.0Y-34.0
X92.0Y-78.5
X92.0Y-80.5
X92.0Y-110.0
X92.2Y-42.9
X92.825Y-128.075
X92.9Y-122.1
X93.0Y-68.7
X93.0Y-105.5
X93.1Y-125.0
X93.5Y-36.0
X93.5Y-39.5
X93.75Y-80.5
X93.75Y-85.0
X93.75Y-89.5
X93.75Y-94.0
X93.75Y-98.5
X93.75Y-103.0
X93.75Y-112.5
X94.1Y-120.1
X94.5Y-73.0
X94.8Y-35.1
X95.45Y-41.95
X95.5Y-77.0
X95.5Y-80.5
X95.5Y-85.0
X95.5Y-89.5
X95.5Y-94.0
X95.5Y-98.5
X95.5Y-103.0
X95.5Y-106.25
X95.5Y-112.5
X96.5Y-32.0
X96.5Y-34.0
X96.5Y-36.0
X96.7Y-35.0
X97.325Y-128.075
X97.5Y-70.0
X97.5Y-79.0
X97.5Y-80.5
X97.5Y-114.0
X97.7Y-120.2
X99.5Y-70.0
X99.5Y-76.0
X99.5Y-85.0
X99.5Y-89.5
X99.5Y-94.0
X99.5Y-98.5
X99.5Y-103.0
X99.5Y-106.25
X99.5Y-111.0
X100.175Y-76.8
X100.5Y-32.0
X100.5Y-39.0
X100.7Y-42.9
X101.325Y-128.075
X101.5Y-37.5
X102.475Y-78.625
X102.5Y-70.0
X102.5Y-114.0
X102.7Y-120.2
X102.8Y-36.8
X103.0Y-39.0
X104.0Y-32.0
X104.0Y-37.5
X104.175Y-77.85
X104.5Y-74.0
X104.5Y-75.9
X104.825Y-128.075
X105.0Y-37.5
X105.95Y-42.075
X106.0Y-39.0
X106.0Y-95.0
X106.0Y-100.0
X106.0Y-105.0
X106.0Y-110.0
X106.0Y-114.0
X106.2Y-120.2
X106.6Y-35.0
X107.0Y-74.0
X107.5Y-70.0
X108.125Y-128.075
X108.2Y-42.9
X109.975Y-77.85
X110.0Y-74.0
X110.0Y-76.0
X110.375Y-106.825
X110.5Y-97.4
X110.5Y-102.4
X110.5Y-112.4
X110.5Y-116.4
X110.925Y-128.075
X112.5Y-70.0
X115.0Y-92.5
X115.0Y-95.0
X115.5Y-85.4
X115.5Y-87.2
X115.5Y-89.8
X117.5Y-70.0
X118.8Y-74.0
X120.0Y-82.062
X120.0Y-77.5
X120.0Y-85.0
X120.0Y-87.5
X120.5Y-91.5
X120.5Y-92.5
X121.0Y-95.0
X121.0Y-97.1
X121.875Y-81.65
X122.5Y-70.0
X122.95Y-97.625
X123.0Y-74.0
X125.0Y-77.5
X125.175Y-81.575
X127.0Y-74.0
X127.5Y-70.0
X127.5Y-77.5
X129.675Y-81.625
X130.3Y-120.0
X130.325Y-121.875
X130.89Y-77.93
X131.0Y-74.0
X132.225Y-81.65
X132.5Y-70.0
X133.0Y-76.0
X133.1Y-120.0
X134.075Y-123.825
X134.125Y-118.825
X134.725Y-81.65
X135.5Y-74.0
X135.7Y-120.0
X136.925Y-123.55
X137.25Y-81.65
X137.5Y-70.0
X138.1Y-120.0
X138.125Y-122.275
X138.5Y-72.5
X139.975Y-81.55
T2
X71.655Y-50.71
X74.195Y-50.71
X76.735Y-50.71
X79.275Y-50.71
X112.5Y-76.2
X114.5Y-76.2
X121.0Y-106.5
X123.0Y-106.5
X128.0Y-106.5
X128.5Y-93.5
X130.0Y-106.5
X130.5Y-93.5
T3
X80.68Y-65.87
X80.68Y-68.41
X80.68Y-70.95
X80.68Y-73.49
X80.68Y-76.03
X80.68Y-78.57
X96.69Y-40.0
X99.23Y-40.0
X101.77Y-40.0
X104.31Y-40.0
X123.27Y-84.2
X123.27Y-86.74
X125.81Y-84.2
X125.81Y-86.74
X128.35Y-84.2
X128.35Y-86.74
X130.89Y-84.2
X130.89Y-86.74
X133.43Y-84.2
X133.43Y-86.74
X135.97Y-84.2
X135.97Y-86.74
X138.51Y-84.2
X138.51Y-86.74
X141.05Y-84.2
X141.05Y-86.74
T4
X87.0Y-82.44
X87.0Y-84.98
X87.0Y-87.52
X87.0Y-90.06
X87.0Y-92.6
X87.0Y-95.14
X87.0Y-97.68
X87.0Y-100.22
X87.0Y-102.76
X87.0Y-105.3
X87.0Y-107.84
X87.0Y-110.38
X87.0Y-112.92
X87.0Y-115.46
X87.0Y-118.0
X87.0Y-120.54
X87.0Y-123.08
X87.0Y-125.62
X87.0Y-128.16
X112.4Y-82.44
X112.4Y-84.98
X112.4Y-87.52
X112.4Y-90.06
X112.4Y-92.6
X112.4Y-95.14
X112.4Y-97.68
X112.4Y-100.22
X112.4Y-102.76
X112.4Y-105.3
X112.4Y-107.84
X112.4Y-110.38
X112.4Y-112.92
X112.4Y-115.46
X112.4Y-118.0
X112.4Y-120.54
X112.4Y-123.08
X112.4Y-125.62
X112.4Y-128.16
T2
G00X129.325Y-123.4
M15
G01X129.325Y-125.6
M16
G05
G00X135.225Y-121.7
M15
G01X133.025Y-121.7
M16
G05
G00X135.425Y-127.5
M15
G01X132.825Y-127.5
M16
G05
M30
