G04 #@! TF.GenerationSoftware,KiCad,Pcbnew,9.0.3*
G04 #@! TF.CreationDate,2025-11-14T23:27:14+05:00*
G04 #@! TF.ProjectId,Weather Station,57656174-6865-4722-9053-746174696f6e,rev?*
G04 #@! TF.SameCoordinates,Original*
G04 #@! TF.FileFunction,Soldermask,Bot*
G04 #@! TF.FilePolarity,Negative*
%FSLAX46Y46*%
G04 Gerber Fmt 4.6, Leading zero omitted, Abs format (unit mm)*
G04 Created by KiCad (PCBNEW 9.0.3) date 2025-11-14 23:27:14*
%MOMM*%
%LPD*%
G01*
G04 APERTURE LIST*
G04 Aperture macros list*
%AMRoundRect*
0 Rectangle with rounded corners*
0 $1 Rounding radius*
0 $2 $3 $4 $5 $6 $7 $8 $9 X,Y pos of 4 corners*
0 Add a 4 corners polygon primitive as box body*
4,1,4,$2,$3,$4,$5,$6,$7,$8,$9,$2,$3,0*
0 Add four circle primitives for the rounded corners*
1,1,$1+$1,$2,$3*
1,1,$1+$1,$4,$5*
1,1,$1+$1,$6,$7*
1,1,$1+$1,$8,$9*
0 Add four rect primitives between the rounded corners*
20,1,$1+$1,$2,$3,$4,$5,0*
20,1,$1+$1,$4,$5,$6,$7,0*
20,1,$1+$1,$6,$7,$8,$9,0*
20,1,$1+$1,$8,$9,$2,$3,0*%
G04 Aperture macros list end*
%ADD10R,1.700000X1.700000*%
%ADD11C,1.700000*%
%ADD12RoundRect,0.102000X-0.754000X-0.754000X0.754000X-0.754000X0.754000X0.754000X-0.754000X0.754000X0*%
%ADD13C,1.712000*%
%ADD14C,3.204000*%
%ADD15C,1.220000*%
%ADD16C,1.764000*%
%ADD17RoundRect,0.102000X0.780000X0.780000X-0.780000X0.780000X-0.780000X-0.780000X0.780000X-0.780000X0*%
%ADD18C,1.600000*%
%ADD19RoundRect,0.250000X-0.550000X-0.550000X0.550000X-0.550000X0.550000X0.550000X-0.550000X0.550000X0*%
%ADD20C,3.200000*%
%ADD21R,4.400000X1.800000*%
%ADD22O,4.000000X1.800000*%
%ADD23O,1.800000X4.000000*%
G04 APERTURE END LIST*
D10*
X123270000Y-84200000D03*
D11*
X123270000Y-86740000D03*
X125810000Y-84200000D03*
X125810000Y-86740000D03*
X128350000Y-84200000D03*
X128350000Y-86740000D03*
X130890000Y-84200000D03*
X130890000Y-86740000D03*
X133430000Y-84200000D03*
X133430000Y-86740000D03*
X135970000Y-84200000D03*
X135970000Y-86740000D03*
X138510000Y-84200000D03*
X138510000Y-86740000D03*
X141050000Y-84200000D03*
X141050000Y-86740000D03*
D12*
X96690000Y-40000000D03*
D13*
X99230000Y-40000000D03*
X101770000Y-40000000D03*
X104310000Y-40000000D03*
D14*
X89500000Y-40500000D03*
X111500000Y-40500000D03*
X111500000Y-62500000D03*
X89500000Y-62500000D03*
D15*
X71654550Y-50710000D03*
X74194550Y-50710000D03*
X76734550Y-50710000D03*
X79274550Y-50710000D03*
D10*
X80680000Y-78570000D03*
D11*
X80680000Y-76030000D03*
X80680000Y-73490000D03*
X80680000Y-70950000D03*
X80680000Y-68410000D03*
X80680000Y-65870000D03*
D16*
X87000000Y-82440000D03*
X87000000Y-84980000D03*
X87000000Y-87520000D03*
X87000000Y-90060000D03*
X87000000Y-92600000D03*
X87000000Y-95140000D03*
X87000000Y-97680000D03*
X87000000Y-100220000D03*
X87000000Y-102760000D03*
X87000000Y-105300000D03*
X87000000Y-107840000D03*
X87000000Y-110380000D03*
X87000000Y-112920000D03*
X87000000Y-115460000D03*
X87000000Y-118000000D03*
X87000000Y-120540000D03*
X87000000Y-123080000D03*
X87000000Y-125620000D03*
X87000000Y-128160000D03*
X112400000Y-82440000D03*
X112400000Y-84980000D03*
X112400000Y-87520000D03*
X112400000Y-90060000D03*
X112400000Y-92600000D03*
X112400000Y-95140000D03*
X112400000Y-97680000D03*
X112400000Y-100220000D03*
X112400000Y-102760000D03*
X112400000Y-105300000D03*
X112400000Y-107840000D03*
X112400000Y-110380000D03*
X112400000Y-112920000D03*
X112400000Y-115460000D03*
X112400000Y-118000000D03*
X112400000Y-120540000D03*
X112400000Y-123080000D03*
X112400000Y-125620000D03*
D17*
X112400000Y-128160000D03*
D18*
X114500000Y-76200000D03*
D19*
X112500000Y-76200000D03*
D20*
X144500000Y-125000000D03*
X144500000Y-35000000D03*
X63930000Y-125000000D03*
D19*
X121000000Y-106500000D03*
D18*
X123000000Y-106500000D03*
D20*
X64000000Y-35050000D03*
D21*
X134125000Y-127500000D03*
D22*
X134125000Y-121700000D03*
D23*
X129325000Y-124500000D03*
D19*
X128500000Y-93500000D03*
D18*
X130500000Y-93500000D03*
D19*
X128000000Y-106500000D03*
D18*
X130000000Y-106500000D03*
M02*
